<svg width="42" height="38" viewBox="0 0 42 38" fill="none" xmlns="http://www.w3.org/2000/svg">
<g clip-path="url(#clip0_1_116)">
<path d="M41.931 35.8004C41.7131 34.6504 41.1182 33.689 40.3351 33.0588L40.4503 33.045C40.6219 33.024 40.7783 32.9381 40.8859 32.8056C40.9934 32.6732 41.0436 32.5048 41.0257 32.3366L40.999 32.0843C40.9951 32.0558 40.989 32.0277 40.981 32C40.9422 31.8403 40.8425 31.7012 40.7024 31.6108C40.5623 31.5205 40.3923 31.4859 40.2269 31.5139L39.9494 31.5615C39.8711 30.6829 39.759 29.7544 39.6108 28.7961C39.5779 28.5845 39.5458 28.3736 39.5097 28.1597C38.7258 23.5314 37.3721 19.731 36.1963 18.5971C35.7676 17.0892 35.2293 15.6131 34.5855 14.1803C34.4985 13.9863 34.4083 13.797 34.3166 13.6015V13.5946C34.2079 13.3671 34.0969 13.1404 33.9835 12.9145L33.9294 12.8072C33.8144 12.5792 33.6966 12.3528 33.5759 12.1279C33.4688 11.9235 33.3593 11.7223 33.2474 11.5245C33.2103 11.4607 33.1589 11.4059 33.0969 11.3643C33.0852 11.3559 33.075 11.3451 33.0632 11.3375H33.0554C33.0111 11.312 32.9637 11.2922 32.9143 11.2784C32.0521 8.27693 30.707 5.69402 29.0303 3.77351C29.0413 3.75434 29.0522 3.73441 29.064 3.71524C29.0757 3.69608 29.0804 3.69148 29.0891 3.67998C29.1071 3.65238 29.1267 3.62631 29.1471 3.60331L29.1769 3.56651C29.198 3.54044 29.2208 3.51514 29.2443 3.48984C29.2537 3.47987 29.2623 3.46991 29.2717 3.46071C29.3046 3.42697 29.3391 3.39401 29.3744 3.36334C29.5992 3.16938 29.865 3.0262 30.1528 2.94397C30.1731 2.93784 30.1943 2.93477 30.2147 2.92941C30.8418 2.76841 31.5112 2.85274 32.1485 2.98077C32.8069 3.11341 33.4646 3.28744 34.1363 3.28054C34.5824 3.27441 35.0707 3.15787 35.3247 2.79984C35.3507 2.76346 35.3735 2.72499 35.3929 2.68484C35.3961 2.67859 35.3989 2.6722 35.4015 2.66567C35.417 2.63227 35.4303 2.59796 35.4415 2.56294C35.4415 2.55757 35.4462 2.55297 35.4477 2.5476C35.4489 2.54139 35.4505 2.53524 35.4524 2.5292C35.4571 2.51004 35.4618 2.49087 35.4658 2.4717L35.4728 2.44104C35.4783 2.41059 35.4823 2.37988 35.4846 2.34904C35.4865 2.31559 35.4865 2.28205 35.4846 2.2486C35.4846 2.21487 35.4846 2.18114 35.4791 2.1474C35.4361 1.81538 35.3005 1.50134 35.0872 1.23966C34.3817 0.361828 33.1887 -0.0636744 32.0528 0.0198926C30.917 0.10346 29.8526 0.664663 29.0334 1.439C28.6348 1.81747 28.282 2.23962 27.9823 2.69711C26.1974 1.0664 24.1225 0.131828 21.9144 0.131828H20.0849C17.8368 0.131828 15.7274 1.10013 13.9206 2.78527L13.9088 2.76534C13.7427 2.50615 13.5611 2.2568 13.3648 2.0186C13.1946 1.81113 13.0114 1.61422 12.8161 1.42903C11.997 0.654696 10.9349 0.0965616 9.79671 0.00992785C8.65854 -0.0767059 7.46316 0.351861 6.76239 1.2297C6.54867 1.49085 6.41302 1.80476 6.37046 2.13667C6.37046 2.17117 6.36497 2.20567 6.36497 2.2394C6.36497 2.2739 6.36497 2.30687 6.36497 2.3406C6.36497 2.37434 6.37281 2.4073 6.37908 2.44027C6.38535 2.47247 6.39318 2.50544 6.40259 2.53687C6.4148 2.57665 6.42974 2.61558 6.44728 2.6534L6.45668 2.67411C6.47623 2.71392 6.49904 2.75212 6.52488 2.78834C6.77885 3.14637 7.26719 3.26291 7.71243 3.26904C8.38498 3.27824 9.04499 3.10191 9.70108 2.96927C10.3384 2.84124 11.007 2.75691 11.6349 2.91791C11.6552 2.92327 11.6764 2.92634 11.6968 2.93247C11.7297 2.94167 11.7626 2.95317 11.7955 2.96391C12.046 3.04909 12.2771 3.18111 12.4759 3.35261C12.5112 3.38327 12.5449 3.41547 12.5778 3.44921C12.5872 3.45841 12.5959 3.46838 12.6053 3.47834C12.6288 3.50288 12.6515 3.52818 12.6727 3.55501C12.6829 3.56651 12.6931 3.57878 12.7025 3.59104C12.7229 3.61711 12.7424 3.64394 12.7605 3.66771C12.7691 3.67921 12.7777 3.69148 12.7848 3.70298C12.8099 3.74086 12.8329 3.78002 12.8538 3.82028C12.8624 3.83638 12.8694 3.85324 12.8773 3.87011C11.2445 5.77988 9.93074 8.32139 9.08809 11.2662C8.9477 11.3028 8.82789 11.3924 8.75495 11.5153C8.58799 11.8136 8.4273 12.1156 8.26896 12.4185C8.17647 12.5948 8.08633 12.7719 7.99697 12.9498C7.97659 12.9912 7.9562 13.0326 7.93504 13.0732C7.85665 13.238 7.77199 13.4037 7.6936 13.5693C7.6936 13.5777 7.68577 13.5846 7.68185 13.5922C7.59093 13.7839 7.50078 13.9756 7.41299 14.1711C6.76966 15.6043 6.23161 17.0806 5.80294 18.5886C5.61994 18.7725 5.45731 18.9747 5.31773 19.192L5.30049 19.2188C5.26286 19.2756 5.2221 19.3346 5.18839 19.3959L5.15939 19.4442C5.1249 19.5025 5.08963 19.5623 5.05514 19.6236C5.04495 19.642 5.03476 19.6589 5.02535 19.6773C4.98146 19.754 4.93756 19.8368 4.89444 19.9211L4.88112 19.9464C4.84585 20.0146 4.81135 20.0844 4.77608 20.1565C4.76746 20.1756 4.75805 20.1948 4.74865 20.214C4.71886 20.2761 4.68829 20.3405 4.6585 20.4056L4.62323 20.4823C4.5958 20.5429 4.56836 20.605 4.54485 20.6679C4.53152 20.6978 4.51819 20.7284 4.50565 20.7583C4.479 20.8197 4.45313 20.8818 4.42727 20.9446C4.41316 20.9776 4.39904 21.0106 4.38572 21.0443C4.35985 21.1072 4.33398 21.1716 4.30733 21.2367L4.26579 21.3402C4.23914 21.4092 4.21248 21.4805 4.1874 21.5518C4.17486 21.5833 4.1631 21.6139 4.15135 21.6461C4.11294 21.7496 4.07296 21.8547 4.03691 21.9628C3.58583 23.2614 3.2144 24.5853 2.9246 25.9272C2.76783 26.644 2.6189 27.3908 2.48957 28.1613C2.43391 28.4871 2.38452 28.8083 2.33749 29.1273C2.21364 29.9706 2.11801 30.7848 2.04981 31.563L1.77155 31.5155C1.60631 31.4874 1.43636 31.5221 1.29637 31.6124C1.15639 31.7028 1.05692 31.8419 1.01826 32.0015C1.01024 32.0292 1.00421 32.0574 1.00023 32.0859L0.973575 32.3381C0.955625 32.5063 1.00582 32.6747 1.11339 32.8072C1.22096 32.9396 1.37733 33.0255 1.54893 33.0465L1.66338 33.0603C0.879515 33.6905 0.286135 34.655 0.0682222 35.8019C0.0384356 35.9598 0.0164806 36.1165 0.00237113 36.2719C-0.0106521 36.4341 0.0382296 36.5952 0.139566 36.7242C0.240902 36.8532 0.387504 36.9409 0.551073 36.9703L0.608303 36.9803C0.764202 37.0077 0.925002 36.981 1.06286 36.9047C1.20072 36.8284 1.30695 36.7073 1.36316 36.5625C1.86248 35.3143 2.89717 34.517 3.91305 34.7017C4.92893 34.8865 5.60227 35.9943 5.60932 37.3345C5.60746 37.4715 5.64928 37.6057 5.72897 37.7183C5.80866 37.831 5.92225 37.9166 6.05398 37.9632C6.1857 38.0099 6.329 38.0152 6.46396 37.9785C6.59893 37.9418 6.71885 37.8649 6.80706 37.7585V37.7523C6.83212 37.7218 6.85442 37.6892 6.87369 37.655C6.89488 37.6168 6.91171 37.5764 6.92386 37.5346C6.96905 37.3832 7.00647 37.2297 7.03595 37.0746C7.28209 35.7812 6.99598 34.5361 6.35008 33.6376L6.7522 33.6867C6.90719 33.7058 7.06408 33.6705 7.19498 33.5871C7.32587 33.5037 7.42229 33.3776 7.46708 33.2313V33.2167C7.49163 33.13 7.49736 33.0391 7.48391 32.9501C7.47045 32.861 7.43811 32.7757 7.38895 32.6996C7.33979 32.6235 7.2749 32.5583 7.19845 32.5082C7.122 32.4581 7.03567 32.4242 6.94502 32.4086L6.4504 32.3235C6.47706 32.2185 6.50371 32.1119 6.52879 32.0054C6.76395 31.0378 6.97873 30.0028 7.16137 28.9211C7.94523 24.262 7.90525 20.2147 7.14961 18.7972C7.36439 18.0596 7.60686 17.3303 7.87703 16.6091C7.89898 16.5485 7.92171 16.488 7.94445 16.4274C8.03067 16.2005 8.11925 15.9746 8.21018 15.7497C8.15766 16.235 8.11925 16.7272 8.09103 17.2247C8.09103 17.293 8.08397 17.3612 8.08084 17.4302C8.08084 17.4486 8.08084 17.467 8.08084 17.4854C8.07038 17.7047 8.06254 17.9252 8.05732 18.147V18.2038C8.05732 18.3617 8.05026 18.5196 8.04948 18.6783C8.04948 18.7075 8.04948 18.7358 8.04948 18.765C8.04948 18.8416 8.04948 18.9183 8.04948 18.995C8.04948 23.2784 8.80904 26.1503 10.017 28.0769C10.5138 28.9674 11.0854 29.8159 11.7258 30.6139C12.5738 31.6627 13.5505 32.6057 14.6339 33.4214C14.8333 33.7908 15.0534 34.1491 15.2931 34.4947L15.2978 34.5009C15.3496 34.5775 15.4029 34.6496 15.4546 34.7224C15.5095 34.7991 15.5644 34.8696 15.62 34.9409H15.6247C16.933 36.6161 18.6034 37.6243 20.4196 37.6243H21.5703C23.8748 37.6243 25.9489 36.0066 27.3403 33.4513C28.4444 32.6264 29.439 31.6698 30.3009 30.6039C30.5533 30.288 30.7963 29.9614 31.0307 29.6272C31.503 28.9578 31.9253 28.2561 32.2943 27.5272C32.756 26.6647 33.1369 25.6343 33.4168 24.4077C33.7225 23.0668 33.9075 21.489 33.9419 19.6305C33.9419 19.4189 33.9482 19.2043 33.9482 18.985V18.755C33.9482 18.7466 33.9482 18.7389 33.9482 18.7312C33.9482 18.5511 33.9482 18.3717 33.9404 18.1946C33.9404 18.1892 33.9404 18.1838 33.9404 18.1777V18.0918C33.9404 18.0152 33.9357 17.9423 33.9325 17.868L33.9278 17.7062C33.9278 17.7016 33.9278 17.697 33.9278 17.6924C33.9216 17.5452 33.9145 17.3972 33.9067 17.2508C33.9063 17.2462 33.9063 17.2416 33.9067 17.237C33.9067 17.2293 33.9067 17.2224 33.9067 17.2148C33.8779 16.719 33.8374 16.2283 33.7852 15.7428C33.9325 16.1062 34.0734 16.4724 34.2077 16.8414C34.4423 17.4844 34.6547 18.134 34.8449 18.7903C34.0901 20.2078 34.0478 24.2551 34.834 28.9142C35.0166 29.9959 35.2306 31.0309 35.4666 31.9985C35.4924 32.105 35.5183 32.2116 35.5449 32.3166L35.0511 32.4017C34.96 32.4168 34.8732 32.4504 34.7963 32.5004C34.7193 32.5503 34.654 32.6156 34.6045 32.6918C34.5549 32.7681 34.5224 32.8537 34.5088 32.943C34.4953 33.0324 34.5011 33.1235 34.5259 33.2106V33.2251C34.571 33.3715 34.6676 33.4975 34.7986 33.5809C34.9296 33.6642 35.0865 33.6995 35.2416 33.6805L35.6437 33.6315C35.5651 33.7409 35.4923 33.8543 35.4258 33.9711C35.3952 34.0248 35.3654 34.0792 35.3372 34.1352C34.8902 35.0472 34.7571 36.0763 34.9578 37.0685C34.9876 37.2264 35.0252 37.3805 35.0691 37.5285C35.0816 37.5701 35.0984 37.6105 35.1193 37.6488C35.1386 37.6831 35.1609 37.7157 35.1859 37.7462V37.7523C35.2741 37.8588 35.3941 37.9357 35.529 37.9724C35.664 38.0091 35.8073 38.0037 35.939 37.9571C36.0707 37.9105 36.1843 37.8249 36.264 37.7122C36.3437 37.5995 36.3855 37.4654 36.3837 37.3284C36.3907 35.9882 37.0633 34.8804 38.0792 34.6956C39.095 34.5108 40.1305 35.3089 40.6298 36.5563C40.686 36.7012 40.7923 36.8222 40.9301 36.8985C41.068 36.9748 41.2288 37.0016 41.3847 36.9742L41.4419 36.9642C41.6055 36.9347 41.7521 36.847 41.8534 36.7181C41.9548 36.5891 42.0036 36.4279 41.9906 36.2657C41.9786 36.1134 41.9587 35.9583 41.931 35.8004Z" fill="#9179B6"/>
<path d="M12.9133 3.83642C13.2186 3.48117 13.5428 3.14183 13.8845 2.81981C13.8923 2.80141 13.9009 2.78455 13.9088 2.76615C13.7427 2.50695 13.561 2.25761 13.3648 2.01941C13.2706 2.11583 13.1892 2.22351 13.1226 2.33988C12.9465 2.62303 12.7704 2.90568 12.5942 3.18781C12.566 3.23305 12.5159 3.29361 12.4751 3.35648C12.5104 3.38715 12.5441 3.41935 12.577 3.45308C12.5864 3.46228 12.595 3.47225 12.6044 3.48221C12.628 3.50675 12.6507 3.53205 12.6718 3.55888C12.682 3.57038 12.6922 3.58265 12.7016 3.59492C12.722 3.62098 12.7416 3.64782 12.7596 3.67158C12.7683 3.68308 12.7769 3.69535 12.7839 3.70685C12.809 3.74474 12.8321 3.78389 12.8529 3.82415C12.8726 3.82994 12.8928 3.83405 12.9133 3.83642Z" fill="#765AA2"/>
<path d="M11.761 2.65652C11.5172 2.09685 10.3979 1.84538 9.86722 1.73651C8.6977 1.49808 7.38865 1.45284 6.40256 2.11295L6.36807 2.13748C6.36807 2.17198 6.36258 2.20648 6.36258 2.24022C6.36258 2.27472 6.36258 2.30768 6.36258 2.34141C6.36258 2.37515 6.37042 2.40812 6.37669 2.44108C6.38296 2.47328 6.3908 2.50625 6.4002 2.53768C6.48394 2.45233 6.5761 2.37529 6.67534 2.30768C7.58148 1.70125 8.78471 1.74188 9.85938 1.96191C10.3469 2.06158 11.3754 2.29312 11.5996 2.80525C11.6169 2.8443 11.6296 2.88522 11.6372 2.92715C11.6576 2.93252 11.6787 2.93558 11.6991 2.94172C11.732 2.95092 11.7649 2.96242 11.7979 2.97315C11.8208 2.86648 11.8079 2.75541 11.761 2.65652Z" fill="#765AA2"/>
<path d="M9.86097 1.96804C8.7863 1.74801 7.58307 1.70737 6.67693 2.31381C6.57769 2.38142 6.48553 2.45846 6.40179 2.54381C6.41401 2.58359 6.42894 2.62252 6.44648 2.66034L6.45589 2.68105C6.47544 2.72086 6.49824 2.75906 6.52408 2.79528C6.77805 3.15331 7.2664 3.26985 7.71163 3.27598C8.38418 3.28518 9.04419 3.10885 9.70028 2.97621C10.3376 2.84818 11.0062 2.76385 11.6341 2.92485C11.6269 2.88698 11.6156 2.84997 11.6004 2.81445C11.377 2.29924 10.3485 2.06771 9.86097 1.96804Z" fill="#61478A"/>
<path d="M29.2528 3.18781L28.7253 2.33988C28.6584 2.22366 28.5771 2.11601 28.4831 2.01941C28.3041 2.23685 28.1377 2.46388 27.9846 2.69945C28.3526 3.03783 28.7009 3.39618 29.0279 3.77278C29.0388 3.75362 29.0498 3.73368 29.0616 3.71452C29.0733 3.69535 29.078 3.69075 29.0867 3.67925C29.1047 3.65165 29.1243 3.62558 29.1447 3.60258L29.1745 3.56578C29.1956 3.53971 29.2183 3.51441 29.2419 3.48911C29.2513 3.47915 29.2599 3.46918 29.2693 3.45998C29.3022 3.42625 29.3367 3.39328 29.372 3.36261C29.3312 3.29361 29.2811 3.23381 29.2528 3.18781Z" fill="#765AA2"/>
<path d="M31.9791 1.73649C31.4484 1.84536 30.333 2.09683 30.0853 2.6565C30.0401 2.75452 30.028 2.8641 30.0508 2.9693C30.0837 2.95856 30.1167 2.94707 30.1496 2.93787C30.17 2.93173 30.1911 2.92867 30.2115 2.9233C30.2187 2.88543 30.23 2.84843 30.2452 2.8129C30.4694 2.29923 31.4994 2.06769 31.9854 1.96956C33.06 1.74953 34.2625 1.70889 35.1694 2.31533C35.2687 2.38294 35.3608 2.45998 35.4445 2.54533C35.4457 2.53911 35.4473 2.53297 35.4493 2.52693C35.454 2.50776 35.4587 2.4886 35.4626 2.46943L35.4696 2.43876C35.4751 2.40831 35.4791 2.3776 35.4814 2.34676C35.4834 2.31331 35.4834 2.27978 35.4814 2.24633C35.4814 2.21259 35.4814 2.17886 35.4759 2.14513C35.4641 2.13669 35.4524 2.12749 35.4399 2.11983C34.4577 1.45282 33.1486 1.49806 31.9791 1.73649Z" fill="#765AA2"/>
<path d="M35.1694 2.31381C34.2625 1.70737 33.0601 1.74801 31.9854 1.96804C31.4978 2.06771 30.4694 2.29924 30.2452 2.81138C30.2307 2.84875 30.2205 2.88758 30.2147 2.92715C30.8417 2.76615 31.5112 2.85048 32.1484 2.97851C32.8069 3.11115 33.4645 3.28518 34.1363 3.27828C34.5823 3.27215 35.0707 3.15561 35.3246 2.79758C35.3507 2.7612 35.3735 2.72273 35.3928 2.68258C35.396 2.67633 35.3989 2.66994 35.4015 2.66341C35.417 2.63001 35.4303 2.5957 35.4414 2.56068C35.4414 2.55531 35.4461 2.55071 35.4477 2.54534C35.3631 2.4593 35.2698 2.38174 35.1694 2.31381Z" fill="#61478A"/>
<path d="M5.73003 34.1851C6.26416 34.7396 6.63472 35.4252 6.80234 36.1692C6.92698 36.722 6.88074 37.2226 6.80862 37.757V37.7508C6.83368 37.7203 6.85597 37.6878 6.87525 37.6535C6.89644 37.6153 6.91326 37.5749 6.92542 37.5331C6.97061 37.3817 7.00802 37.2282 7.0375 37.0731C7.28363 35.7797 6.99753 34.5347 6.35162 33.6361L4.78391 33.4445C5.13058 33.6504 5.44859 33.8994 5.73003 34.1851Z" fill="#765AA2"/>
<path d="M1.57477 34.2134C1.2918 34.2771 1.07232 34.4948 0.901438 34.7248C0.731633 34.9382 0.611993 35.1855 0.551045 35.4493C0.518907 35.6149 0.569076 36.4782 0.915542 36.1493C0.972027 36.0847 1.01755 36.0117 1.05036 35.9331C1.28082 35.4968 1.77544 35.2369 1.99884 34.7969C2.07723 34.6497 2.11093 34.4611 2.01059 34.3292C1.91026 34.1973 1.72998 34.1789 1.57477 34.2134Z" fill="#B69BCA"/>
<path d="M9.08808 11.2747C8.94768 11.3113 8.82787 11.4009 8.75494 11.5238C8.58798 11.8221 8.42729 12.1241 8.26895 12.427C8.17645 12.6033 8.08631 12.7804 7.99695 12.9583C7.97657 12.9997 7.95619 13.0411 7.93502 13.0817C7.85664 13.2465 7.77198 13.4121 7.69359 13.5777C7.69359 13.5862 7.68576 13.5931 7.68184 13.6007C7.57367 14.6449 7.5478 15.9475 7.79785 16.8422C7.82685 16.7655 7.85821 16.6827 7.88799 16.603C7.90994 16.5424 7.93267 16.4819 7.95541 16.4213C8.04163 16.1944 8.13021 15.9685 8.22114 15.7436C8.3827 14.233 8.67269 12.7382 9.08808 11.2747Z" fill="#765AA2"/>
<path d="M2.92457 25.9272C2.7678 26.6441 2.61887 27.3908 2.48954 28.1613C2.62279 27.3893 2.76545 26.6425 2.92457 25.9272Z" fill="#765AA2"/>
<path d="M4.03375 21.972C4.07138 21.8639 4.11214 21.7589 4.14819 21.6554C4.11214 21.7589 4.07059 21.8639 4.03375 21.972Z" fill="#765AA2"/>
<path d="M5.99339 18.4407C5.92725 18.4873 5.86464 18.5386 5.80604 18.594C5.51053 18.8785 5.20326 19.3339 4.89755 19.9265C5.26597 19.2112 5.6383 18.6975 5.99339 18.4407Z" fill="#765AA2"/>
<path d="M4.42566 20.9538C4.45153 20.891 4.47739 20.8289 4.50405 20.7675C4.47504 20.8289 4.44917 20.891 4.42566 20.9538Z" fill="#765AA2"/>
<path d="M4.66083 20.4149C4.69061 20.3497 4.72119 20.2853 4.75097 20.2232C4.71884 20.2853 4.68826 20.3497 4.66083 20.4149Z" fill="#765AA2"/>
<path d="M5.71199 20.0078C4.90305 21.2437 4.39746 22.649 4.06589 24.0803C3.87854 24.8938 3.69433 26.2025 3.56891 27.1869C3.42861 28.2052 3.6482 29.2398 4.1913 30.1194L4.20071 30.1347C4.63497 30.8163 5.21973 31.4243 5.94872 31.7892C6.13496 31.8844 6.33312 31.9552 6.53817 32.0001C6.77333 31.0325 6.98812 29.9975 7.17076 28.9157C7.95462 24.2567 7.91464 20.2094 7.159 18.7919C7.1228 18.7225 7.0814 18.6559 7.03515 18.5925C6.49115 18.9506 6.06708 19.465 5.71199 20.0078ZM6.51231 27.1685C6.40179 27.7466 6.26931 28.3185 6.12038 28.8897C6.06238 29.112 5.99888 29.3412 5.85387 29.5214C5.70885 29.7016 5.46194 29.8212 5.23618 29.7514C4.93597 29.6563 4.83642 29.2914 4.80272 28.9847C4.624 27.3379 5.02298 25.6881 5.41883 24.0781C5.52857 23.6311 5.76059 23.3459 6.26853 23.4517C6.63381 23.5284 6.81723 23.7583 6.8525 24.1141C6.96068 25.0916 6.69887 26.2148 6.51231 27.1685Z" fill="#765AA2"/>
<path d="M4.20226 30.1347L4.19285 30.1194C3.64976 29.2398 3.43016 28.2052 3.57046 27.1869C3.69588 26.2025 3.88402 24.8938 4.06744 24.0804C4.39744 22.649 4.90303 21.2437 5.71354 20.0078C6.06863 19.465 6.49269 18.9506 7.03826 18.5925C6.9003 18.4032 6.74353 18.2859 6.56794 18.2583C6.39236 18.2307 6.19248 18.2951 5.99259 18.4407C5.64064 18.6976 5.26831 19.2074 4.89519 19.9304L4.88186 19.9557C4.84659 20.0239 4.8121 20.0937 4.77683 20.1657C4.7682 20.1849 4.7588 20.2041 4.74939 20.2232C4.71961 20.2853 4.68903 20.3497 4.65925 20.4149L4.62398 20.4916C4.59654 20.5521 4.56911 20.6142 4.54559 20.6771C4.53227 20.707 4.51894 20.7377 4.5064 20.7676C4.47975 20.8289 4.45388 20.891 4.42801 20.9539C4.4139 20.9868 4.39979 21.0198 4.38647 21.0535C4.3606 21.1164 4.33473 21.1808 4.30808 21.246L4.26653 21.3495C4.23988 21.4185 4.21323 21.4898 4.18815 21.5611C4.1756 21.5925 4.16385 21.6232 4.15209 21.6554C4.11368 21.7589 4.07371 21.8639 4.03765 21.972C3.58668 23.2676 3.21498 24.5884 2.92456 25.9273C2.76779 26.6441 2.61886 27.3908 2.48953 28.1613C2.43387 28.4872 2.38449 28.8084 2.33745 29.1273C2.2136 29.9707 2.11797 30.7849 2.04977 31.5631L6.46056 32.3198C6.48721 32.2147 6.51386 32.1082 6.53894 32.0016C6.33389 31.9568 6.13572 31.8859 5.94948 31.7908C5.21892 31.4243 4.63652 30.8163 4.20226 30.1347Z" fill="#61478A"/>
<path d="M1.77154 31.514C1.6063 31.4859 1.43635 31.5206 1.29636 31.6109C1.15637 31.7013 1.05691 31.8404 1.01825 32C1.09474 31.9292 1.18707 31.8768 1.2879 31.847C1.38873 31.8172 1.49528 31.8108 1.59908 31.8283L6.94423 32.7445C7.06865 32.7662 7.18442 32.8214 7.27857 32.9039C7.37271 32.9863 7.44151 33.0928 7.47726 33.2114C7.50181 33.1246 7.50754 33.0338 7.49409 32.9448C7.48063 32.8557 7.44829 32.7704 7.39913 32.6943C7.34997 32.6182 7.28508 32.553 7.20863 32.5029C7.13218 32.4528 7.04585 32.4189 6.9552 32.4033L6.46058 32.3182L2.0498 31.5615L1.77154 31.514Z" fill="#DBCCE5"/>
<path d="M6.94421 32.7445L1.59906 31.8306C1.49526 31.8131 1.38871 31.8195 1.28788 31.8493C1.18705 31.8791 1.09472 31.9315 1.01823 32.0023C1.0102 32.03 1.00418 32.0582 1.0002 32.0867L0.973541 32.3389C0.955592 32.5071 1.00579 32.6756 1.11336 32.808C1.22093 32.9404 1.3773 33.0264 1.5489 33.0473L1.66334 33.0611L4.78702 33.4444L6.35474 33.6361L6.75686 33.6852C6.91185 33.7043 7.06875 33.669 7.19965 33.5856C7.33055 33.5023 7.42696 33.3762 7.47174 33.2298V33.2152C7.43705 33.0966 7.36934 32.9898 7.27619 32.9067C7.18304 32.8236 7.0681 32.7674 6.94421 32.7445Z" fill="#ECE3F2"/>
<path d="M6.27011 23.4555C5.76217 23.3497 5.53014 23.6349 5.4204 24.0819C5.02847 25.6919 4.62557 27.3402 4.80429 28.9885C4.83799 29.2952 4.93755 29.6571 5.23777 29.7552C5.46117 29.8257 5.70808 29.7061 5.85545 29.5252C6.00281 29.3443 6.06396 29.1158 6.12196 28.8935C6.26933 28.3238 6.4018 27.7504 6.51389 27.1723C6.69731 26.2186 6.96226 25.0954 6.85565 24.1217C6.81568 23.7614 6.63539 23.5314 6.27011 23.4555Z" fill="#9F85BD"/>
<path d="M35.1969 36.1692C35.3645 35.4252 35.7351 34.7395 36.2692 34.1851C36.5487 33.8984 36.8649 33.6482 37.2098 33.4406L35.6421 33.6323C35.5635 33.7417 35.4907 33.8551 35.4242 33.9719C35.3936 34.0256 35.3638 34.08 35.3356 34.136C34.8886 35.048 34.7555 36.0771 34.9562 37.0693C34.986 37.2272 35.0237 37.3813 35.0676 37.5293C35.08 37.571 35.0969 37.6113 35.1177 37.6496C35.137 37.6839 35.1593 37.7165 35.1844 37.747V37.7531C35.1224 37.2226 35.0746 36.722 35.1969 36.1692Z" fill="#765AA2"/>
<path d="M41.0978 34.7248C40.9269 34.4948 40.7059 34.2771 40.4244 34.2134C40.2677 34.1789 40.0842 34.2042 39.9886 34.3292C39.893 34.4542 39.9251 34.6497 40.0004 34.7969C40.2238 35.2369 40.7184 35.4968 40.9488 35.9331C40.9817 36.0117 41.0272 36.0847 41.0837 36.1493C41.4294 36.4782 41.4803 35.6126 41.4474 35.4493C41.387 35.1855 41.2676 34.9381 41.0978 34.7248Z" fill="#B69BCA"/>
<path d="M34.3166 13.6007C34.2076 13.3707 34.0948 13.1407 33.9803 12.9107L33.9262 12.8034C33.8113 12.5754 33.6934 12.349 33.5727 12.1241C33.4656 11.9197 33.3561 11.7186 33.2443 11.5208C33.2072 11.4569 33.1557 11.4021 33.0938 11.3605C33.082 11.3521 33.0718 11.3414 33.0601 11.3337H33.0522C33.0079 11.3083 32.9605 11.2884 32.9111 11.2747C33.3261 12.7385 33.616 14.2336 33.7781 15.7443C33.9254 16.1077 34.0663 16.474 34.2006 16.843C34.4514 15.9483 34.4248 14.6449 34.3166 13.6007Z" fill="#765AA2"/>
<path d="M39.9494 31.5615C39.871 30.6829 39.7589 29.7544 39.6108 28.7961C39.7589 29.7544 39.8718 30.6829 39.9494 31.5615Z" fill="#765AA2"/>
<path d="M37.7969 30.1347L37.8064 30.1194C38.3495 29.2398 38.569 28.2052 38.4287 27.1869C38.3033 26.2025 38.1152 24.8938 37.9318 24.0803C37.6018 22.649 37.0962 21.2437 36.2857 20.0078C35.9306 19.465 35.5065 18.9506 34.9602 18.5925C34.9145 18.6563 34.8731 18.7228 34.8363 18.7919C34.0815 20.2094 34.0391 24.2567 34.8253 28.9157C35.008 29.9975 35.222 31.0325 35.4579 32.0001C35.663 31.9552 35.8611 31.8844 36.0474 31.7892C36.7803 31.4243 37.3627 30.8163 37.7969 30.1347ZM35.4869 27.1685C35.3035 26.2148 35.0378 25.0916 35.1444 24.1179C35.1836 23.7614 35.3638 23.5314 35.7291 23.4555C36.2371 23.3497 36.4683 23.6349 36.5788 24.0819C36.9708 25.6919 37.3737 27.3402 37.1949 28.9886C37.1612 29.2952 37.0617 29.6571 36.7615 29.7552C36.5381 29.8258 36.2912 29.7062 36.1438 29.5252C35.9964 29.3443 35.9353 29.1158 35.8773 28.8935C35.7299 28.32 35.5974 27.7466 35.4869 27.1685Z" fill="#765AA2"/>
<path d="M39.6108 28.7961C39.5778 28.5845 39.5457 28.3737 39.5096 28.1598C38.7258 23.5314 37.3721 19.731 36.1963 18.5971C35.9298 18.3403 35.6727 18.2199 35.4336 18.2582C35.2572 18.2866 35.0996 18.4031 34.9633 18.5925C35.512 18.9505 35.9337 19.465 36.2888 20.0078C37.0977 21.2436 37.6033 22.649 37.9349 24.0803C38.1214 24.8938 38.3064 26.2025 38.4318 27.1869C38.5721 28.2052 38.3526 29.2398 37.8095 30.1194L37.8001 30.1347C37.3658 30.8163 36.781 31.4243 36.052 31.7892C35.8658 31.8843 35.6676 31.9552 35.4626 32C35.4884 32.1066 35.5143 32.2132 35.541 32.3182L39.9525 31.5615C39.8718 30.6806 39.7589 29.7545 39.6108 28.7961Z" fill="#61478A"/>
<path d="M35.055 32.7445L40.4001 31.8306C40.5039 31.8131 40.6105 31.8195 40.7113 31.8493C40.8121 31.8791 40.9045 31.9315 40.981 32.0023C40.9421 31.8427 40.8425 31.7035 40.7024 31.6132C40.5623 31.5229 40.3922 31.4882 40.2269 31.5163L39.9494 31.5638L35.5378 32.3205L35.044 32.4056C34.954 32.4216 34.8684 32.4557 34.7926 32.5058C34.7168 32.5559 34.6525 32.6208 34.6037 32.6965C34.555 32.7723 34.5229 32.8571 34.5095 32.9456C34.4961 33.0341 34.5017 33.1243 34.5259 33.2106C34.5614 33.0927 34.6297 32.9867 34.7231 32.9044C34.8165 32.8222 34.9314 32.7668 35.055 32.7445Z" fill="#DBCCE5"/>
<path d="M37.2122 33.4406L40.3351 33.0573L40.4503 33.0435C40.6219 33.0225 40.7783 32.9366 40.8858 32.8041C40.9934 32.6717 41.0436 32.5033 41.0256 32.3351L40.999 32.0828C40.995 32.0543 40.989 32.0262 40.981 31.9985C40.9045 31.9277 40.8121 31.8753 40.7113 31.8454C40.6105 31.8156 40.5039 31.8092 40.4001 31.8268L35.055 32.7429C34.9312 32.7654 34.8162 32.821 34.7228 32.9035C34.6293 32.9861 34.5612 33.0924 34.5259 33.2106V33.2252C34.571 33.3715 34.6676 33.4975 34.7985 33.5809C34.9295 33.6643 35.0865 33.6996 35.2415 33.6806L35.6437 33.6315L37.2122 33.4406Z" fill="#ECE3F2"/>
<path d="M36.7614 29.7506C37.0617 29.6556 37.1612 29.2906 37.1949 28.984C37.3736 27.3372 36.9746 25.6873 36.5788 24.0773C36.4683 23.6303 36.237 23.3451 35.7291 23.4509C35.3638 23.5276 35.1804 23.7576 35.1443 24.1133C35.0377 25.087 35.3011 26.2102 35.4869 27.1639C35.5974 27.742 35.7299 28.3139 35.8788 28.8851C35.9368 29.1074 35.9995 29.3366 36.1453 29.5168C36.2911 29.697 36.538 29.8212 36.7614 29.7506Z" fill="#9F85BD"/>
<path d="M14.6346 33.4115C14.8341 33.7808 15.0541 34.1391 15.2939 34.4848C15.0553 34.139 14.8363 33.7807 14.6378 33.4115H14.6346Z" fill="#61478A"/>
<path d="M26.8441 34.2839C25.4296 35.4282 23.7102 36.1533 21.8885 36.3739C21.0352 36.4726 20.1721 36.4576 19.3229 36.3294C17.9598 36.1247 16.773 35.6256 15.6294 34.9433C16.9377 36.6185 18.6081 37.6266 20.4243 37.6266H21.575C23.8795 37.6266 25.9536 36.009 27.345 33.4536L27.3379 33.4582C27.1819 33.7396 27.0173 34.0171 26.8441 34.2839Z" fill="#61478A"/>
<path d="M21.8885 36.37C23.7098 36.1506 25.4291 35.4268 26.8441 34.2839C27.0173 34.021 27.1819 33.7434 27.3379 33.4559C25.4747 34.8505 23.2172 35.9169 21.0137 35.8326C20.8154 35.8403 20.6163 35.8372 20.4172 35.8265C18.3862 35.7207 16.3411 34.7064 14.6378 33.4191C14.8363 33.7884 15.0553 34.1467 15.2939 34.4925L15.2986 34.4986C15.3503 34.5753 15.4036 34.6473 15.4554 34.7202C15.5102 34.7968 15.5651 34.8674 15.6208 34.9387H15.6255C16.7691 35.621 17.9559 36.1201 19.319 36.3248C20.1695 36.4536 21.0339 36.4688 21.8885 36.37Z" fill="#44286F"/>
<path d="M20.9996 22.5815C15.649 22.5815 10.9129 20.845 8.06045 18.1969C8.06045 18.3548 8.0534 18.5128 8.05261 18.6715C11.3158 21.7442 15.5717 23.6087 20.0883 23.9446C24.6049 24.2804 29.1001 23.0664 32.8006 20.5115C33.064 20.3298 33.3243 20.1389 33.5751 19.9373C33.2005 23.5502 31.7559 26.9776 29.4185 29.7992C27.081 32.6207 23.9524 34.7136 20.4164 35.8211C20.6155 35.8319 20.8146 35.8349 21.0129 35.8273C23.2164 35.9131 25.4739 34.8467 27.3371 33.4506L27.3442 33.446C28.4466 32.6224 29.4399 31.6677 30.3009 30.6039C30.5533 30.2881 30.7963 29.9615 31.0307 29.6272C31.5032 28.9577 31.9255 28.2557 32.2943 27.5265C32.756 26.6648 33.1369 25.6344 33.4167 24.4077C33.7225 23.0668 33.9075 21.489 33.9419 19.6306C33.9419 19.419 33.9482 19.2043 33.9482 18.985V18.755C33.9482 18.7466 33.9482 18.7389 33.9482 18.7313C33.9482 18.5511 33.9482 18.3717 33.9404 18.1946C31.0871 20.8442 26.351 22.5815 20.9996 22.5815Z" fill="#8568AB"/>
<path d="M8.08552 17.477C8.07507 17.6963 8.06724 17.9168 8.06201 18.1387C8.0675 17.9171 8.07612 17.6971 8.08631 17.4778L8.08552 17.477Z" fill="#8568AB"/>
<path d="M33.9231 17.6932C33.9168 17.546 33.9098 17.3981 33.9019 17.2516C33.9098 17.3988 33.9168 17.546 33.9231 17.6932Z" fill="#8568AB"/>
<path d="M33.8988 17.2539V17.2163C31.2745 19.9886 26.4741 21.8486 20.9988 21.8486C15.5236 21.8486 10.7303 19.9894 8.10121 17.2194C8.10121 17.2876 8.09415 17.3559 8.09102 17.4249C8.09102 17.4433 8.09102 17.4624 8.09102 17.4808C8.08083 17.7001 8.0722 17.9201 8.06671 18.1417V18.1984C10.9192 20.8465 15.6553 22.583 21.0059 22.583C26.3565 22.583 31.0934 20.8458 33.9458 18.1969C33.9458 18.1915 33.9458 18.1862 33.9458 18.18V18.0942C33.9458 18.0175 33.9411 17.9447 33.938 17.8703L33.9333 17.7085C33.9333 17.7039 33.9333 17.6993 33.9333 17.6947C33.9202 17.5465 33.9087 17.3996 33.8988 17.2539Z" fill="#61478A"/>
<path d="M18.5077 3.38102C19.0674 2.95169 19.7102 2.41732 18.6229 2.16431C17.7819 1.96881 16.6954 2.47098 15.9414 2.79299C14.9498 3.21465 14.0217 3.82569 13.3774 4.67516C13.0497 5.10756 12.7996 5.7048 13.0779 6.16863C13.2786 6.50367 13.6744 6.62864 14.0836 6.62864C14.7227 6.09736 15.4817 5.72213 16.298 5.53383C17.0599 4.84383 17.7074 3.99512 18.5077 3.38102Z" fill="#A48BC0"/>
<path d="M23.5385 3.55658C21.6674 3.55492 19.8561 4.20104 18.4254 5.38049C19.1136 5.42004 19.791 5.56545 20.4329 5.81136C20.7916 5.94534 21.1873 5.95104 21.5499 5.82746C22.5423 5.48629 23.8936 5.20262 25.4026 5.47939C26.9867 5.76996 28.5184 6.8065 29.5139 8.51387C29.9842 9.31887 30.2978 10.3086 30.4224 11.3276C30.4668 11.59 30.4852 11.856 30.4773 12.1218C30.4929 13.0066 30.3558 13.8852 30.0297 14.6518C29.3916 16.1583 28.1484 17.0477 26.8942 17.2738C25.6401 17.5 24.3663 17.1397 23.1584 16.6206L22.9185 16.5156C22.5602 16.3438 22.2142 16.1484 21.883 15.9306C21.6186 15.7658 21.3116 15.6782 20.9981 15.6782C20.6845 15.6782 20.3775 15.7658 20.1131 15.9306C19.7817 16.1486 19.4355 16.344 19.0768 16.5156L18.8417 16.6206C18.5728 16.7356 18.3016 16.8422 18.0272 16.9373C18.9647 17.82 20.1093 18.4641 21.3607 18.8132C22.612 19.1624 23.9319 19.2058 25.2044 18.9397C26.4769 18.6735 27.6632 18.106 28.6592 17.2869C29.6551 16.4679 30.4304 15.4222 30.9168 14.2417C31.4033 13.0613 31.5861 11.7821 31.4492 10.5164C31.3123 9.25074 30.8599 8.03727 30.1318 6.98246C29.4036 5.92766 28.4219 5.06377 27.2727 4.46659C26.1236 3.86941 24.8422 3.5572 23.5409 3.55735L23.5385 3.55658Z" fill="#A48BC0"/>
<path d="M19.0783 16.5148C19.437 16.3432 19.7833 16.1478 20.1146 15.9299C20.379 15.765 20.686 15.6774 20.9996 15.6774C21.3131 15.6774 21.6202 15.765 21.8846 15.9299C22.2157 16.1476 22.5617 16.3431 22.92 16.5148L23.1599 16.6199C24.3678 17.1389 25.6416 17.4993 26.8958 17.2731C28.15 17.0469 29.3916 16.1576 30.0312 14.6511C30.3573 13.8844 30.4945 13.005 30.4788 12.1211C30.4867 11.8552 30.4683 11.5892 30.4239 11.3268C30.3009 10.3079 29.9842 9.31812 29.5154 8.51311C28.5199 6.80574 26.9883 5.7692 25.4041 5.47863C23.8952 5.20187 22.5438 5.48553 21.5514 5.8267C21.1888 5.95029 20.7932 5.94458 20.4344 5.8106C19.792 5.56479 19.114 5.41964 18.4254 5.3805C17.8139 5.35022 17.2009 5.38337 16.5966 5.4794C16.4963 5.49473 16.3975 5.51313 16.298 5.5346C15.4819 5.72222 14.7229 6.09666 14.0836 6.62711C13.4389 7.15667 12.8974 7.79588 12.4853 8.51388C12.015 9.31888 11.7014 10.3087 11.5768 11.3276C11.5324 11.59 11.514 11.856 11.5219 12.1218C11.5063 13.0066 11.6434 13.8852 11.9695 14.6518C12.6076 16.1583 13.8508 17.0477 15.105 17.2739C16.0816 17.4494 17.0646 17.27 18.0272 16.9373C18.3015 16.8422 18.5759 16.7356 18.8416 16.6206L19.0783 16.5148ZM15.6435 16.5915C14.5171 16.3883 13.404 15.5948 12.8216 14.257H12.8098C12.8028 14.2409 12.7965 14.2248 12.7894 14.2095C12.5707 13.6805 12.4384 13.1211 12.3975 12.5519H12.4085C12.392 12.3403 12.385 12.1272 12.3889 11.9133C12.3821 11.6718 12.3989 11.4302 12.439 11.1919C12.5065 10.6262 12.6411 10.0702 12.8404 9.53509H12.8294C12.9453 9.22382 13.0874 8.9225 13.2543 8.63425C13.4614 8.27745 13.7024 7.94043 13.9738 7.62761H13.9872C14.8322 6.65931 15.8967 6.04597 16.9988 5.8796C18.6449 5.63274 19.6639 5.8796 20.4838 6.18167C20.6368 6.23763 20.798 6.26921 20.9612 6.2752H20.9957H21.045C21.1958 6.2719 21.3452 6.24605 21.4879 6.19854C22.1193 5.97768 22.7787 5.84226 23.4476 5.79604C23.4915 5.79604 23.5362 5.7899 23.5808 5.78837L23.6459 5.78453C24.1012 5.7667 24.5571 5.79884 25.0051 5.88037C26.4435 6.1441 27.8348 7.08634 28.7394 8.64038C29.1833 9.43122 29.4637 10.2997 29.5648 11.1965C29.6049 11.4348 29.6217 11.6764 29.615 11.9179C29.6291 12.7214 29.5037 13.5179 29.2074 14.2179C28.6281 15.5856 27.5009 16.3937 26.3612 16.5992C25.8636 16.6839 25.3547 16.6824 24.8577 16.5946C24.2025 16.4747 23.5649 16.2765 22.9592 16.0042L22.7421 15.9092C22.4855 15.7891 22.2373 15.6526 21.999 15.5005H22.0061L21.8117 15.3802C21.5714 15.2303 21.2924 15.1507 21.0074 15.1507C20.7225 15.1507 20.4434 15.2303 20.2032 15.3802C19.9025 15.5782 19.5882 15.7558 19.2625 15.9115L19.0446 16.0065C17.9394 16.4704 16.7832 16.7977 15.6435 16.5923V16.5915Z" fill="#765AA2"/>
<path d="M29.5593 11.1903C29.4583 10.2936 29.1778 9.42508 28.7339 8.63424C27.8294 7.08326 26.438 6.14102 24.9996 5.87422C24.5516 5.7927 24.0957 5.76055 23.6404 5.77839L23.5754 5.78222C23.5307 5.78222 23.486 5.78682 23.4421 5.78989C22.7732 5.83611 22.1139 5.97153 21.4825 6.19239C21.3397 6.2399 21.1903 6.26576 21.0396 6.26906H20.9902H20.9557C20.7925 6.26306 20.6313 6.23148 20.4783 6.17552C19.6592 5.86886 18.637 5.62659 16.9933 5.87346C15.8912 6.03982 14.8267 6.65316 13.9817 7.62147H13.9684C13.6969 7.93428 13.456 8.2713 13.2488 8.6281C13.0819 8.91635 12.9398 9.21767 12.8239 9.52894H12.8349C12.6357 10.064 12.501 10.6201 12.4336 11.1857C12.3935 11.4241 12.3767 11.6657 12.3834 11.9072C12.3834 12.1211 12.3834 12.3342 12.403 12.5458H12.392C12.4329 13.115 12.5652 13.6743 12.784 14.2033C12.791 14.2187 12.7973 14.2348 12.8043 14.2509H12.8161C13.4016 15.5902 14.5147 16.3822 15.638 16.5854C16.7777 16.7908 17.9339 16.4635 19.0313 15.992L19.2492 15.8969C19.5749 15.7412 19.8892 15.5637 20.1899 15.3656C20.4301 15.2157 20.7092 15.1361 20.9941 15.1361C21.2791 15.1361 21.5581 15.2157 21.7984 15.3656L21.9927 15.486H21.9857C22.224 15.638 22.4722 15.7745 22.7288 15.8946L22.9459 15.9897C23.5516 16.2619 24.1892 16.4602 24.8444 16.58C25.3414 16.6678 25.8503 16.6693 26.3479 16.5846C27.4876 16.3791 28.6148 15.5711 29.1941 14.2033C29.4904 13.5041 29.6158 12.7076 29.6017 11.9033C29.6105 11.6649 29.5963 11.4262 29.5593 11.1903Z" fill="#9ECEF0"/>
<path d="M23.8403 8.77838C22.2483 9.46302 20.4407 10.1147 18.6731 10.6951H18.6637C18.677 10.8691 18.6848 11.0485 18.6848 11.2317C18.6848 12.1356 18.5077 12.9506 18.2239 13.5248H18.2349C19.966 13.1458 21.6737 12.6707 23.3496 12.1019C23.3119 11.8141 23.2933 11.5242 23.2939 11.234C23.2939 10.2404 23.5072 9.35568 23.8403 8.77838Z" fill="#CFDFF4"/>
<path d="M26.217 11.0469L26.2264 11.0431C27.4187 10.5693 28.4393 10.1177 29.2239 9.75357C29.0949 9.36504 28.9266 8.99007 28.7214 8.63423C28.3556 7.99741 27.8747 7.43085 27.3019 6.96213C26.6139 7.42454 25.8906 7.83463 25.1384 8.1888H25.1329C25.7326 8.53227 26.181 9.67384 26.217 11.0469Z" fill="#CFDFF4"/>
<path d="M15.7673 11.6013C14.4959 11.98 13.3374 12.302 12.4093 12.5504H12.3983C12.4392 13.1196 12.5715 13.679 12.7902 14.2079C12.7973 14.2233 12.8036 14.2394 12.8106 14.2555H12.8224C14.0312 14.1977 15.2353 14.0684 16.4281 13.8683C16.0668 13.3715 15.8191 12.5512 15.7673 11.6013Z" fill="#CFDFF4"/>
<path d="M26.228 11.0431L26.2186 11.0469C26.1809 9.66693 25.7326 8.53226 25.1345 8.18956H25.14C25.0275 8.12326 24.899 8.08753 24.7676 8.08606C24.4227 8.08606 24.1053 8.34443 23.8552 8.77606L23.8403 8.78296C23.5072 9.36026 23.2916 10.245 23.2916 11.2363C23.291 11.5265 23.3096 11.8164 23.3473 12.1042L23.3583 12.1003C23.515 13.291 23.9901 14.1934 24.5732 14.3574H24.5678C24.6288 14.3739 24.6918 14.3824 24.7551 14.3827C25.0506 14.3827 25.3265 14.1934 25.5562 13.8683L25.5719 13.8606C25.9638 13.2963 26.2288 12.3273 26.2288 11.2332C26.2311 11.1696 26.2295 11.106 26.228 11.0431Z" fill="#3A2561"/>
<path d="M18.6637 10.6973H18.6731C18.5948 9.67538 18.2812 8.82207 17.8587 8.39044H17.8517C17.6604 8.19417 17.4472 8.08377 17.2246 8.08377C16.8444 8.08377 16.4987 8.39427 16.2385 8.90411H16.251C15.9563 9.47988 15.7713 10.3109 15.7713 11.2356C15.7713 11.359 15.7713 11.4809 15.7815 11.6005H15.7705C15.8222 12.5504 16.0699 13.3707 16.4242 13.8698H16.4337C16.6641 14.1941 16.9392 14.3835 17.2348 14.3835C17.6267 14.3835 17.9763 14.0569 18.2381 13.5248H18.2271C18.5109 12.9506 18.688 12.1356 18.688 11.2317C18.6849 11.0539 18.6771 10.8714 18.6637 10.6973Z" fill="#3A2561"/>
<path d="M18.6849 11.2333C18.6849 11.0508 18.677 10.8714 18.6637 10.6966C17.6737 11.0217 16.697 11.3245 15.7783 11.5974H15.7673C15.8191 12.5473 16.0668 13.3677 16.4211 13.8668H16.4305C17.0341 13.7646 17.6319 13.6503 18.224 13.5241C18.5077 12.9521 18.6849 12.1372 18.6849 11.2333Z" fill="#8F779F"/>
<path d="M25.1345 8.18958C24.7284 8.38584 24.3005 8.57981 23.8552 8.77148L23.8403 8.77838C23.5072 9.35568 23.2916 10.2404 23.2916 11.2317C23.291 11.5219 23.3096 11.8118 23.3473 12.0996L23.3583 12.0958C24.3859 11.7492 25.3469 11.3912 26.2162 11.0454C26.1809 9.67385 25.7326 8.53228 25.1345 8.18958Z" fill="#8F779F"/>
<path d="M17.2214 8.08453C17.4471 8.08453 17.6604 8.19416 17.8485 8.39119H17.8555C20.1468 7.58312 22.2663 6.52512 23.6373 5.78452L23.5722 5.78835C23.5275 5.78835 23.4829 5.79295 23.439 5.79602C22.7701 5.84224 22.1107 5.97766 21.4793 6.19852C21.3366 6.24603 21.1872 6.27188 21.0364 6.27519H20.9957H20.9871H20.9526C20.7859 6.27042 20.6212 6.23882 20.465 6.18165C20.3082 6.12415 20.1468 6.06818 19.9735 6.01835C17.879 6.95522 15.5674 7.40986 13.9786 7.62836H13.9652C13.6937 7.94117 13.4528 8.2782 13.2457 8.635C13.0788 8.92325 12.9367 9.22456 12.8208 9.53583H12.8318C13.9292 9.45917 15.0815 9.22916 16.2259 8.90716C16.4971 8.39503 16.8412 8.08453 17.2214 8.08453Z" fill="#CFDFF4"/>
<path d="M17.2214 8.08453C16.8412 8.08453 16.4955 8.39504 16.2353 8.90487H16.2478C16.7871 8.75154 17.3233 8.5798 17.8516 8.3935C17.6603 8.19417 17.4471 8.08453 17.2214 8.08453Z" fill="#8F779F"/>
<path d="M29.5985 11.9117C29.5985 11.8236 29.5985 11.7362 29.5985 11.648C28.5795 12.2498 27.1411 13.0663 25.5758 13.8606L25.5601 13.8683C25.3304 14.1934 25.0545 14.3827 24.759 14.3827C24.6957 14.3824 24.6327 14.3739 24.5716 14.3574C23.7196 14.7676 22.8471 15.1586 21.9998 15.4929H21.9927C22.231 15.6449 22.4792 15.7814 22.7358 15.9015L22.953 15.9966C23.5586 16.2688 24.1963 16.4671 24.8515 16.5869C26.3008 15.8532 27.9085 14.9907 29.2113 14.1612C29.4908 13.4437 29.6224 12.6792 29.5985 11.9117Z" fill="#CFDFF4"/>
<path d="M25.5585 13.8683C25.2356 14.0324 24.9079 14.1944 24.5756 14.3544H24.5701C24.6311 14.3708 24.6941 14.3793 24.7574 14.3797C25.0529 14.3827 25.3288 14.1972 25.5585 13.8683Z" fill="#8F779F"/>
<path d="M18.1056 28.0831C18.1058 27.4882 17.9255 26.9067 17.5877 26.412C17.2499 25.9172 16.7697 25.5316 16.2078 25.3039C15.646 25.0761 15.0276 25.0164 14.4311 25.1324C13.8345 25.2484 13.2865 25.5348 12.8564 25.9554C12.4263 26.376 12.1333 26.9119 12.0146 27.4953C11.8959 28.0788 11.9567 28.6835 12.1894 29.2332C12.4222 29.7828 12.8163 30.2525 13.322 30.5831C13.8277 30.9136 14.4223 31.09 15.0305 31.09C15.846 31.09 16.628 30.7732 17.2047 30.2094C17.7813 29.6455 18.1054 28.8807 18.1056 28.0831Z" fill="#A48BC0"/>
</g>
<defs>
<clipPath id="clip0_1_116">
<rect width="42" height="38" fill="white"/>
</clipPath>
</defs>
</svg>
