<svg width="126" height="41" viewBox="0 0 126 41" fill="none" xmlns="http://www.w3.org/2000/svg">
<path d="M28.5936 7.4082H24.0642V33.8683H28.5936V7.4082Z" fill="#092A99"/>
<path d="M74.8074 32.2703C76.6951 33.4537 78.8383 34.077 81.0201 34.077C83.202 34.077 85.3451 33.4537 87.2328 32.2703C89.1137 31.0894 90.6754 29.3957 91.7622 27.3582C92.8695 25.3319 93.4471 23.0183 93.4334 20.6645C93.4485 18.8968 93.1347 17.144 92.5105 15.5102C91.8863 13.8764 90.9646 12.3952 89.8003 11.1547C88.6558 9.89121 87.2897 8.88745 85.782 8.20222C84.2744 7.51699 82.6555 7.16406 81.0201 7.16406C79.3848 7.16406 77.7658 7.51699 76.2582 8.20222C74.7505 8.88745 73.3845 9.89121 72.24 11.1547C71.0678 12.397 70.1413 13.8842 69.5167 15.5257C68.8922 17.1672 68.5826 18.929 68.6068 20.7039C68.6042 23.0543 69.1766 25.3636 70.2659 27.3975C71.351 29.4307 72.919 31.1131 74.8074 32.2703ZM81.0201 12.0061C82.3947 11.9967 83.7447 12.4003 84.9197 13.1719C86.1601 13.8891 87.1905 14.967 87.8945 16.284C88.5986 17.601 88.9483 19.1047 88.9041 20.6252C88.9192 22.1566 88.5509 23.6639 87.8384 24.9872C87.1379 26.3081 86.1321 27.4095 84.9197 28.1834C83.739 28.9461 82.3893 29.3488 81.0141 29.3488C79.6388 29.3488 78.2891 28.9461 77.1084 28.1834C75.8988 27.4023 74.8971 26.2955 74.2009 24.9708C73.5048 23.6462 73.1379 22.1489 73.1361 20.6252C73.1299 19.5062 73.3339 18.3974 73.7357 17.3662C74.1375 16.3349 74.7287 15.4027 75.4735 14.6259C76.177 13.7936 77.0342 13.1304 77.9897 12.6791C78.9451 12.2278 79.9776 11.9985 81.0201 12.0061Z" fill="#FF7A00"/>
<path d="M93.7726 30.0167C93.472 30.0307 93.1772 30.1112 92.9064 30.2531C92.6357 30.395 92.3946 30.5954 92.1982 30.8419C91.1165 32.1936 89.8407 33.3479 88.4197 34.2608C86.1838 35.7094 83.6264 36.4745 81.0201 36.4745C78.4139 36.4745 75.8564 35.7094 73.6206 34.2608C72.201 33.3511 70.9287 32.1963 69.8542 30.8419C69.6575 30.5915 69.415 30.3877 69.142 30.2434C68.869 30.0991 68.5713 30.0175 68.2677 30.0036C67.9664 29.9914 67.6662 30.0481 67.3866 30.17C67.1069 30.2919 66.8542 30.4762 66.6449 30.7109C66.2544 31.1382 66.0284 31.71 66.0127 32.3106C65.9969 32.9112 66.1926 33.4959 66.5601 33.9464C68.373 36.1623 70.601 37.9355 73.0962 39.1483C75.5914 40.3611 78.2967 40.9857 81.0323 40.9806H82.1464C84.8374 40.821 87.4648 40.0346 89.8488 38.6751C91.9671 37.4846 93.8671 35.8866 95.4559 33.9595C95.8226 33.5111 96.0179 32.9286 96.0022 32.3302C95.9865 31.7318 95.7609 31.1622 95.3712 30.7371C95.1707 30.4965 94.9232 30.307 94.6467 30.1825C94.3703 30.0579 94.0717 30.0012 93.7726 30.0167Z" fill="#FFB800"/>
<path d="M120.44 7.4082V25.1705C120.429 25.8975 120.227 26.6061 119.859 27.2139C119.536 27.9316 119.035 28.5388 118.414 28.9687C117.792 29.3986 117.072 29.6345 116.334 29.6504C115.712 29.6916 115.091 29.5618 114.528 29.2733C113.964 28.9847 113.478 28.5466 113.113 27.9999C112.388 26.6752 112.038 25.1494 112.108 23.6117V7.4082H107.494V24.1095C107.541 25.5175 107.148 26.9018 106.38 28.0392C106.028 28.5632 105.559 28.9814 105.017 29.2542C104.474 29.527 103.876 29.6453 103.279 29.598C102.693 29.6174 102.113 29.4659 101.599 29.1594C101.086 28.8529 100.658 28.4026 100.361 27.8558C99.6782 26.5612 99.3388 25.0882 99.3797 23.5986V17.0491C99.3813 16.7177 99.3223 16.3893 99.2062 16.0826C99.09 15.776 98.919 15.4972 98.703 15.2623C98.4869 15.0273 98.23 14.8409 97.9471 14.7137C97.6642 14.5865 97.3608 14.521 97.0545 14.521C96.7471 14.5193 96.4424 14.5835 96.1581 14.7099C95.8738 14.8363 95.6155 15.0225 95.3981 15.2576C95.1808 15.4927 95.0086 15.7721 94.8918 16.0796C94.7749 16.3871 94.7155 16.7166 94.7171 17.0491V23.8868C94.6088 26.5106 95.3545 29.0924 96.8244 31.183C97.6179 32.213 98.6128 33.0399 99.7373 33.6039C100.862 34.1679 102.088 34.455 103.328 34.4446H103.57C104.53 34.4299 105.481 34.2349 106.38 33.8683C107.729 33.3806 108.936 32.5178 109.88 31.3664C110.48 32.0712 111.174 32.676 111.938 33.1609C113.234 34.0367 114.734 34.4914 116.262 34.4708C118.605 34.4487 120.843 33.4217 122.487 31.6152C123.335 30.7539 124.011 29.7127 124.471 28.5566C124.932 27.4005 125.167 26.1542 125.163 24.8954V7.4082H120.44Z" fill="#FFB800"/>
<path d="M41.5398 7.4082V25.1705C41.5507 25.8975 41.7523 26.6061 42.1212 27.2139C42.4443 27.9316 42.9443 28.5388 43.5662 28.9687C44.188 29.3986 44.9075 29.6345 45.6453 29.6504C46.2674 29.6916 46.889 29.5618 47.4523 29.2733C48.0155 28.9847 48.5021 28.5466 48.8667 27.9999C49.5919 26.6752 49.9414 25.1493 49.8719 23.6117V7.4082H54.4982V24.1095C54.4466 25.5161 54.8349 26.9005 55.6002 28.0392C55.9522 28.5622 56.4215 28.9798 56.9639 29.2525C57.5063 29.5252 58.1039 29.6441 58.7005 29.598C59.287 29.6188 59.8677 29.4679 60.3815 29.1613C60.8952 28.8546 61.3228 28.4036 61.6191 27.8558C62.307 26.5636 62.6468 25.0889 62.6001 23.5986V17.0491C62.5985 16.7177 62.6575 16.3893 62.7736 16.0826C62.8897 15.776 63.0608 15.4972 63.2769 15.2623C63.4929 15.0273 63.7498 14.8409 64.0327 14.7137C64.3156 14.5865 64.619 14.521 64.9253 14.521C65.2317 14.521 65.535 14.5865 65.818 14.7137C66.1009 14.8409 66.3577 15.0273 66.5738 15.2623C66.7899 15.4972 66.9609 15.776 67.0771 16.0826C67.1932 16.3893 67.2522 16.7177 67.2506 17.0491V23.8868C67.3589 26.5106 66.6132 29.0924 65.1433 31.183C64.3528 32.2134 63.3602 33.0407 62.2374 33.6048C61.1147 34.169 59.89 34.4559 58.6521 34.4446H58.4098C57.4495 34.4299 56.4989 34.2349 55.6002 33.8683C54.2525 33.3773 53.0462 32.515 52.1002 31.3664C51.4997 32.0712 50.8059 32.676 50.0414 33.1609C48.7467 34.0381 47.2456 34.4929 45.718 34.4708C43.3857 34.45 41.1544 33.4385 39.5053 31.6545C38.6588 30.792 37.9854 29.7503 37.5271 28.5943C37.0687 27.4382 36.8351 26.1926 36.8409 24.9347V7.4082H41.5398Z" fill="#FFB800"/>
<path d="M80.996 5.08899C83.3166 5.09208 85.6017 5.70537 87.6545 6.876C89.7073 8.04663 91.4661 9.73951 92.7796 11.8088C93.0905 12.2919 93.5427 12.6477 94.0634 12.8188C94.5841 12.9899 95.1429 12.9663 95.6498 12.7519H95.7467C96.0592 12.6049 96.3376 12.3846 96.5618 12.107C96.786 11.8294 96.9504 11.5014 97.0431 11.1467C97.1358 10.792 97.1545 10.4194 97.0978 10.0559C97.0412 9.69246 96.9106 9.34712 96.7155 9.04489C94.9753 6.25956 92.63 3.97847 89.8851 2.40154C87.1403 0.824616 84.0798 0 80.9718 0C77.8638 0 74.8032 0.824616 72.0584 2.40154C69.3135 3.97847 66.9682 6.25956 65.228 9.04489C65.0351 9.34784 64.9063 9.69308 64.8509 10.056C64.7954 10.419 64.8146 10.7907 64.9071 11.1447C64.9996 11.4986 65.1632 11.8262 65.3861 12.104C65.6091 12.3818 65.8859 12.6031 66.1969 12.7519H66.3059C66.8095 12.9778 67.37 13.0072 67.8914 12.8352C68.4128 12.6631 68.8627 12.3003 69.164 11.8088C70.4813 9.73139 72.2477 8.03334 74.3097 6.86225C76.3717 5.69115 78.667 5.08245 80.996 5.08899Z" fill="#FFB800"/>
<path d="M21.0485 11.4421C20.2461 10.1447 19.1422 9.09852 17.8476 8.40872C16.5529 7.71893 15.1133 7.4098 13.6732 7.5124H2.91906V12.3983H14.521C15.0942 12.3974 15.6563 12.5699 16.1438 12.8961C16.8038 13.3002 17.2973 13.9604 17.5244 14.7431H9.1802C7.99089 14.6955 6.80491 14.9077 5.69316 15.3671C4.58142 15.8266 3.56673 16.5238 2.70976 17.417C1.85279 18.3103 1.17117 19.3812 0.705575 20.5659C0.239985 21.7506 0 23.0246 0 24.3119C0 25.5992 0.239985 26.8733 0.705575 28.0579C1.17117 29.2426 1.85279 30.3136 2.70976 31.2068C3.56673 32.1 4.58142 32.7972 5.69316 33.2566C6.80491 33.7161 7.99089 33.9284 9.1802 33.8808H22.2354V15.9351C22.2496 14.3448 21.8374 12.7842 21.0485 11.4421ZM17.5849 28.8376H9.22865C8.11733 28.8376 7.05151 28.3601 6.26569 27.5101C5.47986 26.6602 5.03841 25.5074 5.03841 24.3054C5.03681 23.7097 5.14409 23.1196 5.35411 22.5689C5.56412 22.0182 5.87272 21.5179 6.26214 21.0967C6.65156 20.6755 7.1141 20.3417 7.62321 20.1146C8.13232 19.8874 8.67793 19.7714 9.22865 19.7731H17.5849V28.8376Z" fill="#092A99"/>
</svg>
