<svg width="1422" height="278" viewBox="0 0 1422 278" fill="none" xmlns="http://www.w3.org/2000/svg">
<g opacity="0.79">
<path d="M1793.3 204.035C1561.75 264.391 1234.17 8.99908 1096.5 84.1421C954.413 161.7 776.977 365.533 597.66 338.544C418.342 311.556 295.605 159.02 -71.1 414.186" stroke="#7DD5FF" stroke-opacity="0.2" stroke-width="2" stroke-miterlimit="10"/>
<path d="M1784.84 206.068C1548.75 273.738 1221.94 18.3203 1081.47 86.6855C936.773 157.34 763.125 351.581 585.938 329.762C408.75 307.943 281.013 159.998 -68.2328 403.012" stroke="#7DD5FF" stroke-opacity="0.2" stroke-width="2" stroke-miterlimit="10"/>
<path d="M1776.39 208.101C1535.74 283.064 1209.71 27.6299 1066.43 89.1974C919.142 152.958 749.276 337.577 574.216 320.945C399.155 304.313 266.416 160.976 -65.3544 391.84" stroke="#7DD5FF" stroke-opacity="0.2" stroke-width="2" stroke-miterlimit="10"/>
<path d="M1767.93 210.134C1522.73 292.4 1197.48 36.9424 1051.41 91.735C901.523 148.601 735.427 323.611 562.508 312.148C389.589 300.686 251.821 161.962 -62.4955 380.665" stroke="#7DD5FF" stroke-opacity="0.2" stroke-width="2" stroke-miterlimit="10"/>
<path d="M1759.48 212.167C1509.72 301.738 1185.13 45.8961 1036.35 94.2644C883.763 143.879 721.573 309.637 550.772 303.355C379.971 297.073 237.229 162.929 -59.6284 369.508" stroke="#7DD5FF" stroke-opacity="0.2" stroke-width="2" stroke-miterlimit="10"/>
<path d="M1751.02 214.197C1496.71 311.073 1172.9 55.14 1021.32 96.7962C866.13 139.436 707.721 295.664 539.05 294.552C370.379 293.44 222.634 163.907 -56.7612 358.321" stroke="#7DD5FF" stroke-opacity="0.2" stroke-width="2" stroke-miterlimit="10"/>
<path d="M1742.57 216.23C1483.7 320.412 1160.67 64.396 1006.28 99.3229C848.505 135.02 693.872 281.687 527.328 285.759C360.785 289.831 208.04 164.885 -53.894 347.147" stroke="#7DD5FF" stroke-opacity="0.2" stroke-width="2" stroke-miterlimit="10"/>
<path d="M1734.11 218.263C1470.69 329.753 1148.46 73.663 991.241 101.858C830.888 130.614 680.019 267.718 515.606 276.965C351.193 286.212 193.436 165.863 -51.0242 335.975" stroke="#7DD5FF" stroke-opacity="0.2" stroke-width="2" stroke-miterlimit="10"/>
<path d="M1725.65 220.296C1457.68 339.086 1136.24 82.9414 976.202 104.387C813.288 126.22 666.168 253.743 503.884 268.169C341.601 282.594 178.85 166.841 -48.1654 324.8" stroke="#7DD5FF" stroke-opacity="0.2" stroke-width="2" stroke-miterlimit="10"/>
<path d="M1717.2 222.329C1444.68 348.421 1124.03 92.2342 961.154 106.919C795.654 121.84 652.304 239.769 492.151 259.369C331.998 278.97 164.244 167.819 -45.2899 313.629" stroke="#7DD5FF" stroke-opacity="0.2" stroke-width="2" stroke-miterlimit="10"/>
<path d="M1708.74 224.363C1431.67 357.76 1111.82 101.541 946.126 109.451C778.058 117.475 638.467 225.788 480.438 250.576C322.408 275.363 149.661 168.806 -42.4227 302.457" stroke="#7DD5FF" stroke-opacity="0.2" stroke-width="2" stroke-miterlimit="10"/>
<path d="M1700.29 226.404C1418.66 367.103 1099.61 110.868 931.09 111.988C760.449 113.129 624.615 211.83 468.716 241.784C312.816 271.738 135.066 169.775 -39.5556 291.282" stroke="#7DD5FF" stroke-opacity="0.2" stroke-width="2" stroke-miterlimit="10"/>
<path d="M1691.83 228.429C1405.65 376.433 1087.4 120.186 916.05 114.512C742.838 108.772 610.763 197.85 456.994 232.979C303.225 268.109 120.474 170.753 -36.6854 280.11" stroke="#7DD5FF" stroke-opacity="0.2" stroke-width="2" stroke-miterlimit="10"/>
<path d="M1683.37 230.462C1392.63 385.769 1075.18 129.522 901.005 117.042C725.216 104.441 596.905 183.876 445.263 224.183C293.621 264.49 105.88 171.732 -33.8183 268.936" stroke="#7DD5FF" stroke-opacity="0.2" stroke-width="2" stroke-miterlimit="10"/>
<path d="M1674.92 232.495C1379.64 395.107 1062.98 138.877 885.983 119.579C707.614 100.124 583.068 169.906 433.556 215.386C284.044 260.866 91.2848 172.709 -30.9511 257.769" stroke="#7DD5FF" stroke-opacity="0.2" stroke-width="2" stroke-miterlimit="10"/>
<path d="M1666.46 234.528C1366.62 404.443 1050.75 148.239 870.938 122.103C689.986 95.8099 569.21 155.929 421.828 206.587C274.446 257.245 76.6901 173.687 -28.084 246.592" stroke="#7DD5FF" stroke-opacity="0.2" stroke-width="2" stroke-miterlimit="10"/>
<path d="M1658.01 236.561C1353.62 413.781 1038.52 157.605 855.902 124.635C672.358 91.4957 555.35 141.954 410.106 197.79C264.863 253.626 62.0954 174.665 -25.2168 235.429" stroke="#7DD5FF" stroke-opacity="0.2" stroke-width="2" stroke-miterlimit="10"/>
<path d="M1649.55 238.594C1340.61 423.117 1026.22 167.286 840.862 127.164C654.66 87.5066 541.509 127.982 398.384 188.994C255.259 250.005 47.5005 175.649 -22.347 224.246" stroke="#7DD5FF" stroke-opacity="0.2" stroke-width="2" stroke-miterlimit="10"/>
<path d="M1641.1 240.627C1327.6 432.455 1013.99 176.595 825.826 129.707C637.026 83.1522 527.657 114.024 386.662 180.208C245.667 246.392 32.906 176.618 -19.4908 213.071" stroke="#7DD5FF" stroke-opacity="0.2" stroke-width="2" stroke-miterlimit="10"/>
<path d="M1632.64 242.657C1314.59 441.787 1001.76 185.914 810.787 132.225C619.395 78.7753 513.805 100.03 374.943 171.397C236.081 242.765 18.3141 177.594 -16.6097 201.908" stroke="#7DD5FF" stroke-opacity="0.2" stroke-width="2" stroke-miterlimit="10"/>
<path d="M1624.18 244.693C1301.58 451.135 989.525 195.216 795.75 134.757C601.776 74.4244 499.954 86.061 363.216 162.601C226.478 239.141 3.7167 178.569 -13.7452 190.727" stroke="#7DD5FF" stroke-opacity="0.2" stroke-width="2" stroke-miterlimit="10"/>
<path d="M1615.73 246.726C1288.57 460.465 977.296 204.526 780.711 137.289C584.126 70.0534 486.116 72.0864 351.494 153.805C216.872 235.523 -10.8781 179.553 -10.8781 179.553" stroke="#7DD5FF" stroke-opacity="0.2" stroke-width="2" stroke-miterlimit="10"/>
<path d="M1616.57 241.691C1559.19 276.385 1502.78 300.709 1447.36 314.664C1375.4 332.436 1304.69 332.439 1236.36 321.202C1198.1 314.846 1160.48 305.07 1123.92 291.986C1084.24 277.838 1046.47 260.336 1010.51 242.244C971.843 222.911 935.144 202.675 899.829 184.514C856.912 162.441 816.003 142.313 779.284 130.891C701.164 106.58 640.411 96.5541 585.105 95.0258C525.471 93.3776 472.632 103.135 417.554 125.251C396.113 133.782 374.4 144.118 351.758 156.451C312.538 177.662 266.03 187.209 219.362 191.152C106.251 200.71 -7.55523 173.394 -11.6745 173.918" stroke="#7DD5FF" stroke-opacity="0.2" stroke-width="2" stroke-miterlimit="10"/>
<path d="M1617.41 236.669C1559.17 269.135 1502.28 295.26 1446.58 310.503C1374.72 330.178 1303.57 332.083 1234.41 322.282C1195.63 316.736 1157.29 307.404 1120.65 293.939C1080.75 279.329 1043.43 260.338 1008.02 240.932C970.152 220.171 934.266 198.511 899.03 179.379C856.658 156.368 815.038 134.931 777.858 124.492C700.146 102.679 641.41 98.4557 586.45 99.5079C527.584 100.648 473.966 111.005 418.381 131.127C396.662 138.991 374.769 148.207 352.02 159.108C312.58 178.001 266.275 184.879 219.694 187.468C108.389 193.661 -4.23503 167.243 -12.4736 168.292" stroke="#7DD5FF" stroke-opacity="0.2" stroke-width="2" stroke-miterlimit="10"/>
<path d="M1618.25 231.625C1559.13 261.85 1501.84 289.586 1445.81 306.332C1374.02 327.774 1302.44 331.709 1232.46 323.352C1193.3 318.599 1154.34 309.845 1117.38 295.89C1077.27 280.817 1040.37 260.381 1005.54 239.612C968.439 217.479 933.394 194.354 898.234 174.235C856.405 150.3 814.09 127.523 776.434 118.091C699.161 98.7355 642.428 100.335 587.8 103.985C529.717 107.866 475.252 118.772 419.208 136.996C397.2 144.15 375.137 152.248 352.284 161.754C312.586 178.272 266.534 182.552 220.04 183.776C110.55 186.641 -0.920523 161.073 -13.2727 162.647" stroke="#7DD5FF" stroke-opacity="0.2" stroke-width="2" stroke-miterlimit="10"/>
<path d="M1619.09 226.592C1559.1 254.601 1501.39 283.905 1445.03 302.154C1373.32 325.348 1301.32 331.336 1230.51 324.41C1190.96 320.449 1151.39 312.271 1114.1 297.826C1073.79 282.291 1037.29 260.421 1003.06 238.283C966.714 214.784 932.513 190.191 897.432 169.091C856.144 144.244 813.147 120.098 775.005 111.683C698.19 94.7433 643.455 102.194 589.142 108.461C531.855 115.071 476.543 126.531 420.038 142.858C397.731 149.305 375.489 156.282 352.552 164.397C312.597 178.535 266.807 180.24 220.361 180.08C112.745 179.701 2.41373 154.922 -14.0662 157.024" stroke="#7DD5FF" stroke-opacity="0.2" stroke-width="2" stroke-miterlimit="10"/>
<path d="M1619.94 221.557C1559.06 247.339 1500.94 278.226 1444.26 297.974C1372.62 322.936 1300.19 330.965 1228.56 325.476C1188.61 322.308 1148.43 314.709 1110.83 299.774C1070.31 283.777 1034.23 260.476 1000.57 236.96C965.003 212.107 931.638 186.051 896.633 163.939C855.879 138.19 812.222 112.648 773.578 105.271C697.265 90.7003 644.494 104.019 590.487 112.927C534.008 122.243 477.821 134.27 420.86 148.715C398.252 154.446 375.841 160.309 352.808 167.032C312.572 178.783 267.08 177.939 220.687 176.371C114.948 172.792 5.71981 148.749 -14.8709 151.372" stroke="#7DD5FF" stroke-opacity="0.2" stroke-width="2" stroke-miterlimit="10"/>
<path d="M1620.78 216.527C1559.03 240.08 1500.49 272.537 1443.48 293.8C1371.92 320.501 1299.08 330.583 1226.61 326.543C1186.28 324.167 1145.48 317.133 1107.56 301.721C1066.82 285.26 1031.16 260.533 998.104 235.64C963.295 209.435 930.757 181.919 895.845 158.795C855.609 132.154 811.318 105.188 772.163 98.8638C696.364 86.6199 645.546 105.83 591.846 117.398C536.169 129.399 479.098 142.003 421.699 154.583C398.792 159.599 376.187 164.343 353.083 169.696C312.566 179.057 267.384 175.683 221.03 172.692C117.205 165.977 9.06536 142.604 -15.6531 145.755" stroke="#7DD5FF" stroke-opacity="0.2" stroke-width="2" stroke-miterlimit="10"/>
<path d="M1621.62 211.491C1559 232.819 1500.04 266.837 1442.71 289.634C1371.21 318.065 1297.96 330.232 1224.66 327.617C1183.95 326.035 1142.53 319.588 1104.28 303.665C1063.34 286.742 1028.09 260.609 995.608 234.319C961.562 206.766 929.86 177.793 895.035 153.65C855.339 126.131 810.398 97.7114 770.725 92.4592C695.458 82.4793 646.593 107.617 593.18 121.874C538.332 136.519 480.35 149.735 422.512 160.442C399.301 164.737 376.513 168.364 353.334 172.318C312.535 179.282 267.665 173.422 221.348 168.974C119.416 159.185 12.3743 136.419 -16.4662 140.098" stroke="#7DD5FF" stroke-opacity="0.2" stroke-width="2" stroke-miterlimit="10"/>
<path d="M1622.46 206.458C1558.97 225.563 1499.58 261.128 1441.93 285.462C1370.5 315.613 1296.83 329.867 1222.71 328.687C1181.61 327.897 1139.57 322.029 1101.01 305.625C1059.86 288.231 1025.01 260.681 993.126 233.008C959.837 204.117 928.974 173.699 894.236 148.518C855.06 120.127 809.501 90.2239 769.307 86.0722C694.583 78.3421 647.651 109.397 594.536 126.371C540.513 143.636 481.63 157.474 423.344 166.325C399.833 169.895 376.856 172.404 353.604 174.982C312.507 179.544 267.972 171.221 221.689 165.287C121.673 152.487 15.7028 130.269 -17.257 134.469" stroke="#7DD5FF" stroke-opacity="0.2" stroke-width="2" stroke-miterlimit="10"/>
<path d="M1623.31 201.426C1558.94 218.297 1499.12 255.411 1441.16 281.291C1369.79 313.152 1295.71 329.499 1220.76 329.765C1179.27 329.765 1136.63 324.475 1097.74 307.581C1056.38 289.734 1021.93 260.766 990.642 231.699C958.11 201.474 928.071 169.59 893.437 143.385C854.776 114.133 808.606 82.7133 767.872 79.668C693.705 74.1277 648.689 111.136 595.873 130.848C542.651 150.711 482.883 165.187 424.163 172.193C400.345 175.045 377.174 176.422 353.857 177.628C312.468 179.766 268.267 169.025 222.01 161.6C123.915 145.852 19.0175 124.116 -18.0644 128.843" stroke="#7DD5FF" stroke-opacity="0.2" stroke-width="2" stroke-miterlimit="10"/>
<path d="M1624.15 196.393C1558.91 211.038 1498.66 249.689 1440.38 277.119C1369.07 310.68 1294.59 329.132 1218.82 330.825C1176.94 331.621 1133.67 326.908 1094.47 309.523C1052.9 291.214 1018.86 260.841 988.168 230.37C956.373 198.817 927.178 165.484 892.646 138.236C854.495 108.131 807.722 75.163 766.454 73.2582C692.847 69.8622 649.736 112.844 597.229 135.316C544.812 157.751 484.152 172.878 424.999 178.05C400.874 180.16 377.526 180.425 354.13 180.263C312.442 179.978 268.576 166.861 222.35 157.896C126.172 139.262 22.346 117.948 -18.8552 123.198" stroke="#7DD5FF" stroke-opacity="0.2" stroke-width="2" stroke-miterlimit="10"/>
<path d="M1624.99 191.36C1558.87 203.778 1498.2 243.957 1439.61 272.945C1368.35 308.202 1293.47 328.769 1216.85 331.906C1174.59 333.494 1130.7 329.357 1091.18 311.481C1049.4 292.711 1015.75 260.937 985.664 229.076C954.629 196.196 926.25 161.415 891.827 133.117C854.18 102.168 806.814 67.6179 765.005 66.8765C691.967 65.582 650.746 114.558 598.554 139.818C546.931 164.802 485.39 180.593 425.793 183.941C401.361 185.312 377.827 184.454 354.361 182.931C312.381 180.211 268.841 164.74 222.651 154.224C128.392 132.764 25.6355 111.809 -19.6849 117.586" stroke="#7DD5FF" stroke-opacity="0.2" stroke-width="2" stroke-miterlimit="10"/>
<path d="M1625.83 186.328C1558.85 196.516 1497.73 238.223 1438.83 268.773C1367.63 305.713 1292.35 328.396 1214.91 332.964C1172.26 335.345 1127.76 331.786 1087.92 313.42C1045.93 294.185 1012.67 261.017 983.194 227.736C952.899 193.519 925.347 157.306 891.039 127.937C853.898 96.155 805.936 59.9907 763.578 60.4383C691.103 61.1997 651.761 116.192 599.899 144.27C549.061 171.783 486.647 188.25 426.631 189.781C401.893 190.411 378.173 188.429 354.634 185.552C312.358 180.385 269.145 162.607 222.994 150.503C130.618 126.266 28.9696 105.625 -20.4701 111.926" stroke="#7DD5FF" stroke-opacity="0.2" stroke-width="2" stroke-miterlimit="10"/>
<path d="M1626.67 181.292C1558.82 189.256 1497.26 232.478 1438.06 264.601C1366.89 303.218 1291.22 328.028 1212.96 334.033C1169.91 337.207 1124.8 334.224 1084.66 315.371C1042.45 295.673 1009.59 261.108 980.723 226.407C951.179 190.887 924.449 153.22 890.254 122.801C853.594 90.1868 805.058 52.3715 762.177 54.0396C690.259 56.8226 652.788 117.851 601.272 148.74C551.188 178.769 487.933 195.914 427.481 195.64C402.439 195.529 378.522 192.421 354.924 188.192C312.341 180.582 269.435 160.537 223.332 146.81C132.832 119.878 32.2981 99.4767 -21.2609 106.292" stroke="#7DD5FF" stroke-opacity="0.2" stroke-width="2" stroke-miterlimit="10"/>
<path d="M1627.52 176.259C1558.79 181.996 1496.79 226.729 1437.29 260.43C1366.16 300.717 1290.1 327.66 1211.01 335.102C1167.58 339.069 1121.85 336.665 1081.37 317.318C1038.96 297.159 1006.48 261.205 978.228 225.098C949.401 188.258 923.501 149.157 889.438 117.669C853.265 84.2303 804.146 44.7497 760.736 47.6468C689.37 52.4086 653.756 119.502 602.606 153.229C553.284 185.752 489.183 203.587 428.297 201.517C402.951 200.662 378.863 196.422 355.174 190.847C312.321 180.765 269.705 158.481 223.67 143.115C135.018 113.528 35.624 93.3063 -22.057 100.657" stroke="#7DD5FF" stroke-opacity="0.2" stroke-width="2" stroke-miterlimit="10"/>
<path d="M1628.36 171.227C1558.75 174.734 1496.31 220.975 1436.51 256.259C1365.42 298.211 1288.98 327.293 1209.06 336.183C1165.25 340.942 1118.9 339.115 1078.1 319.28C1035.48 298.659 1003.38 261.311 975.743 223.79C947.648 185.638 922.564 145.091 888.639 112.539C852.944 78.2797 803.243 37.094 759.31 41.2542C688.486 47.9607 654.724 121.131 603.951 157.717C555.361 192.729 490.446 211.252 429.121 207.394C403.469 205.78 379.203 200.422 355.433 193.505C312.299 180.959 269.955 156.474 223.999 139.434C137.174 107.216 38.9441 87.1447 -22.8674 95.0231" stroke="#7DD5FF" stroke-opacity="0.2" stroke-width="2" stroke-miterlimit="10"/>
<path d="M1629.2 166.194C1558.72 167.474 1495.83 215.215 1435.74 252.087C1364.67 295.696 1287.86 326.925 1207.11 337.241C1162.91 342.793 1115.95 341.544 1074.83 321.216C1032 300.133 1000.26 261.4 973.25 222.461C945.876 182.995 921.616 141.028 887.829 107.387C852.604 72.3146 802.323 29.3896 757.872 34.8386C687.574 43.4584 655.658 122.733 605.285 162.182C557.412 199.672 491.701 218.888 429.934 213.251C403.981 210.881 379.535 204.394 355.686 196.142C312.276 181.116 270.178 154.475 224.317 135.73C139.284 100.971 42.2699 80.9828 -23.6665 89.3888" stroke="#7DD5FF" stroke-opacity="0.2" stroke-width="2" stroke-miterlimit="10"/>
<path d="M1630.04 161.161C1558.69 160.215 1495.33 209.45 1434.96 247.915C1363.92 293.178 1286.74 326.557 1205.16 338.305C1160.57 344.649 1112.99 343.976 1071.55 323.161C1028.5 301.613 997.155 261.494 970.777 221.138C944.125 180.363 920.679 136.964 887.041 102.234C852.28 66.3494 801.411 21.6622 756.457 28.4257C686.677 38.9246 656.598 124.327 606.641 166.647C559.472 206.613 492.984 226.527 430.784 219.113C404.529 215.977 379.906 208.375 355.97 198.783C312.293 181.275 270.411 152.504 224.671 132.029C141.386 94.7465 45.5985 74.8209 -24.4403 83.7486" stroke="#7DD5FF" stroke-opacity="0.2" stroke-width="2" stroke-miterlimit="10"/>
<path d="M1630.88 156.126C1558.66 152.952 1494.84 203.681 1434.19 243.744C1363.17 290.655 1285.62 326.189 1203.22 339.38C1158.23 346.508 1110.03 346.423 1068.28 325.123C1025.03 303.116 994.038 261.608 968.295 219.832C942.356 177.731 919.725 132.915 886.242 97.1045C851.937 60.4127 800.48 13.932 755.03 22.0328C685.734 34.3851 657.51 125.938 607.989 171.138C561.501 213.57 494.259 234.154 431.597 224.984C405.044 221.095 380.247 212.361 356.224 201.432C312.282 181.443 270.603 150.557 224.992 128.336C143.423 88.5646 48.9105 68.6646 -25.2504 78.1313" stroke="#7DD5FF" stroke-opacity="0.2" stroke-width="2" stroke-miterlimit="10"/>
<path d="M1631.73 151.093C1558.63 145.692 1494.27 197.799 1433.41 239.572C1362.32 287.995 1284.49 325.821 1201.27 340.46C1155.89 348.39 1107.08 348.872 1065.01 327.076C1021.55 304.604 990.842 261.753 965.811 218.517C940.51 175.156 918.763 128.878 885.443 91.9749C851.588 54.4761 799.532 6.17898 753.604 15.6428C684.781 29.82 658.402 127.546 609.334 175.626C563.51 220.516 495.539 241.802 432.425 230.85C405.573 226.196 380.605 216.342 356.485 204.078C312.288 181.603 270.752 148.652 225.322 124.641C145.421 82.4084 52.2306 62.5028 -26.0496 72.4798" stroke="#7DD5FF" stroke-opacity="0.2" stroke-width="2" stroke-miterlimit="10"/>
<path d="M1632.57 146.06C1558.6 138.433 1493.8 192.076 1432.64 235.4C1361.59 285.534 1283.37 325.453 1199.32 341.518C1153.56 350.241 1104.13 351.301 1061.73 329.012C1018.06 306.078 987.749 261.821 963.326 217.186C938.768 172.49 917.744 124.877 884.641 86.8194C851.158 48.5792 798.57 -1.61685 752.174 9.22704C683.801 25.212 659.274 129.129 610.679 180.092C565.507 227.462 496.833 249.335 433.249 236.718C406.108 231.263 380.976 220.291 356.744 206.724C312.33 181.711 270.884 146.759 225.654 120.945C147.376 76.2749 55.5508 56.3436 -26.8487 66.8454" stroke="#7DD5FF" stroke-opacity="0.2" stroke-width="2" stroke-miterlimit="10"/>
<path d="M1633.41 141.027C1558.57 131.17 1493.33 186.365 1431.86 231.229C1360.87 283.064 1282.25 325.085 1197.37 342.587C1151.22 352.102 1101.17 353.739 1058.46 330.962C1014.58 307.566 984.66 261.898 960.844 215.868C937.029 169.838 916.818 120.78 883.844 81.6783C850.871 42.577 797.596 -9.42687 750.756 2.82561C682.808 20.5927 660.155 130.725 612.04 184.571C567.51 234.408 498.124 257.028 434.09 242.583C356.215 225.015 295.495 159.918 225.999 117.25C149.281 70.1472 58.8736 50.1874 -27.6508 61.2081" stroke="#7DD5FF" stroke-opacity="0.2" stroke-width="2" stroke-miterlimit="10"/>
</g>
</svg>
