<svg width="1422" height="300" viewBox="0 0 1422 300" fill="none" xmlns="http://www.w3.org/2000/svg">
<g opacity="0.79">
<path d="M1793.3 89.0351C1561.75 149.391 1234.17 -106.001 1096.5 -30.8579C954.413 46.7003 776.977 250.533 597.66 223.544C418.342 196.556 295.605 44.02 -71.1 299.186" stroke="#7DD5FF" stroke-opacity="0.2" stroke-width="2" stroke-miterlimit="10"/>
<path d="M1784.84 91.068C1548.75 158.738 1221.94 -96.6797 1081.47 -28.3145C936.773 42.3404 763.125 236.581 585.938 214.762C408.75 192.943 281.013 44.998 -68.2328 288.012" stroke="#7DD5FF" stroke-opacity="0.2" stroke-width="2" stroke-miterlimit="10"/>
<path d="M1776.39 93.1009C1535.74 168.064 1209.71 -87.3701 1066.43 -25.8026C919.142 37.9576 749.276 222.577 574.216 205.945C399.155 189.313 266.416 45.9757 -65.3544 276.84" stroke="#7DD5FF" stroke-opacity="0.2" stroke-width="2" stroke-miterlimit="10"/>
<path d="M1767.93 95.1338C1522.73 177.4 1197.48 -78.0576 1051.41 -23.265C901.523 33.6005 735.427 208.611 562.508 197.148C389.589 185.686 251.821 46.9622 -62.4955 265.665" stroke="#7DD5FF" stroke-opacity="0.2" stroke-width="2" stroke-miterlimit="10"/>
<path d="M1759.48 97.1671C1509.72 186.738 1185.13 -69.1039 1036.35 -20.7356C883.763 28.8788 721.573 194.637 550.772 188.355C379.971 182.073 237.229 47.9291 -59.6284 254.508" stroke="#7DD5FF" stroke-opacity="0.2" stroke-width="2" stroke-miterlimit="10"/>
<path d="M1751.02 99.197C1496.71 196.073 1172.9 -59.86 1021.32 -18.2038C866.13 24.436 707.721 180.664 539.05 179.552C370.379 178.44 222.634 48.9067 -56.7612 243.321" stroke="#7DD5FF" stroke-opacity="0.2" stroke-width="2" stroke-miterlimit="10"/>
<path d="M1742.57 101.23C1483.7 205.412 1160.67 -50.604 1006.28 -15.6772C848.505 20.0196 693.872 166.687 527.328 170.759C360.785 174.831 208.04 49.8851 -53.894 232.147" stroke="#7DD5FF" stroke-opacity="0.2" stroke-width="2" stroke-miterlimit="10"/>
<path d="M1734.11 103.263C1470.69 214.753 1148.46 -41.337 991.241 -13.1423C830.888 15.6141 680.019 152.718 515.606 161.965C351.193 171.212 193.436 50.8632 -51.0242 220.975" stroke="#7DD5FF" stroke-opacity="0.2" stroke-width="2" stroke-miterlimit="10"/>
<path d="M1725.65 105.296C1457.68 224.086 1136.24 -32.0586 976.202 -10.6132C813.288 11.22 666.168 138.743 503.884 153.169C341.601 167.594 178.85 51.8411 -48.1654 209.8" stroke="#7DD5FF" stroke-opacity="0.2" stroke-width="2" stroke-miterlimit="10"/>
<path d="M1717.2 107.329C1444.68 233.421 1124.03 -22.7658 961.154 -8.08107C795.654 6.84032 652.304 124.769 492.151 144.369C331.998 163.97 164.244 52.8192 -45.2899 198.629" stroke="#7DD5FF" stroke-opacity="0.2" stroke-width="2" stroke-miterlimit="10"/>
<path d="M1708.74 109.363C1431.67 242.76 1111.82 -13.4586 946.126 -5.54879C778.058 2.47506 638.467 110.788 480.438 135.576C322.408 160.363 149.661 53.806 -42.4227 187.457" stroke="#7DD5FF" stroke-opacity="0.2" stroke-width="2" stroke-miterlimit="10"/>
<path d="M1700.29 111.404C1418.66 252.103 1099.61 -4.13213 931.09 -3.01153C760.449 -1.87097 624.615 96.8303 468.716 126.784C312.816 156.738 135.066 54.775 -39.5556 176.282" stroke="#7DD5FF" stroke-opacity="0.2" stroke-width="2" stroke-miterlimit="10"/>
<path d="M1691.83 113.429C1405.65 261.433 1087.4 5.18643 916.05 -0.487866C742.838 -6.22774 610.763 82.8501 456.994 117.979C303.225 153.109 120.474 55.7532 -36.6854 165.11" stroke="#7DD5FF" stroke-opacity="0.2" stroke-width="2" stroke-miterlimit="10"/>
<path d="M1683.37 115.462C1392.63 270.769 1075.18 14.5222 901.005 2.04165C725.216 -10.5587 596.905 68.8757 445.263 109.183C293.621 149.491 105.88 56.7315 -33.8183 153.936" stroke="#7DD5FF" stroke-opacity="0.2" stroke-width="2" stroke-miterlimit="10"/>
<path d="M1674.92 117.495C1379.64 280.107 1062.98 23.8773 885.983 4.57901C707.614 -14.8761 583.068 54.9063 433.556 100.386C284.044 145.866 91.2848 57.7092 -30.9511 142.769" stroke="#7DD5FF" stroke-opacity="0.2" stroke-width="2" stroke-miterlimit="10"/>
<path d="M1666.46 119.528C1366.62 289.443 1050.75 33.2386 870.938 7.10268C689.986 -19.1901 569.21 40.9289 421.828 91.5869C274.446 142.245 76.6901 58.6874 -28.084 131.592" stroke="#7DD5FF" stroke-opacity="0.2" stroke-width="2" stroke-miterlimit="10"/>
<path d="M1658.01 121.561C1353.62 298.781 1038.52 42.6055 855.902 9.63469C672.358 -23.5043 555.35 26.9541 410.106 82.7903C264.863 138.626 62.0954 59.6654 -25.2168 120.429" stroke="#7DD5FF" stroke-opacity="0.2" stroke-width="2" stroke-miterlimit="10"/>
<path d="M1649.55 123.594C1340.61 308.117 1026.22 52.286 840.862 12.1639C654.66 -27.4934 541.509 12.9823 398.384 73.9937C255.259 135.005 47.5005 60.6491 -22.347 109.246" stroke="#7DD5FF" stroke-opacity="0.2" stroke-width="2" stroke-miterlimit="10"/>
<path d="M1641.1 125.627C1327.6 317.455 1013.99 61.5955 825.826 14.707C637.026 -31.8478 527.657 -0.975699 386.662 65.2082C245.667 131.392 32.906 61.6183 -19.4908 98.0706" stroke="#7DD5FF" stroke-opacity="0.2" stroke-width="2" stroke-miterlimit="10"/>
<path d="M1632.64 127.657C1314.59 326.787 1001.76 70.9139 810.787 17.2249C619.395 -36.2247 513.805 -14.9703 374.943 56.3975C236.081 127.765 18.3141 62.5936 -16.6097 86.9075" stroke="#7DD5FF" stroke-opacity="0.2" stroke-width="2" stroke-miterlimit="10"/>
<path d="M1624.18 129.693C1301.58 336.135 989.525 80.2156 795.75 19.7573C601.776 -40.5756 499.954 -28.939 363.216 47.6012C226.478 124.141 3.7167 63.569 -13.7452 75.7274" stroke="#7DD5FF" stroke-opacity="0.2" stroke-width="2" stroke-miterlimit="10"/>
<path d="M1615.73 131.726C1288.57 345.465 977.296 89.5255 780.711 22.2894C584.126 -44.9466 486.116 -42.9136 351.494 38.8048C216.872 120.523 -10.8781 64.5529 -10.8781 64.5529" stroke="#7DD5FF" stroke-opacity="0.2" stroke-width="2" stroke-miterlimit="10"/>
<path d="M1616.57 126.691C1559.19 161.385 1502.78 185.709 1447.36 199.664C1375.4 217.436 1304.69 217.439 1236.36 206.202C1198.1 199.846 1160.48 190.07 1123.92 176.986C1084.24 162.838 1046.47 145.336 1010.51 127.244C971.843 107.911 935.144 87.6748 899.829 69.5142C856.912 47.4415 816.003 27.3134 779.284 15.8907C701.164 -8.42035 640.411 -18.4459 585.105 -19.9742C525.471 -21.6224 472.632 -11.8649 417.554 10.2506C396.113 18.782 374.4 29.1184 351.758 41.4507C312.538 62.6623 266.03 72.2088 219.362 76.1523C106.251 85.7102 -7.55523 58.3937 -11.6745 58.9184" stroke="#7DD5FF" stroke-opacity="0.2" stroke-width="2" stroke-miterlimit="10"/>
<path d="M1617.41 121.669C1559.17 154.135 1502.28 180.26 1446.58 195.503C1374.72 215.178 1303.57 217.083 1234.41 207.282C1195.63 201.736 1157.29 192.404 1120.65 178.939C1080.75 164.329 1043.43 145.338 1008.02 125.932C970.152 105.171 934.266 83.5115 899.03 64.3786C856.658 41.3677 815.038 19.9309 777.858 9.49187C700.146 -12.3214 641.41 -16.5443 586.45 -15.4921C527.584 -14.3516 473.966 -3.99525 418.381 16.1271C396.662 23.9913 374.769 33.207 352.02 44.1079C312.58 63.0013 266.275 69.8789 219.694 72.4679C108.389 78.6612 -4.23503 52.243 -12.4736 53.2923" stroke="#7DD5FF" stroke-opacity="0.2" stroke-width="2" stroke-miterlimit="10"/>
<path d="M1618.25 116.625C1559.13 146.85 1501.84 174.586 1445.81 191.332C1374.02 212.774 1302.44 216.709 1232.46 208.352C1193.3 203.599 1154.34 194.845 1117.38 180.89C1077.27 165.817 1040.37 145.381 1005.54 124.612C968.439 102.479 933.394 79.3544 898.234 59.2349C856.405 35.3002 814.09 12.5232 776.434 3.09078C699.161 -16.2645 642.428 -14.6649 587.8 -11.0151C529.717 -7.13434 475.252 3.77224 419.208 21.9956C397.2 29.1497 375.137 37.2477 352.284 46.7543C312.586 63.2725 266.534 67.5524 220.04 68.7757C110.55 71.6413 -0.920523 46.0728 -13.2727 47.6468" stroke="#7DD5FF" stroke-opacity="0.2" stroke-width="2" stroke-miterlimit="10"/>
<path d="M1619.09 111.592C1559.1 139.601 1501.39 168.905 1445.03 187.154C1373.32 210.348 1301.32 216.336 1230.51 209.41C1190.96 205.449 1151.39 197.271 1114.1 182.826C1073.79 167.291 1037.29 145.421 1003.06 123.283C966.714 99.7845 932.513 75.1911 897.432 54.0908C856.144 29.2436 813.147 5.09798 775.005 -3.31651C698.19 -20.2567 643.455 -12.806 589.142 -6.53861C531.855 0.0709428 476.543 11.5307 420.038 27.8579C397.731 34.3049 375.489 41.2823 352.552 49.3974C312.597 63.5346 266.807 65.2398 220.361 65.0801C112.745 64.7008 2.41373 39.9222 -14.0662 42.0236" stroke="#7DD5FF" stroke-opacity="0.2" stroke-width="2" stroke-miterlimit="10"/>
<path d="M1619.94 106.557C1559.06 132.339 1500.94 163.226 1444.26 182.974C1372.62 207.936 1300.19 215.965 1228.56 210.476C1188.61 207.308 1148.43 199.709 1110.83 184.774C1070.31 168.777 1034.23 145.476 1000.57 121.96C965.003 97.1073 931.638 71.0512 896.633 48.9386C855.879 23.1904 812.222 -2.35243 773.578 -9.72901C697.265 -24.2997 644.494 -10.9808 590.487 -2.073C534.008 7.24253 477.821 19.2698 420.86 33.715C398.252 39.4463 375.841 45.3088 352.808 52.0324C312.572 63.783 267.08 62.939 220.687 61.3707C114.948 57.7922 5.71981 33.7492 -14.8709 36.3724" stroke="#7DD5FF" stroke-opacity="0.2" stroke-width="2" stroke-miterlimit="10"/>
<path d="M1620.78 101.527C1559.03 125.08 1500.49 157.537 1443.48 178.8C1371.92 205.501 1299.08 215.583 1226.61 211.543C1186.28 209.167 1145.48 202.133 1107.56 186.721C1066.82 170.26 1031.16 145.533 998.104 120.64C963.295 94.4355 930.757 66.9195 895.845 43.7946C855.609 17.1539 811.318 -9.81178 772.163 -16.1362C696.364 -28.3801 645.546 -9.17022 591.846 2.39792C536.169 14.3995 479.098 27.0027 421.699 39.5831C398.792 44.5987 376.187 49.3435 353.083 54.6955C312.566 64.0567 267.384 60.6834 221.03 57.6923C117.205 50.9772 9.06536 27.6043 -15.6531 30.7551" stroke="#7DD5FF" stroke-opacity="0.2" stroke-width="2" stroke-miterlimit="10"/>
<path d="M1621.62 96.491C1559 117.819 1500.04 151.837 1442.71 174.634C1371.21 203.065 1297.96 215.232 1224.66 212.617C1183.95 211.035 1142.53 204.588 1104.28 188.665C1063.34 171.742 1028.09 145.609 995.608 119.319C961.562 91.7662 929.86 62.7931 895.035 38.6503C855.339 11.1314 810.398 -17.2886 770.725 -22.5408C695.458 -32.5207 646.593 -7.38277 593.18 6.87425C538.332 21.519 480.35 34.7353 422.512 45.4423C399.301 49.7365 376.513 53.3635 353.334 57.3184C312.535 64.2815 267.665 58.4219 221.348 53.9737C119.416 44.1849 12.3743 21.4192 -16.4662 25.0975" stroke="#7DD5FF" stroke-opacity="0.2" stroke-width="2" stroke-miterlimit="10"/>
<path d="M1622.46 91.4585C1558.97 110.563 1499.58 146.128 1441.93 170.462C1370.5 200.613 1296.83 214.867 1222.71 213.687C1181.61 212.897 1139.57 207.029 1101.01 190.625C1059.86 173.231 1025.01 145.681 993.126 118.008C959.837 89.1174 928.974 58.6987 894.236 33.5179C855.06 5.12651 809.501 -24.7761 769.307 -28.9278C694.583 -36.6579 647.651 -5.60329 594.536 11.3711C540.513 28.6364 481.63 42.4742 423.344 51.325C399.833 54.8949 376.856 57.4041 353.604 59.9818C312.507 64.544 267.972 56.2208 221.689 50.287C121.673 37.4871 15.7028 15.2689 -17.257 19.4691" stroke="#7DD5FF" stroke-opacity="0.2" stroke-width="2" stroke-miterlimit="10"/>
<path d="M1623.31 86.4257C1558.94 103.297 1499.12 140.411 1441.16 166.291C1369.79 198.152 1295.71 214.499 1220.76 214.765C1179.27 214.765 1136.63 209.475 1097.74 192.581C1056.38 174.734 1021.93 145.766 990.642 116.699C958.11 86.4742 928.071 54.5898 893.437 28.3854C854.776 -0.867097 808.606 -32.2867 767.872 -35.332C693.705 -40.8723 648.689 -3.86391 595.873 15.8478C542.651 35.7107 482.883 50.1872 424.163 57.1931C400.345 60.0445 377.174 61.4218 353.857 62.6279C312.468 64.7665 268.267 54.0253 222.01 46.6002C123.915 30.8519 19.0175 9.11566 -18.0644 13.8433" stroke="#7DD5FF" stroke-opacity="0.2" stroke-width="2" stroke-miterlimit="10"/>
<path d="M1624.15 81.3932C1558.91 96.038 1498.66 134.689 1440.38 162.119C1369.07 195.68 1294.59 214.132 1218.82 215.825C1176.94 216.621 1133.67 211.908 1094.47 194.523C1052.9 176.214 1018.86 145.841 988.168 115.37C956.373 83.8169 927.178 50.484 892.646 23.236C854.495 -6.86912 807.722 -39.837 766.454 -41.7418C692.847 -45.1378 649.736 -2.15575 597.229 20.3162C544.812 42.751 484.152 57.8776 424.999 63.0501C400.874 65.1601 377.526 65.4253 354.13 65.2628C312.442 64.9776 268.576 51.8612 222.35 42.8964C126.172 24.2625 22.346 2.94826 -18.8552 8.1977" stroke="#7DD5FF" stroke-opacity="0.2" stroke-width="2" stroke-miterlimit="10"/>
<path d="M1624.99 76.3603C1558.87 88.7781 1498.2 128.957 1439.61 157.945C1368.35 193.202 1293.47 213.769 1216.85 216.906C1174.59 218.494 1130.7 214.357 1091.18 196.481C1049.4 177.711 1015.75 145.937 985.664 114.076C954.629 81.1962 926.25 46.4148 891.827 18.1175C854.18 -12.8317 806.814 -47.3821 765.005 -48.1235C691.967 -49.418 650.746 -0.442319 598.554 24.8183C546.931 49.8022 485.39 65.5934 425.793 68.9409C401.361 70.3124 377.827 69.4541 354.361 67.9315C312.381 65.2113 268.841 49.7395 222.651 39.2236C128.392 17.7639 25.6355 -3.19106 -19.6849 2.58588" stroke="#7DD5FF" stroke-opacity="0.2" stroke-width="2" stroke-miterlimit="10"/>
<path d="M1625.83 71.3278C1558.85 81.5158 1497.73 123.223 1438.83 153.773C1367.63 190.713 1292.35 213.396 1214.91 217.964C1172.26 220.345 1127.76 216.786 1087.92 198.42C1045.93 179.185 1012.67 146.017 983.194 112.736C952.899 78.519 925.347 42.3062 891.039 12.9368C853.898 -18.845 805.936 -55.0093 763.578 -54.5617C691.103 -53.8003 651.761 1.19183 599.899 29.2696C549.061 56.7828 486.647 73.2497 426.631 74.7809C401.893 75.411 378.173 73.4293 354.634 70.5522C312.358 65.3855 269.145 47.607 222.994 35.5028C130.618 11.2659 28.9696 -9.37545 -20.4701 -3.07385" stroke="#7DD5FF" stroke-opacity="0.2" stroke-width="2" stroke-miterlimit="10"/>
<path d="M1626.67 66.292C1558.82 74.256 1497.26 117.478 1438.06 149.601C1366.89 188.218 1291.22 213.028 1212.96 219.033C1169.91 222.207 1124.8 219.224 1084.66 200.371C1042.45 180.673 1009.59 146.108 980.723 111.407C951.179 75.887 924.449 38.22 890.254 7.80119C853.594 -24.8132 805.058 -62.6285 762.177 -60.9604C690.259 -58.1774 652.788 2.85115 601.272 33.7404C551.188 63.7685 487.933 80.914 427.481 80.6403C402.439 80.5291 378.522 77.421 354.924 73.1924C312.341 65.582 269.435 45.5366 223.332 31.81C132.832 4.87849 32.2981 -15.5233 -21.2609 -8.70844" stroke="#7DD5FF" stroke-opacity="0.2" stroke-width="2" stroke-miterlimit="10"/>
<path d="M1627.52 61.2592C1558.79 66.9963 1496.79 111.729 1437.29 145.43C1366.16 185.717 1290.1 212.66 1211.01 220.102C1167.58 224.069 1121.85 221.665 1081.37 202.318C1038.96 182.159 1006.48 146.205 978.228 110.098C949.401 73.258 923.501 34.1567 889.438 2.66866C853.265 -30.7697 804.146 -70.2503 760.736 -67.3533C689.37 -62.5914 653.756 4.50211 602.606 38.2285C553.284 70.7516 489.183 88.5871 428.297 86.517C402.951 85.6616 378.863 81.4216 355.174 75.8471C312.321 65.7645 269.705 43.4808 223.67 28.1146C135.018 -1.47158 35.624 -21.6937 -22.057 -14.3428" stroke="#7DD5FF" stroke-opacity="0.2" stroke-width="2" stroke-miterlimit="10"/>
<path d="M1628.36 56.2268C1558.75 59.7341 1496.31 105.975 1436.51 141.259C1365.42 183.211 1288.98 212.293 1209.06 221.183C1165.25 225.942 1118.9 224.115 1078.1 204.28C1035.48 183.659 1003.38 146.311 975.743 108.79C947.648 70.6379 922.564 30.0909 888.639 -2.46071C852.944 -36.7203 803.243 -77.906 759.31 -73.7458C688.486 -67.0393 654.724 6.13055 603.951 42.7169C555.361 77.7293 490.446 96.252 429.121 92.3941C403.469 90.7802 379.203 85.4224 355.433 78.5049C312.299 65.9587 269.955 41.4737 223.999 24.4337C137.174 -7.7843 38.9441 -27.8553 -22.8674 -19.9769" stroke="#7DD5FF" stroke-opacity="0.2" stroke-width="2" stroke-miterlimit="10"/>
<path d="M1629.2 51.1942C1558.72 52.4745 1495.83 100.215 1435.74 137.087C1364.67 180.696 1287.86 211.925 1207.11 222.241C1162.91 227.793 1115.95 226.544 1074.83 206.216C1032 185.133 1000.26 146.4 973.25 107.461C945.876 67.9946 921.616 26.0277 887.829 -7.61318C852.604 -42.6854 802.323 -85.6104 757.872 -80.1614C687.574 -71.5416 655.658 7.73308 605.285 47.1822C557.412 84.6725 491.701 103.888 429.934 98.2509C403.981 95.8814 379.535 89.3944 355.686 81.1425C312.276 66.1156 270.178 39.4749 224.317 20.7298C139.284 -14.0288 42.2699 -34.0172 -23.6665 -25.6112" stroke="#7DD5FF" stroke-opacity="0.2" stroke-width="2" stroke-miterlimit="10"/>
<path d="M1630.04 46.1614C1558.69 45.2147 1495.33 94.4499 1434.96 132.915C1363.92 178.178 1286.74 211.557 1205.16 223.305C1160.57 229.649 1112.99 228.976 1071.55 208.161C1028.5 186.613 997.155 146.494 970.777 106.138C944.125 65.3627 920.679 21.9644 887.041 -12.7657C852.28 -48.6506 801.411 -93.3378 756.457 -86.5743C686.677 -76.0754 656.598 9.32693 606.641 51.6475C559.472 91.6127 492.984 111.527 430.784 104.113C404.529 100.977 379.906 93.3749 355.97 83.7827C312.293 66.2751 270.411 37.5045 224.671 17.0286C141.386 -20.2535 45.5985 -40.1791 -24.4403 -31.2514" stroke="#7DD5FF" stroke-opacity="0.2" stroke-width="2" stroke-miterlimit="10"/>
<path d="M1630.88 41.1257C1558.66 37.9521 1494.84 88.6814 1434.19 128.744C1363.17 175.655 1285.62 211.189 1203.22 224.38C1158.23 231.508 1110.03 231.423 1068.28 210.123C1025.03 188.116 994.038 146.608 968.295 104.832C942.356 62.7308 919.725 17.9153 886.242 -17.8955C851.937 -54.5873 800.48 -101.068 755.03 -92.9672C685.734 -80.615 657.51 10.9379 607.989 56.1383C561.501 98.57 494.259 119.154 431.597 109.984C405.044 106.095 380.247 97.361 356.224 86.4316C312.282 66.4433 270.603 35.5569 224.992 13.3359C143.423 -26.4355 48.9105 -46.3354 -25.2504 -36.8687" stroke="#7DD5FF" stroke-opacity="0.2" stroke-width="2" stroke-miterlimit="10"/>
<path d="M1631.73 36.093C1558.63 30.6924 1494.27 82.7989 1433.41 124.572C1362.32 172.994 1284.49 210.821 1201.27 225.46C1155.89 233.39 1107.08 233.872 1065.01 212.076C1021.55 189.604 990.842 146.753 965.811 103.517C940.51 60.156 918.763 13.8777 885.443 -23.0251C851.588 -60.5239 799.532 -108.821 753.604 -99.3572C684.781 -85.18 658.402 12.5461 609.334 60.6264C563.51 105.516 495.539 126.802 432.425 115.85C405.573 111.196 380.605 101.342 356.485 89.0777C312.288 66.603 270.752 33.6522 225.322 9.6405C145.421 -32.5916 52.2306 -52.4973 -26.0496 -42.5202" stroke="#7DD5FF" stroke-opacity="0.2" stroke-width="2" stroke-miterlimit="10"/>
<path d="M1632.57 31.0602C1558.6 23.4327 1493.8 77.0761 1432.64 120.4C1361.59 170.534 1283.37 210.453 1199.32 226.518C1153.56 235.241 1104.13 236.301 1061.73 214.012C1018.06 191.078 987.749 146.821 963.326 102.186C938.768 57.4898 917.744 9.87711 884.641 -28.1806C851.158 -66.4207 798.57 -116.617 752.174 -105.773C683.801 -89.788 659.274 14.1286 610.679 65.0917C565.507 112.462 496.833 134.335 433.249 121.718C406.108 116.263 380.976 105.291 356.744 91.7238C312.33 66.7113 270.884 31.7588 225.654 5.94504C147.376 -38.725 55.5508 -58.6563 -26.8487 -48.1546" stroke="#7DD5FF" stroke-opacity="0.2" stroke-width="2" stroke-miterlimit="10"/>
<path d="M1633.41 26.0274C1558.57 16.1701 1493.33 71.3647 1431.86 116.229C1360.87 168.064 1282.25 210.085 1197.37 227.587C1151.22 237.102 1101.17 238.739 1058.46 215.962C1014.58 192.566 984.66 146.898 960.844 100.868C937.029 54.838 916.818 5.77957 883.844 -33.3217C850.871 -72.423 797.596 -124.427 750.756 -112.174C682.808 -94.4073 660.155 15.7253 612.04 69.5712C567.51 119.408 498.124 142.028 434.09 127.583C356.215 110.015 295.495 44.9179 225.999 2.24953C149.281 -44.8528 58.8736 -64.8126 -27.6508 -53.7919" stroke="#7DD5FF" stroke-opacity="0.2" stroke-width="2" stroke-miterlimit="10"/>
</g>
</svg>
