<svg width="19" height="19" viewBox="0 0 19 19" fill="none" xmlns="http://www.w3.org/2000/svg">
<path d="M14.5569 2.23926H7.98521C7.83997 2.23926 7.70067 2.30034 7.59796 2.40906C7.49526 2.51778 7.43757 2.66523 7.43757 2.81899C7.43757 2.97274 7.49526 3.1202 7.59796 3.22892C7.70067 3.33764 7.83997 3.39872 7.98521 3.39872H14.5569C15.29 3.40025 15.9926 3.70919 16.5109 4.2579C17.0292 4.8066 17.3211 5.55037 17.3225 6.32636V14.7035C17.3139 15.4744 17.0189 16.2108 16.5013 16.7532C15.9838 17.2957 15.2853 17.6007 14.5569 17.6021H6.64896C5.92063 17.6007 5.22213 17.2957 4.70457 16.7532C4.18701 16.2108 3.89201 15.4744 3.88337 14.7035V8.56412C3.88337 8.41037 3.82567 8.26291 3.72296 8.15419C3.62026 8.04547 3.48097 7.98439 3.33573 7.98439C3.19049 7.98439 3.05118 8.04547 2.94848 8.15419C2.84578 8.26291 2.78809 8.41037 2.78809 8.56412V14.7035C2.79674 15.7819 3.20715 16.8132 3.93012 17.5731C4.65308 18.333 5.63016 18.7601 6.64896 18.7616H14.5569C15.5757 18.7601 16.5528 18.333 17.2758 17.5731C17.9987 16.8132 18.4091 15.7819 18.4178 14.7035V6.32636C18.4178 5.78964 18.3179 5.25816 18.1239 4.76229C17.9299 4.26642 17.6455 3.81586 17.287 3.43634C16.9285 3.05682 16.5028 2.75577 16.0344 2.55037C15.566 2.34498 15.0639 2.23926 14.5569 2.23926Z" fill="white"/>
<path d="M5.6414 15.1904C5.57555 15.1911 5.51028 15.1773 5.44972 15.1499C5.31523 15.0953 5.20648 14.9868 5.14702 14.8479C5.08757 14.709 5.08221 14.5509 5.1321 14.4078L8.07294 6.11186C8.12452 5.96949 8.22702 5.85436 8.35823 5.79142C8.48943 5.72849 8.63879 5.72281 8.77392 5.77563C8.84166 5.80208 8.90378 5.84244 8.95672 5.8944C9.00967 5.94636 9.05239 6.0089 9.08242 6.07841C9.11245 6.14791 9.1292 6.22301 9.13171 6.2994C9.13421 6.37578 9.12243 6.45193 9.09703 6.52347L6.15619 14.8136C6.11703 14.9246 6.04669 15.0202 5.95465 15.0876C5.86261 15.1549 5.7533 15.1908 5.6414 15.1904Z" fill="white"/>
<path d="M11.5231 15.1904C11.4121 15.1896 11.304 15.1531 11.213 15.0859C11.1221 15.0186 11.0526 14.9236 11.0138 14.8136L8.07292 6.52342C8.04738 6.45224 8.03533 6.37643 8.03747 6.30032C8.03962 6.22421 8.05589 6.1493 8.08539 6.07985C8.11489 6.0104 8.15702 5.94779 8.20938 5.89558C8.26174 5.84337 8.3233 5.80259 8.39055 5.77557C8.45779 5.74854 8.52941 5.73578 8.60131 5.73805C8.67321 5.74032 8.74397 5.75756 8.80957 5.78878C8.87517 5.82001 8.93433 5.8646 8.98365 5.92003C9.03297 5.97546 9.07149 6.04062 9.09701 6.11181L12.0379 14.4078C12.0875 14.5516 12.0813 14.7103 12.0208 14.8493C11.9603 14.9883 11.8502 15.0963 11.7147 15.1498C11.6543 15.1777 11.589 15.1916 11.5231 15.1904Z" fill="white"/>
<path d="M10.384 11.9783H6.78049C6.63525 11.9783 6.49596 11.9172 6.39326 11.8085C6.29056 11.6998 6.23285 11.5523 6.23285 11.3986C6.23285 11.2448 6.29056 11.0974 6.39326 10.9886C6.49596 10.8799 6.63525 10.8188 6.78049 10.8188H10.384C10.5292 10.8188 10.6685 10.8799 10.7712 10.9886C10.8739 11.0974 10.9316 11.2448 10.9316 11.3986C10.9316 11.5523 10.8739 11.6998 10.7712 11.8085C10.6685 11.9172 10.5292 11.9783 10.384 11.9783Z" fill="white"/>
<path d="M14.4196 15.1903C14.2744 15.1903 14.1352 15.1292 14.0326 15.0205C13.93 14.9118 13.8723 14.7643 13.8723 14.6105V6.31459C13.8723 6.16084 13.93 6.01338 14.0326 5.90466C14.1352 5.79594 14.2744 5.73486 14.4196 5.73486C14.5647 5.73486 14.7039 5.79594 14.8065 5.90466C14.9092 6.01338 14.9668 6.16084 14.9668 6.31459V14.6105C14.9668 14.7643 14.9092 14.9118 14.8065 15.0205C14.7039 15.1292 14.5647 15.1903 14.4196 15.1903Z" fill="white"/>
<path d="M15.1868 6.89433H13.6315C13.4863 6.89433 13.347 6.83325 13.2443 6.72453C13.1416 6.61581 13.0839 6.46835 13.0839 6.31459C13.0839 6.16084 13.1416 6.01338 13.2443 5.90466C13.347 5.79594 13.4863 5.73486 13.6315 5.73486H15.1704C15.3156 5.73486 15.4549 5.79594 15.5576 5.90466C15.6603 6.01338 15.718 6.16084 15.718 6.31459C15.718 6.46835 15.6603 6.61581 15.5576 6.72453C15.4549 6.83325 15.3156 6.89433 15.1704 6.89433H15.1868Z" fill="white"/>
<path d="M15.1868 15.283H13.6315C13.4863 15.283 13.347 15.2219 13.2443 15.1132C13.1416 15.0045 13.0839 14.857 13.0839 14.7033C13.0839 14.5495 13.1416 14.4021 13.2443 14.2933C13.347 14.1846 13.4863 14.1235 13.6315 14.1235H15.1704C15.3156 14.1235 15.4549 14.1846 15.5576 14.2933C15.6603 14.4021 15.718 14.5495 15.718 14.7033C15.718 14.857 15.6603 15.0045 15.5576 15.1132C15.4549 15.2219 15.3156 15.283 15.1704 15.283H15.1868Z" fill="white"/>
<path d="M12.2953 15.283H10.7564C10.6111 15.283 10.4719 15.2219 10.3691 15.1132C10.2664 15.0045 10.2087 14.857 10.2087 14.7033C10.2087 14.5495 10.2664 14.4021 10.3691 14.2933C10.4719 14.1846 10.6111 14.1235 10.7564 14.1235H12.2953C12.4405 14.1235 12.5798 14.1846 12.6825 14.2933C12.7852 14.4021 12.8429 14.5495 12.8429 14.7033C12.8429 14.857 12.7852 15.0045 12.6825 15.1132C12.5798 15.2219 12.4405 15.283 12.2953 15.283Z" fill="white"/>
<path d="M6.40793 15.283H4.86905C4.72381 15.283 4.58452 15.2219 4.48182 15.1132C4.37912 15.0045 4.32141 14.857 4.32141 14.7033C4.32141 14.5495 4.37912 14.4021 4.48182 14.2933C4.58452 14.1846 4.72381 14.1235 4.86905 14.1235H6.40245C6.54769 14.1235 6.687 14.1846 6.7897 14.2933C6.8924 14.4021 6.95009 14.5495 6.95009 14.7033C6.95009 14.857 6.8924 15.0045 6.7897 15.1132C6.687 15.2219 6.54769 15.283 6.40245 15.283H6.40793Z" fill="white"/>
<path d="M6.4245 3.78706L6.00282 3.4798L5.45517 3.08559L5.87137 2.32034L6.04116 2.00149C6.09511 1.90068 6.11929 1.78508 6.11058 1.66959C6.10188 1.5541 6.06068 1.44402 5.99231 1.35355C5.92394 1.26308 5.83153 1.19637 5.72701 1.16203C5.62248 1.12768 5.51063 1.12728 5.40589 1.16088L4.55703 1.43915C4.48142 1.46244 4.40034 1.45518 4.3295 1.41876C4.25867 1.38233 4.20314 1.31935 4.17369 1.24204L3.8451 0.366649C3.80473 0.258516 3.73457 0.165732 3.64375 0.100349C3.55292 0.0349654 3.44563 0 3.3358 0C3.22596 0 3.11866 0.0349654 3.02783 0.100349C2.93701 0.165732 2.86685 0.258516 2.82648 0.366649L2.49791 1.24204C2.46846 1.31935 2.41293 1.38233 2.34209 1.41876C2.27126 1.45518 2.19016 1.46244 2.11455 1.43915L1.26571 1.16088C1.16096 1.12728 1.0491 1.12768 0.944573 1.16203C0.840047 1.19637 0.747645 1.26308 0.679275 1.35355C0.610905 1.44402 0.569705 1.5541 0.560999 1.66959C0.552293 1.78508 0.576489 1.90068 0.630441 2.00149L1.07403 2.81891C1.11367 2.89183 1.12554 2.97802 1.10722 3.05989C1.0889 3.14176 1.04179 3.21315 0.975458 3.2595L0.247084 3.78706C0.152817 3.85257 0.0799491 3.9473 0.0384419 4.05829C-0.00306533 4.16929 -0.0111844 4.29114 0.0151777 4.40721C0.0415399 4.52327 0.101096 4.6279 0.185731 4.70678C0.270366 4.78567 0.37595 4.83498 0.488048 4.84797L1.36428 4.9871C1.44263 4.99996 1.51361 5.04337 1.56326 5.10881C1.61292 5.17424 1.63766 5.25698 1.63262 5.34074L1.56691 6.2799C1.55573 6.39816 1.57915 6.51719 1.63401 6.62089C1.68886 6.72458 1.77249 6.80793 1.87358 6.85963C1.94868 6.89814 2.0311 6.91797 2.11455 6.91761C2.25216 6.91868 2.38511 6.86486 2.48694 6.76687L2.80458 6.45382L3.13864 6.12918C3.1971 6.07296 3.27325 6.0418 3.35223 6.0418C3.43121 6.0418 3.50734 6.07296 3.5658 6.12918L3.89987 6.45382L4.2175 6.76687C4.29842 6.84471 4.3995 6.89511 4.50773 6.9116C4.61595 6.92809 4.72637 6.90992 4.82475 6.8594C4.92313 6.80889 5.00497 6.72836 5.05973 6.62818C5.1145 6.528 5.1397 6.41276 5.13207 6.29729L5.07182 5.35813C5.06661 5.27522 5.0906 5.1932 5.13914 5.1279C5.18768 5.0626 5.25734 5.01864 5.33469 5.0045L6.21092 4.86536C6.3207 4.84913 6.42323 4.79801 6.50499 4.71877C6.58674 4.63953 6.64385 4.5359 6.66877 4.42156C6.69369 4.30723 6.68527 4.18758 6.64459 4.07843C6.6039 3.96928 6.53288 3.87577 6.44093 3.81025L6.4245 3.78706ZM3.68628 4.67985C3.61433 4.60832 3.52546 4.5587 3.42906 4.53625C3.33265 4.5138 3.23231 4.51935 3.13864 4.55231C3.05786 4.57358 2.98405 4.61766 2.92507 4.67985L2.706 4.89435C2.72225 4.66396 2.65567 4.43558 2.51958 4.25497C2.3835 4.07435 2.18796 3.95484 1.97216 3.92039C2.08953 3.83768 2.1859 3.72568 2.25275 3.59425C2.3196 3.46282 2.35489 3.31602 2.35551 3.16675C2.35561 3.00791 2.31593 2.85188 2.24051 2.71456C2.4478 2.78065 2.67089 2.76263 2.8663 2.66402C3.06172 2.56541 3.21544 2.39328 3.29746 2.1812C3.37624 2.39305 3.52805 2.56535 3.72221 2.66328C3.91638 2.76121 4.13841 2.77746 4.34346 2.70876L4.19559 2.98123C4.16321 3.04614 4.14277 3.11696 4.13535 3.18994C4.11638 3.29918 4.12745 3.4119 4.16726 3.51468C4.20706 3.61746 4.27393 3.70596 4.35989 3.76967L4.60085 3.94359C4.38852 3.97927 4.19651 4.09788 4.0627 4.27602C3.92889 4.45416 3.86298 4.6789 3.87796 4.90594L3.68628 4.67985Z" fill="white"/>
</svg>
