<svg width="19" height="19" viewBox="0 0 19 19" fill="none" xmlns="http://www.w3.org/2000/svg">
<path d="M10.5607 0H3.57106C2.62481 0.00295672 1.71811 0.404788 1.049 1.11772C0.379899 1.83065 0.00277495 2.79675 0 3.80499V9.67778C0.0018184 10.4067 0.215027 11.1173 0.610442 11.7121C1.00586 12.307 1.56415 12.7571 2.20891 13.0008V14.4746C2.20793 14.6533 2.26267 14.8273 2.36451 14.9693C2.46636 15.1113 2.60956 15.2133 2.77165 15.2592C2.83977 15.2817 2.91071 15.293 2.98202 15.2928C3.11232 15.2917 3.24019 15.2551 3.35343 15.1865C3.46668 15.1178 3.56152 15.0194 3.62892 14.9005L4.59663 13.2194H4.83856C4.97804 13.2194 5.11182 13.1603 5.21045 13.0553C5.30908 12.9502 5.36449 12.8076 5.36449 12.659C5.36449 12.5104 5.30908 12.3678 5.21045 12.2628C5.11182 12.1577 4.97804 12.0986 4.83856 12.0986H4.44937C4.3154 12.0986 4.18366 12.1351 4.06672 12.2048C3.94979 12.2744 3.85156 12.3749 3.78143 12.4965L3.2555 13.4043V12.8439C3.25936 12.6688 3.21034 12.4969 3.11567 12.3537C3.02099 12.2104 2.88565 12.1033 2.72957 12.0482C2.25296 11.9076 1.83258 11.6048 1.53253 11.1859C1.23248 10.7671 1.06922 10.2551 1.06764 9.72821V3.80499C1.06763 3.09599 1.33087 2.41578 1.79991 1.91287C2.26894 1.40996 2.90567 1.1252 3.57106 1.12076H10.5659C11.2332 1.12225 11.8726 1.4057 12.3439 1.90893C12.8152 2.41216 13.0799 3.09406 13.0799 3.80499V5.2956C13.0799 5.44422 13.1353 5.58676 13.2339 5.69185C13.3326 5.79694 13.4663 5.85598 13.6058 5.85598C13.7453 5.85598 13.8791 5.79694 13.9777 5.69185C14.0763 5.58676 14.1317 5.44422 14.1317 5.2956V3.80499C14.1276 2.7972 13.75 1.83196 13.0812 1.11934C12.4124 0.406725 11.5065 0.0044234 10.5607 0Z" fill="#2C75E3"/>
<path d="M15.2257 18.4981C15.0458 18.4931 14.87 18.4389 14.7153 18.3408C14.5606 18.2427 14.4321 18.1039 14.3422 17.9377L13.9004 17.17C13.3474 17.2976 12.7832 17.3615 12.2174 17.3605C8.60426 17.3605 5.66431 14.8276 5.66431 11.7119C5.66431 8.59615 8.60426 6.06323 12.2174 6.06323C15.8305 6.06323 18.7705 8.59615 18.7705 11.7119C18.7459 12.6163 18.5037 13.4989 18.0672 14.275C17.6307 15.0511 17.0145 15.6949 16.2776 16.1445V17.3605C16.2761 17.6028 16.201 17.838 16.0635 18.031C15.9261 18.2239 15.7336 18.3642 15.515 18.4308C15.4219 18.467 15.3246 18.4897 15.2257 18.4981ZM14.0897 15.9988C14.2094 15.9989 14.327 16.032 14.4311 16.0948C14.5353 16.1577 14.6224 16.2481 14.684 16.3574L15.2573 17.3549V15.9371C15.2577 15.8075 15.2893 15.6802 15.3492 15.5673C15.409 15.4545 15.4951 15.3599 15.5991 15.2927C16.2217 14.9503 16.7484 14.4389 17.1261 13.8101C17.5038 13.1814 17.719 12.4576 17.7502 11.7119C17.7502 9.21257 15.2836 7.18399 12.249 7.18399C9.21434 7.18399 6.72669 9.23499 6.72669 11.7343C6.72669 14.2336 9.19331 16.2622 12.2279 16.2622C12.7952 16.2624 13.3603 16.189 13.9109 16.0436C13.9682 16.0198 14.0284 16.0047 14.0897 15.9988Z" fill="#2C75E3"/>
<path d="M4.06016 7.27945C4.50166 7.27945 4.85957 6.8981 4.85957 6.42768C4.85957 5.95725 4.50166 5.5759 4.06016 5.5759C3.61865 5.5759 3.26074 5.95725 3.26074 6.42768C3.26074 6.8981 3.61865 7.27945 4.06016 7.27945Z" fill="#2C75E3"/>
<path d="M7.34196 7.27945C7.78346 7.27945 8.14137 6.8981 8.14137 6.42768C8.14137 5.95725 7.78346 5.5759 7.34196 5.5759C6.90045 5.5759 6.54254 5.95725 6.54254 6.42768C6.54254 6.8981 6.90045 7.27945 7.34196 7.27945Z" fill="#2C75E3"/>
<path d="M8.93552 12.6534C9.37703 12.6534 9.73494 12.2721 9.73494 11.8016C9.73494 11.3312 9.37703 10.9499 8.93552 10.9499C8.49402 10.9499 8.13611 11.3312 8.13611 11.8016C8.13611 12.2721 8.49402 12.6534 8.93552 12.6534Z" fill="#2C75E3"/>
<path d="M15.5044 12.6534C15.9459 12.6534 16.3038 12.2721 16.3038 11.8016C16.3038 11.3312 15.9459 10.9499 15.5044 10.9499C15.0629 10.9499 14.705 11.3312 14.705 11.8016C14.705 12.2721 15.0629 12.6534 15.5044 12.6534Z" fill="#2C75E3"/>
<path d="M12.2173 12.6534C12.6588 12.6534 13.0167 12.2721 13.0167 11.8016C13.0167 11.3312 12.6588 10.9499 12.2173 10.9499C11.7758 10.9499 11.4179 11.3312 11.4179 11.8016C11.4179 12.2721 11.7758 12.6534 12.2173 12.6534Z" fill="#2C75E3"/>
</svg>
