<svg width="16" height="15" viewBox="0 0 16 15" fill="none" xmlns="http://www.w3.org/2000/svg">
<path d="M11.9274 14.969C11.6702 14.9686 11.4167 14.9049 11.1878 14.7831L8.43786 13.2769C8.38275 13.2465 8.32131 13.2306 8.25892 13.2306C8.19652 13.2306 8.13507 13.2465 8.07995 13.2769L5.33006 14.7831C5.06924 14.9246 4.77557 14.9877 4.48211 14.9653C4.18865 14.9429 3.90705 14.8357 3.66899 14.656C3.43094 14.4763 3.24589 14.2311 3.13467 13.948C3.02345 13.6649 2.99048 13.3552 3.03946 13.0537L3.56439 9.86777C3.57552 9.80425 3.57155 9.73886 3.55283 9.67729C3.53412 9.61572 3.50122 9.55983 3.45701 9.51446L1.22607 7.28926C1.0166 7.07503 0.868749 6.80436 0.799132 6.50765C0.729516 6.21094 0.740891 5.89993 0.831972 5.60956C0.923054 5.31919 1.09023 5.06097 1.31474 4.86387C1.53926 4.66678 1.81221 4.53863 2.10294 4.49381L5.18093 4.02894C5.24214 4.02003 5.3003 3.99557 5.35024 3.95773C5.40019 3.91989 5.44037 3.86983 5.46724 3.81199L6.84519 0.917366C6.97466 0.642344 7.17577 0.410574 7.42568 0.248408C7.67559 0.0862417 7.96428 0.000188014 8.25892 1.43344e-05C8.55385 -0.00127309 8.84311 0.0841843 9.09328 0.246516C9.34345 0.408848 9.54431 0.641424 9.67264 0.917366L11.0506 3.81199C11.0784 3.87029 11.1197 3.92058 11.1706 3.95841C11.2216 3.99624 11.2807 4.02047 11.3429 4.02894L14.4149 4.49381C14.7069 4.53645 14.9815 4.6634 15.2074 4.86023C15.4334 5.05706 15.6016 5.31585 15.693 5.60715C15.7844 5.89845 15.7952 6.21055 15.7243 6.50793C15.6533 6.80531 15.5035 7.07603 15.2917 7.28926L13.0668 9.54546C13.0215 9.59021 12.9875 9.64583 12.9677 9.70743C12.948 9.76903 12.9431 9.83474 12.9534 9.89877L13.4784 13.0847C13.5164 13.3195 13.5049 13.5601 13.4446 13.7898C13.3843 14.0195 13.2766 14.2328 13.1291 14.415C12.9816 14.5972 12.7977 14.7438 12.5902 14.8449C12.3827 14.9459 12.1566 14.9988 11.9274 15V14.969ZM8.25892 11.9938C8.51432 11.9935 8.76601 12.0573 8.99261 12.1798L11.7425 13.686C11.8035 13.7249 11.8737 13.7455 11.9453 13.7455C12.0169 13.7455 12.0871 13.7249 12.1481 13.686C12.2073 13.6432 12.2534 13.5836 12.2809 13.5144C12.3084 13.4451 12.3162 13.3691 12.3032 13.2955L11.7783 10.1095C11.7349 9.84767 11.7534 9.57878 11.8324 9.32607C11.9114 9.07337 12.0485 8.84445 12.2317 8.6591L14.4566 6.4029C14.5091 6.35175 14.5461 6.2858 14.5631 6.21314C14.58 6.14048 14.5762 6.06425 14.5521 5.99381C14.5323 5.92145 14.4923 5.85685 14.437 5.80826C14.3818 5.75968 14.3138 5.72933 14.2419 5.72108L11.1699 5.25621C10.9154 5.21937 10.6735 5.11814 10.4655 4.96143C10.2575 4.80472 10.0897 4.59732 9.97686 4.35745L8.59891 1.46282C8.56739 1.39549 8.51818 1.3388 8.45696 1.29931C8.39573 1.25983 8.325 1.23916 8.25295 1.23968C8.18089 1.23916 8.11016 1.25983 8.04893 1.29931C7.98771 1.3388 7.9385 1.39549 7.90698 1.46282L6.535 4.35745C6.42133 4.59667 6.2533 4.80352 6.04544 4.96012C5.83757 5.11671 5.59613 5.21833 5.34198 5.25621L2.26399 5.72108C2.19205 5.72933 2.12412 5.75968 2.06886 5.80826C2.01361 5.85685 1.97355 5.92145 1.95381 5.99381C1.9297 6.06425 1.92588 6.14048 1.94284 6.21314C1.95979 6.2858 1.99677 6.35175 2.04926 6.4029L4.27422 8.6591C4.45829 8.84382 4.59588 9.07267 4.67493 9.32557C4.75398 9.57846 4.77206 9.84766 4.72758 10.1095L4.20264 13.2955C4.18973 13.3691 4.1975 13.4451 4.225 13.5144C4.2525 13.5836 4.29857 13.6432 4.35774 13.686C4.41876 13.7249 4.48896 13.7455 4.56055 13.7455C4.63215 13.7455 4.70234 13.7249 4.76336 13.686L7.51328 12.1798C7.74371 12.0561 7.99956 11.9923 8.25892 11.9938Z" fill="#2C75E3"/>
</svg>
