<svg width="18" height="19" viewBox="0 0 18 19" fill="none" xmlns="http://www.w3.org/2000/svg">
<path d="M14.1721 18.2892H4.14331C3.18368 18.2892 2.26334 17.8906 1.58477 17.1812C0.906206 16.4717 0.524994 15.5095 0.524994 14.5062V7.91118C0.525244 7.34564 0.64799 6.7875 0.884032 6.27864C1.12007 5.76979 1.46328 5.32343 1.88789 4.97306L6.90529 0.818077C7.53754 0.288542 8.32348 0 9.13358 0C9.94368 0 10.7296 0.288542 11.3619 0.818077L16.3793 4.97306C16.8031 5.32375 17.1454 5.77032 17.3804 6.27921C17.6154 6.78811 17.737 7.34607 17.7361 7.91118V14.5314C17.7299 15.5206 17.3534 16.4679 16.6872 17.1703C16.021 17.8727 15.1181 18.2744 14.1721 18.2892ZM9.15469 1.26573C8.61741 1.26473 8.09601 1.45608 7.67721 1.80796L2.6598 5.96294C2.37746 6.19459 2.14927 6.4904 1.99254 6.82796C1.83581 7.16552 1.75465 7.53595 1.75522 7.91118V14.5314C1.75522 15.2003 2.00936 15.8418 2.46174 16.3147C2.91412 16.7877 3.52767 17.0534 4.16743 17.0534H14.1962C14.836 17.0534 15.4495 16.7877 15.9019 16.3147C16.3543 15.8418 16.6084 15.2003 16.6084 14.5314V7.91118C16.6102 7.53639 16.5301 7.16613 16.3744 6.82853C16.2187 6.49094 15.9914 6.1949 15.7099 5.96294L10.6925 1.80796C10.2576 1.44218 9.71258 1.24999 9.15469 1.26573Z" fill="#2C75E3"/>
<path d="M11.2714 15.8491C11.1115 15.8491 10.9581 15.7827 10.845 15.6645C10.7319 15.5462 10.6684 15.3859 10.6684 15.2186V11.1835H7.6531V15.2186C7.6531 15.3859 7.58956 15.5462 7.47647 15.6645C7.36337 15.7827 7.20998 15.8491 7.05004 15.8491C6.8901 15.8491 6.73672 15.7827 6.62362 15.6645C6.51053 15.5462 6.44699 15.3859 6.44699 15.2186V10.553C6.44699 10.3857 6.51053 10.2254 6.62362 10.1071C6.73672 9.98888 6.8901 9.92245 7.05004 9.92245H11.2714C11.4314 9.92245 11.5847 9.98888 11.6978 10.1071C11.8109 10.2254 11.8745 10.3857 11.8745 10.553V15.2186C11.8745 15.3859 11.8109 15.5462 11.6978 15.6645C11.5847 15.7827 11.4314 15.8491 11.2714 15.8491Z" fill="#2C75E3"/>
</svg>
