<svg width="17" height="17" viewBox="0 0 17 17" fill="none" xmlns="http://www.w3.org/2000/svg">
<path d="M10.0937 0H7.4979C6.90821 0 6.34268 0.24798 5.9257 0.689386C5.50873 1.13079 5.27448 1.72946 5.27448 2.35371V3.86101H6.25474V2.35371C6.25474 2.00468 6.38573 1.66996 6.61886 1.42316C6.852 1.17636 7.1682 1.03771 7.4979 1.03771H10.0937C10.4234 1.03771 10.7396 1.17636 10.9728 1.42316C11.2059 1.66996 11.3369 2.00468 11.3369 2.35371V3.86101H12.3172V2.35371C12.3172 1.72946 12.0829 1.13079 11.6659 0.689386C11.249 0.24798 10.6834 0 10.0937 0Z" fill="#2C75E3"/>
<path d="M14.1354 2.81738H3.45635C2.77269 2.81891 2.11746 3.10709 1.63404 3.61883C1.15062 4.13057 0.8784 4.82421 0.876953 5.54792V13.3279C0.876953 14.0521 1.1487 14.7466 1.63244 15.2587C2.11617 15.7708 2.77225 16.0584 3.45635 16.0584H14.1354C14.8195 16.0584 15.4756 15.7708 15.9593 15.2587C16.443 14.7466 16.7148 14.0521 16.7148 13.3279V5.54792C16.7133 4.82421 16.4411 4.13057 15.9577 3.61883C15.4743 3.10709 14.819 2.81891 14.1354 2.81738ZM15.7345 13.3279C15.7345 13.7769 15.566 14.2074 15.2661 14.5249C14.9662 14.8424 14.5595 15.0207 14.1354 15.0207H3.45635C3.03223 15.0207 2.62549 14.8424 2.3256 14.5249C2.0257 14.2074 1.85722 13.7769 1.85722 13.3279V5.54792C1.85648 5.23224 1.94002 4.92275 2.09819 4.65513C2.29258 4.33419 2.5812 4.08977 2.91965 3.95945C3.0954 3.89315 3.28072 3.8598 3.46729 3.8609H14.1463C14.3061 3.85951 14.4651 3.88494 14.6173 3.93626C14.9595 4.04603 15.2566 4.27481 15.4607 4.58556C15.6474 4.86744 15.7469 5.20367 15.7455 5.54792L15.7345 13.3279Z" fill="#2C75E3"/>
<path d="M15.6087 3.98815L15.4499 4.56788L13.8617 10.5159C13.8495 10.5555 13.8349 10.5943 13.8179 10.6319C13.5941 11.0695 13.265 11.4367 12.864 11.6963C12.4629 11.9559 12.0042 12.0987 11.5342 12.1102H6.19472C5.72452 12.0999 5.26534 11.9576 4.8641 11.6978C4.46287 11.4381 4.13397 11.0702 3.91104 10.6319C3.89364 10.6012 3.88072 10.568 3.87272 10.5333L2.08192 4.65484L1.84644 3.878L2.7829 3.56494L2.90338 3.95916L4.78728 10.1623C4.92783 10.4296 5.13129 10.6539 5.3779 10.8133C5.62452 10.9728 5.9059 11.0621 6.19472 11.0725H11.5123C11.7995 11.0641 12.0795 10.9762 12.3246 10.8175C12.5696 10.6588 12.7711 10.4349 12.9088 10.1681L14.5901 3.93597L14.6503 3.70408L15.6087 3.98815Z" fill="#2C75E3"/>
<path d="M10.0774 9.14191C10.0781 9.21015 10.0661 9.27787 10.0419 9.34114C10.0177 9.40441 9.98194 9.46196 9.93661 9.51049C9.89128 9.55902 9.8373 9.59754 9.77781 9.62384C9.71831 9.65013 9.65449 9.66366 9.59002 9.66366H7.88136C7.81264 9.67136 7.74316 9.66368 7.67743 9.64111C7.6117 9.61855 7.5512 9.5816 7.49983 9.53267C7.44846 9.48374 7.40738 9.42393 7.37926 9.35711C7.35114 9.29029 7.33661 9.21795 7.33661 9.1448C7.33661 9.07165 7.35114 8.99932 7.37926 8.93249C7.40738 8.86567 7.44846 8.80586 7.49983 8.75693C7.5512 8.708 7.6117 8.67106 7.67743 8.64849C7.74316 8.62593 7.81264 8.61825 7.88136 8.62595H9.59002C9.71929 8.62595 9.84325 8.6803 9.93465 8.77706C10.0261 8.87382 10.0774 9.00506 10.0774 9.14191Z" fill="#2C75E3"/>
</svg>
