<svg width="17" height="17" viewBox="0 0 17 17" fill="none" xmlns="http://www.w3.org/2000/svg">
<path d="M12.3999 16.5463H4.49198C3.47274 16.5463 2.49484 16.1197 1.77156 15.3595C1.04829 14.5993 0.638332 13.5671 0.631104 12.4882V4.0879C0.638332 3.00897 1.04829 1.97682 1.77156 1.2166C2.49484 0.456376 3.47274 0.029758 4.49198 0.0297852H9.38243L16.2608 7.7518V12.4882C16.2536 13.5671 15.8436 14.5993 15.1204 15.3595C14.3971 16.1197 13.4192 16.5463 12.3999 16.5463ZM4.49198 1.16026C3.76365 1.16173 3.06515 1.46667 2.54759 2.00914C2.03002 2.5516 1.73502 3.28796 1.72639 4.05891V12.4302C1.72784 13.2062 2.01967 13.95 2.53801 14.4987C3.05635 15.0474 3.75894 15.3563 4.49198 15.3579H12.3999C13.133 15.3563 13.8356 15.0474 14.3539 14.4987C14.8723 13.95 15.1641 13.2062 15.1656 12.4302V8.15181L8.91146 1.16026H4.49198Z" fill="white"/>
<path d="M15.7133 8.52283H15.6804L12.0386 8.30253C11.0165 8.23828 10.0602 7.74748 9.37955 6.93779C8.69887 6.12811 8.34936 5.06566 8.40772 3.98354L8.59393 0.545741C8.60047 0.432613 8.63819 0.32399 8.70243 0.233318C8.76667 0.142646 8.8546 0.0738988 8.95536 0.0355749C9.05574 -0.00346755 9.16471 -0.0105524 9.26884 0.0152026C9.37297 0.0409577 9.46771 0.0984257 9.54134 0.180508L16.1131 7.54889C16.1872 7.63125 16.2369 7.73489 16.2558 7.8469C16.2747 7.95892 16.2621 8.07434 16.2194 8.1788C16.1768 8.28325 16.1061 8.37213 16.0161 8.43434C15.9261 8.49655 15.8208 8.52934 15.7133 8.52863V8.52283ZM9.50301 4.04731C9.47856 4.43137 9.52662 4.81675 9.64438 5.18093C9.76214 5.54512 9.94724 5.88083 10.1889 6.16847C10.4305 6.45612 10.7239 6.68993 11.0518 6.85627C11.3797 7.0226 11.7357 7.11813 12.0988 7.13728L14.3661 7.27642L9.59611 1.95448L9.50301 4.04731Z" fill="white"/>
<path d="M8.21038 8.98661H4.02091C3.87567 8.98661 3.73636 8.92553 3.63366 8.81681C3.53096 8.70809 3.47327 8.56063 3.47327 8.40688C3.47327 8.25313 3.53096 8.10567 3.63366 7.99695C3.73636 7.88823 3.87567 7.82715 4.02091 7.82715H8.21038C8.35562 7.82715 8.49491 7.88823 8.59761 7.99695C8.70031 8.10567 8.75802 8.25313 8.75802 8.40688C8.75802 8.56063 8.70031 8.70809 8.59761 8.81681C8.49491 8.92553 8.35562 8.98661 8.21038 8.98661Z" fill="white"/>
<path d="M6.77011 11.3406H4.0319C3.88665 11.3406 3.74736 11.2795 3.64466 11.1708C3.54196 11.0621 3.48425 10.9146 3.48425 10.7609C3.48425 10.6071 3.54196 10.4597 3.64466 10.351C3.74736 10.2422 3.88665 10.1812 4.0319 10.1812H6.77011C6.91536 10.1812 7.05466 10.2422 7.15736 10.351C7.26007 10.4597 7.31775 10.6071 7.31775 10.7609C7.31775 10.9146 7.26007 11.0621 7.15736 11.1708C7.05466 11.2795 6.91536 11.3406 6.77011 11.3406Z" fill="white"/>
<path d="M6.77011 13.6941H4.0319C3.88665 13.6941 3.74736 13.6331 3.64466 13.5243C3.54196 13.4156 3.48425 13.2682 3.48425 13.1144C3.48425 12.9606 3.54196 12.8132 3.64466 12.7045C3.74736 12.5957 3.88665 12.5347 4.0319 12.5347H6.77011C6.91536 12.5347 7.05466 12.5957 7.15736 12.7045C7.26007 12.8132 7.31775 12.9606 7.31775 13.1144C7.31775 13.2682 7.26007 13.4156 7.15736 13.5243C7.05466 13.6331 6.91536 13.6941 6.77011 13.6941Z" fill="white"/>
</svg>
