<svg width="17" height="16" viewBox="0 0 17 16" fill="none" xmlns="http://www.w3.org/2000/svg">
<path d="M12.5607 15.8981H4.4892C3.51529 15.8966 2.58169 15.4703 1.89303 14.7127C1.20438 13.9551 0.816859 12.9281 0.81543 11.8567V2.79332C0.816857 2.05297 1.08484 1.34339 1.56073 0.819882C2.03661 0.296374 2.68165 0.00157413 3.35466 3.91907e-06H6.19102C6.57171 -0.000698308 6.94765 0.092978 7.29092 0.274068C7.63418 0.455157 7.93594 0.719001 8.17377 1.04601L8.96254 2.12173C9.09892 2.3082 9.27174 2.45846 9.46815 2.56135C9.66457 2.66425 9.87954 2.71712 10.0971 2.71605H12.5607C13.5346 2.71763 14.4682 3.14392 15.1568 3.90149C15.8455 4.65906 16.233 5.68609 16.2344 6.75745V11.8508C16.2344 12.9232 15.8476 13.9517 15.1587 14.7106C14.4699 15.4695 13.5355 15.8966 12.5607 15.8981ZM3.37626 1.18865C2.98939 1.18865 2.61837 1.35771 2.34481 1.65864C2.07125 1.95958 1.91756 2.36773 1.91756 2.79332V11.8567C1.91899 12.6129 2.19266 13.3376 2.67868 13.8722C3.1647 14.4069 3.82348 14.7079 4.51081 14.7095H12.5823C13.2696 14.7079 13.9284 14.4069 14.4144 13.8722C14.9004 13.3376 15.1741 12.6129 15.1755 11.8567V6.76339C15.1741 6.00728 14.9004 5.28259 14.4144 4.74793C13.9284 4.21328 13.2696 3.91222 12.5823 3.91065H10.1133C9.73389 3.9116 9.35915 3.81861 9.01685 3.63856C8.67456 3.45852 8.37348 3.19604 8.13595 2.87058L7.34717 1.78891C7.20945 1.60264 7.0356 1.45259 6.83836 1.34976C6.64113 1.24693 6.42549 1.19392 6.20722 1.19459L3.37626 1.18865Z" fill="white"/>
<path d="M8.49266 13.8416C8.17264 13.8418 7.85572 13.7726 7.56001 13.638C7.2643 13.5034 6.99559 13.306 6.76923 13.0571L4.31646 10.3649C4.00513 10.0192 3.7608 9.60765 3.59829 9.15509C3.43577 8.70253 3.35846 8.21839 3.37101 7.732C3.37869 7.29327 3.46854 6.861 3.63493 6.46219C3.80132 6.06338 4.04068 5.7066 4.33807 5.41414C4.8856 4.87337 5.5958 4.57483 6.33163 4.57615C6.73228 4.57154 7.12975 4.65483 7.50081 4.82116C7.87186 4.9875 8.20905 5.23354 8.49266 5.5449L8.52508 5.58055C9.15113 4.94726 9.97635 4.6063 10.8266 4.62963C11.225 4.63769 11.6176 4.73576 11.98 4.91775C12.3425 5.09973 12.6671 5.36175 12.9336 5.68753C13.4242 6.29286 13.6953 7.07553 13.6954 7.88653C13.6969 8.32209 13.6194 8.75361 13.4672 9.15573C13.3151 9.55786 13.0914 9.92247 12.8093 10.2282L10.2431 13.0512C10.0144 13.3052 9.74153 13.5061 9.44083 13.6419C9.14013 13.7777 8.81769 13.8456 8.49266 13.8416ZM6.33163 5.76479C5.85989 5.76586 5.40469 5.95602 5.05121 6.29968C4.86583 6.48544 4.71699 6.711 4.61385 6.96244C4.51072 7.21389 4.45547 7.4859 4.45153 7.76172C4.44258 8.08594 4.49405 8.40874 4.60276 8.71025C4.71146 9.01177 4.87511 9.28563 5.08363 9.51497L7.5364 12.2132C7.66233 12.3518 7.81183 12.4616 7.97637 12.5366C8.14091 12.6116 8.31727 12.6502 8.49537 12.6502C8.67347 12.6502 8.84982 12.6116 9.01436 12.5366C9.1789 12.4616 9.3284 12.3518 9.45433 12.2132L12.0206 9.39017C12.3695 9.00788 12.5722 8.49325 12.5873 7.95179C12.6024 7.41032 12.4286 6.88303 12.1016 6.47798C11.9325 6.27276 11.7267 6.10822 11.4971 5.99469C11.2674 5.88117 11.0189 5.8211 10.7672 5.81828C10.4724 5.80844 10.179 5.86506 9.9049 5.98464C9.63081 6.10423 9.38187 6.28425 9.17339 6.51364L8.49266 7.26843L7.69848 6.38883C7.51957 6.19041 7.30661 6.03307 7.07197 5.92594C6.83732 5.81882 6.58567 5.76404 6.33163 5.76479Z" fill="white"/>
<path d="M8.49209 11.0661C8.34891 11.0661 8.21158 11.0034 8.11034 10.892C8.00909 10.7805 7.95221 10.6294 7.95221 10.4717V8.51642C7.95221 8.35879 8.00909 8.20763 8.11034 8.09617C8.21158 7.98471 8.34891 7.9221 8.49209 7.9221C8.63528 7.9221 8.7726 7.98471 8.87385 8.09617C8.9751 8.20763 9.03198 8.35879 9.03198 8.51642V10.4717C9.03198 10.6294 8.9751 10.7805 8.87385 10.892C8.7726 11.0034 8.63528 11.0661 8.49209 11.0661Z" fill="white"/>
<path d="M9.38397 10.0916H7.61191C7.46863 10.0916 7.33121 10.029 7.22989 9.9175C7.12857 9.80604 7.07166 9.65487 7.07166 9.49725C7.07166 9.33962 7.12857 9.18845 7.22989 9.077C7.33121 8.96554 7.46863 8.90292 7.61191 8.90292H9.38397C9.52725 8.90292 9.66467 8.96554 9.76599 9.077C9.86731 9.18845 9.92423 9.33962 9.92423 9.49725C9.92423 9.65487 9.86731 9.80604 9.76599 9.9175C9.66467 10.029 9.52725 10.0916 9.38397 10.0916Z" fill="white"/>
</svg>
