<svg width="14" height="12" viewBox="0 0 14 12" fill="none" xmlns="http://www.w3.org/2000/svg">
<path d="M13.8504 3.17125C13.7108 2.32421 13.2762 1.54894 12.619 0.974191C11.9617 0.399438 11.1214 0.0597842 10.2374 0.0116354C9.62119 -0.0361341 9.00235 0.0636618 8.43537 0.302229C7.86839 0.540797 7.37069 0.910814 6.98611 1.37967C6.60153 0.910814 6.10383 0.540797 5.53685 0.302229C4.96987 0.0636618 4.35103 -0.0361341 3.73485 0.0116354C2.85086 0.0597842 2.01046 0.399438 1.35322 0.974191C0.695986 1.54894 0.261455 2.32421 0.121786 3.17125C-0.0705876 4.12065 -0.0346637 5.10021 0.226773 6.03399C0.488209 6.96776 0.968132 7.83065 1.62932 8.55574C3.42329 10.7027 6.24239 12.0075 7.00118 12.0075C7.75998 12.0075 10.5791 10.7027 12.373 8.55574C13.029 7.82807 13.5034 6.96399 13.7595 6.03033C14.0157 5.09666 14.0468 4.11842 13.8504 3.17125ZM11.7298 7.75732C10.0866 9.84588 7.42329 11.0046 6.99112 11.0338C6.55896 11.063 3.8856 9.84588 2.2474 7.75732C1.72988 7.15683 1.35861 6.45113 1.16113 5.6926C0.963655 4.93406 0.945052 4.14218 1.10671 3.37573C1.19903 2.737 1.51772 2.14925 2.00819 1.71315C2.49866 1.27706 3.13038 1.01975 3.79515 0.985323C4.36089 0.923127 4.9321 1.04165 5.42192 1.32287C5.91174 1.60408 6.29336 2.03259 6.50872 2.54322C6.52048 2.57487 6.53745 2.60447 6.55897 2.63086L6.61424 2.70388L6.6846 2.75743C6.71361 2.77839 6.74582 2.79482 6.78008 2.80612C6.78008 2.80612 6.78007 2.80612 6.8052 2.80612C6.83032 2.80612 6.84541 2.80612 6.86048 2.80612C6.89562 2.80848 6.93087 2.80848 6.966 2.80612C6.99945 2.80883 7.03307 2.80883 7.06651 2.80612C7.08654 2.80847 7.10678 2.80847 7.12681 2.80612C7.12681 2.80612 7.12681 2.80612 7.15696 2.80612C7.18806 2.79465 7.21693 2.77819 7.24238 2.75743C7.26917 2.74189 7.29442 2.72396 7.31777 2.70388L7.37304 2.63086C7.39456 2.60447 7.41153 2.57487 7.42329 2.54322C7.63865 2.03259 8.02027 1.60408 8.51009 1.32287C8.99991 1.04165 9.57112 0.923127 10.1369 0.985323C10.8016 1.01975 11.4334 1.27706 11.9238 1.71315C12.4143 2.14925 12.733 2.737 12.8253 3.37573C12.992 4.13897 12.9801 4.92869 12.7906 5.68691C12.601 6.44512 12.2385 7.15257 11.7298 7.75732Z" fill="#231F20"/>
</svg>
