<svg width="16" height="17" viewBox="0 0 16 17" fill="none" xmlns="http://www.w3.org/2000/svg">
<path d="M12.3512 7.83079C11.6473 7.83079 10.9591 7.60116 10.3738 7.17093C9.78851 6.7407 9.33232 6.12919 9.06293 5.41375C8.79354 4.6983 8.72305 3.91105 8.86038 3.15154C8.99772 2.39203 9.33671 1.69437 9.83447 1.14679C10.3322 0.599215 10.9664 0.226312 11.6568 0.075236C12.3473 -0.0758403 13.0629 0.00169348 13.7133 0.29804C14.3636 0.594387 14.9195 1.09623 15.3106 1.74012C15.7017 2.384 15.9104 3.141 15.9104 3.91539C15.9104 4.95382 15.5355 5.94972 14.868 6.684C14.2005 7.41828 13.2952 7.83079 12.3512 7.83079ZM12.3512 1.2673C11.8737 1.2673 11.407 1.42314 11.0101 1.71509C10.6131 2.00704 10.3039 2.42197 10.1214 2.90737C9.93895 3.39276 9.89151 3.9268 9.98508 4.44187C10.0786 4.95694 10.309 5.4299 10.647 5.80087C10.9851 6.17184 11.4156 6.42416 11.884 6.52586C12.3524 6.62757 12.8378 6.5741 13.2786 6.37223C13.7194 6.17036 14.0958 5.82915 14.3603 5.39181C14.6247 4.95447 14.7653 4.44065 14.7642 3.91539C14.7672 3.56469 14.707 3.21681 14.5871 2.89185C14.4672 2.56689 14.2899 2.27129 14.0656 2.02213C13.8412 1.77296 13.5742 1.57518 13.2799 1.44021C12.9857 1.30524 12.67 1.23576 12.3512 1.23577V1.2673Z" fill="white"/>
<path d="M13.9331 16.7019L1.52454 16.6578C1.2703 16.6595 1.01979 16.5905 0.796325 16.4571C0.572858 16.3237 0.383694 16.1303 0.246426 15.8949C0.108445 15.659 0.0262113 15.389 0.00719366 15.1093C-0.011824 14.8297 0.0329761 14.5492 0.137528 14.2934L3.57639 5.92669C3.68064 5.67192 3.84984 5.45589 4.06348 5.30481C4.27712 5.15373 4.52602 5.07408 4.77999 5.07552C5.03396 5.07408 5.28287 5.15373 5.49651 5.30481C5.71015 5.45589 5.87935 5.67192 5.98359 5.92669L8.62006 12.3136L10.265 9.4827C10.3838 9.27562 10.5483 9.10501 10.7433 8.98678C10.9382 8.86855 11.1571 8.80655 11.3797 8.80655C11.6023 8.80655 11.8213 8.86855 12.0162 8.98678C12.2112 9.10501 12.3757 9.27562 12.4945 9.4827L15.2169 14.1358C15.3648 14.3881 15.4478 14.6797 15.4573 14.9798C15.4667 15.2798 15.4022 15.577 15.2707 15.84C15.1391 16.103 14.9453 16.322 14.7098 16.4737C14.4744 16.6254 14.206 16.7043 13.9331 16.7019ZM4.80292 6.33652C4.76881 6.33502 4.73512 6.3451 4.7064 6.36541C4.67769 6.38571 4.65536 6.41525 4.64244 6.45L1.20358 14.8167C1.17904 14.8797 1.16901 14.9483 1.17439 15.0166C1.17977 15.0849 1.20038 15.1506 1.2344 15.208C1.26843 15.2654 1.3148 15.3126 1.36942 15.3456C1.42403 15.3785 1.48518 15.3961 1.54746 15.3968H13.9331C14 15.397 14.0658 15.3774 14.1235 15.3401C14.1811 15.3027 14.2286 15.249 14.2608 15.1845C14.2931 15.1199 14.309 15.0471 14.3068 14.9735C14.3046 14.8999 14.2844 14.8283 14.2483 14.7663L11.5775 10.1573C11.5617 10.1297 11.5396 10.1071 11.5135 10.0916C11.4874 10.0762 11.4581 10.0684 11.4285 10.0691C11.3989 10.069 11.3698 10.077 11.3438 10.0924C11.3178 10.1078 11.2957 10.1301 11.2794 10.1573L9.01311 14.0722C8.80546 14.4308 8.27665 14.3957 8.11831 14.0127L4.99206 6.45C4.97914 6.41525 4.95681 6.38571 4.92809 6.36541C4.89938 6.3451 4.86568 6.33502 4.83158 6.33652H4.80292Z" fill="white"/>
<path d="M0.573144 9.67186C0.421137 9.67186 0.275355 9.60543 0.16787 9.48719C0.0603842 9.36895 0 9.20858 0 9.04136V3.61908C0.00151529 2.66311 0.347401 1.74676 0.961889 1.07078C1.57638 0.3948 2.40937 0.0143012 3.27838 0.0126343H7.72025C7.87226 0.0126343 8.01804 0.0790611 8.12552 0.197302C8.23301 0.315544 8.29339 0.475914 8.29339 0.643132C8.29339 0.810351 8.23301 0.970721 8.12552 1.08896C8.01804 1.2072 7.87226 1.27363 7.72025 1.27363H3.27838C2.71338 1.27529 2.17196 1.52293 1.77244 1.96243C1.37292 2.40193 1.1478 2.99754 1.14629 3.61908V9.04136C1.14629 9.20858 1.0859 9.36895 0.978418 9.48719C0.870933 9.60543 0.725151 9.67186 0.573144 9.67186Z" fill="white"/>
</svg>
