<svg width="17" height="17" viewBox="0 0 17 17" fill="none" xmlns="http://www.w3.org/2000/svg">
<path d="M9.27489 13.3597L8.40962 10.461L8.25628 9.95667L7.82912 8.51315C7.83168 8.49586 7.83168 8.47825 7.82912 8.46097L7.44576 7.18556V9.0581H6.98026L7.28694 10.0958L8.35485 13.6901C8.41424 13.88 8.4366 14.0807 8.4206 14.28C8.4046 14.4793 8.35057 14.6731 8.26176 14.8496C8.17799 15.0244 8.06147 15.1793 7.9193 15.3049C7.77713 15.4305 7.61228 15.5241 7.43481 15.5801C7.07895 15.6986 6.69326 15.6633 6.36187 15.4819C6.03049 15.3006 5.78031 14.9878 5.66592 14.6119L4.33515 10.1132V10.0726L3.97371 9.05229C3.51379 8.98906 3.08054 8.78791 2.72508 8.47256L3.23439 9.92769L3.40416 10.4031L4.74041 14.9192C4.8344 15.2372 4.98698 15.5323 5.18934 15.7875C5.39171 16.0427 5.63984 16.2529 5.9194 16.406C6.19896 16.5591 6.50441 16.652 6.8181 16.6794C7.13178 16.7068 7.44749 16.6681 7.74698 16.5656C8.35071 16.3619 8.85348 15.9131 9.14505 15.3175C9.43661 14.722 9.49315 14.0283 9.30228 13.3887L9.27489 13.3597ZM5.64949 5.31303C5.64639 5.33805 5.64639 5.36339 5.64949 5.3884L5.91237 5.96813H5.9726C6.09366 5.95457 6.20569 5.89405 6.28712 5.79825C6.36854 5.70245 6.4136 5.57814 6.4136 5.44927C6.4136 5.3204 6.36854 5.19609 6.28712 5.10029C6.20569 5.00449 6.09366 4.94397 5.9726 4.93041H5.42497C5.51994 5.04341 5.59588 5.17283 5.64949 5.31303ZM5.71522 3.72457C5.41222 3.49077 5.06168 3.33542 4.69171 3.27099C4.32174 3.20655 3.94266 3.23483 3.58488 3.35354C3.15124 3.49512 2.76548 3.76633 2.47401 4.13453C2.18254 4.50273 1.99778 4.95224 1.94196 5.42898C2.12115 4.92758 2.44039 4.49588 2.85718 4.19139C3.27397 3.88689 3.7685 3.72405 4.27491 3.72457H5.71522Z" fill="#2C75E3"/>
<path d="M7.91129 2.70417H4.25851C3.42716 2.69878 2.62141 3.00836 1.98685 3.57696C1.3523 4.14556 0.930804 4.93568 0.798528 5.80455C0.666252 6.67341 0.831919 7.56371 1.2656 8.31456C1.69928 9.0654 2.37236 9.62727 3.16322 9.89863C3.51671 10.0209 3.88663 10.0816 4.25851 10.0783H7.91129C8.03363 10.0783 8.15128 10.0285 8.23987 9.93921C8.29022 9.89204 8.33044 9.83401 8.35783 9.76901C8.38523 9.70402 8.39917 9.63356 8.3987 9.56239V3.22013C8.3987 3.08329 8.34734 2.95206 8.25594 2.8553C8.16453 2.75853 8.04055 2.70417 7.91129 2.70417ZM4.25851 9.04063C4.14913 9.04933 4.03929 9.04933 3.92992 9.04063C3.47 8.97739 3.03676 8.77624 2.68129 8.46089C2.39189 8.21383 2.15852 7.90122 1.99835 7.54605C1.83818 7.19088 1.75528 6.80222 1.75577 6.40865C1.75603 6.0852 1.81362 5.76466 1.92555 5.46369C2.10474 4.96229 2.42399 4.53059 2.84077 4.2261C3.25756 3.9216 3.7521 3.75877 4.25851 3.75929H7.41841V9.05803L4.25851 9.04063Z" fill="#2C75E3"/>
<path d="M10.5018 3.22021H11.9311C11.9287 3.30244 11.9075 3.38281 11.8693 3.45448C11.8312 3.52615 11.7772 3.587 11.7121 3.63183L11.5478 3.74197L10.0418 4.7681C9.9629 4.82032 9.87191 4.84841 9.77889 4.84926C9.73015 4.86021 9.67978 4.86021 9.63103 4.84926C9.52236 4.81583 9.4289 4.74163 9.36816 4.64055C9.33275 4.58325 9.30847 4.51906 9.29673 4.45172C9.28499 4.38438 9.28603 4.31523 9.29979 4.24832C9.31355 4.18141 9.33976 4.11807 9.37688 4.06199C9.41401 4.00591 9.4613 3.95822 9.51602 3.92169L9.63103 3.84053V3.77096H9.73507L10.5018 3.22021Z" fill="#2C75E3"/>
<path d="M9.51595 3.89307C9.46124 3.9296 9.41394 3.9773 9.37682 4.03338C9.3397 4.08946 9.31349 4.15279 9.29972 4.2197C9.28596 4.28661 9.28493 4.35576 9.29667 4.4231C9.3084 4.49044 9.33268 4.55463 9.3681 4.61193C9.42884 4.71301 9.5223 4.78721 9.63097 4.82064V3.81191L9.51595 3.89307ZM9.13808 2.70462C9.07361 2.70386 9.00964 2.71663 8.94988 2.74222C8.89011 2.7678 8.83573 2.80569 8.78988 2.85368C8.74404 2.90167 8.70766 2.95881 8.68282 3.02179C8.65799 3.08477 8.6452 3.15234 8.6452 3.22058V3.38291L9.74049 2.70462H9.13808ZM8.6452 9.38892V9.56284C8.6452 9.63109 8.65799 9.69866 8.68282 9.76164C8.70766 9.82462 8.74404 9.88176 8.78988 9.92974C8.83573 9.97773 8.89011 10.0156 8.94988 10.0412C9.00964 10.0668 9.07361 10.0796 9.13808 10.0788H9.77335L8.6452 9.38892ZM11.8599 2.91333C11.797 2.81186 11.7018 2.73776 11.5915 2.70462H11.2958L11.1808 2.7568L10.5017 3.22058L9.73501 3.74234H11.5477L11.712 3.6322C11.7772 3.58737 11.8311 3.52652 11.8693 3.45485C11.9074 3.38318 11.9286 3.3028 11.9311 3.22058C11.9395 3.1127 11.9145 3.00485 11.8599 2.91333ZM14.4338 3.11043C14.1226 2.94653 13.7905 2.83132 13.448 2.76839V3.8351C13.802 3.92935 14.1363 4.09252 14.4338 4.31627C14.7744 4.52964 15.0565 4.83324 15.2526 5.19717C15.4486 5.56109 15.5517 5.97279 15.5517 6.39171C15.5517 6.81064 15.4486 7.22233 15.2526 7.58626C15.0565 7.95018 14.7744 8.25378 14.4338 8.46715C14.1363 8.6909 13.802 8.85408 13.448 8.94833V10.015C13.7905 9.9521 14.1226 9.83689 14.4338 9.67299C15.0524 9.4098 15.5825 8.95667 15.9558 8.3719C16.3292 7.78714 16.5287 7.0975 16.5287 6.39171C16.5287 5.68592 16.3292 4.99628 15.9558 4.41152C15.5825 3.82676 15.0524 3.37363 14.4338 3.11043Z" fill="#2C75E3"/>
<path d="M13.5576 0.252341C13.2929 0.0871357 12.9913 0 12.6841 0C12.3769 0 12.0752 0.0871357 11.8106 0.252341L7.80184 2.7046L7.67589 2.77997C7.60097 2.82438 7.53862 2.88918 7.49529 2.96766C7.45197 3.04614 7.42923 3.13545 7.42944 3.22635V9.54543C7.42939 9.63707 7.45215 9.72711 7.49541 9.80649C7.53867 9.88587 7.60092 9.95179 7.67589 9.99761L7.80732 10.0788L8.40973 10.444L11.8106 12.5252C12.0758 12.6887 12.3772 12.7748 12.6841 12.7748C12.991 12.7748 13.2924 12.6887 13.5576 12.5252C13.8246 12.3634 14.0464 12.1295 14.2003 11.8474C14.3542 11.5654 14.4348 11.2451 14.4338 10.9194V1.835C14.4315 1.51307 14.3494 1.19741 14.1956 0.919656C14.0418 0.641897 13.8218 0.411782 13.5576 0.252341ZM13.448 10.9194C13.4495 11.062 13.4147 11.2024 13.3472 11.3258C13.2798 11.4492 13.1822 11.5511 13.0647 11.6209C12.9491 11.6951 12.8165 11.7343 12.6813 11.7343C12.5462 11.7343 12.4136 11.6951 12.298 11.6209L9.77336 10.0788L8.64521 9.3715L8.41521 9.23237V3.51622L8.64521 3.37709L9.7405 2.69881L12.2816 1.14512C12.3984 1.0737 12.531 1.03619 12.6659 1.03638C12.8009 1.03657 12.9334 1.07446 13.0501 1.14621C13.1667 1.21797 13.2635 1.32105 13.3305 1.44505C13.3975 1.56904 13.4323 1.70955 13.4316 1.85239L13.448 10.9194Z" fill="#2C75E3"/>
<path d="M6.48747 5.45828C6.48747 5.59512 6.43611 5.72635 6.34471 5.82311C6.2533 5.91987 6.12934 5.97424 6.00007 5.97424H4.0176C3.89654 5.96067 3.78451 5.90016 3.70308 5.80436C3.62166 5.70856 3.5766 5.58425 3.5766 5.45538C3.5766 5.32651 3.62166 5.2022 3.70308 5.1064C3.78451 5.0106 3.89654 4.95009 4.0176 4.93652H6.00007C6.06454 4.93652 6.12836 4.95005 6.18786 4.97634C6.24735 5.00263 6.30133 5.04116 6.34666 5.08968C6.39199 5.13821 6.42778 5.19578 6.45195 5.25905C6.47612 5.32232 6.48819 5.39003 6.48747 5.45828Z" fill="#2C75E3"/>
<path d="M11.9311 3.22017C11.9287 3.3024 11.9075 3.38277 11.8693 3.45444C11.8312 3.52611 11.7772 3.58696 11.7121 3.63179L11.5478 3.74193L10.0418 4.76805C9.9629 4.82028 9.87191 4.84837 9.77889 4.84922C9.73015 4.86017 9.67978 4.86017 9.63104 4.84922C9.52236 4.81579 9.4289 4.74159 9.36816 4.64051C9.33275 4.58321 9.30847 4.51902 9.29673 4.45168C9.28499 4.38434 9.28603 4.31519 9.29979 4.24828C9.31355 4.18137 9.33976 4.11803 9.37688 4.06195C9.41401 4.00587 9.4613 3.95818 9.51602 3.92165L9.63104 3.84049L9.73507 3.77092L10.5018 3.24916L11.1809 2.78538L11.2959 2.7332C11.3917 2.69831 11.4958 2.69831 11.5916 2.7332C11.7018 2.76634 11.7971 2.84044 11.8599 2.94191C11.909 3.02522 11.9338 3.12202 11.9311 3.22017Z" fill="#2C75E3"/>
</svg>
