<svg width="17" height="16" viewBox="0 0 17 16" fill="none" xmlns="http://www.w3.org/2000/svg">
<path d="M6.16175 16C5.96445 16.0003 5.76907 15.9588 5.58706 15.8778C5.2548 15.7321 4.93223 15.5626 4.62158 15.3704C4.31047 15.1878 4.01099 14.9836 3.72507 14.7591C3.51917 14.5846 3.3584 14.3573 3.25786 14.0985C3.15732 13.8397 3.12034 13.558 3.15039 13.2798L3.32854 11.5622C3.33777 11.4749 3.32042 11.3869 3.27904 11.3109C3.23765 11.235 3.17442 11.1752 3.09867 11.1404L1.61023 10.4435C1.36957 10.3281 1.16017 10.1499 1.00145 9.92554C0.842729 9.70115 0.739813 9.43778 0.702225 9.15984C0.607396 8.40112 0.607396 7.6324 0.702225 6.87368C0.739813 6.59573 0.842729 6.33237 1.00145 6.10798C1.16017 5.88359 1.36957 5.70543 1.61023 5.59L2.18492 5.30882L3.07568 4.89315C3.15241 4.85743 3.21652 4.7968 3.25885 4.71993C3.30118 4.64306 3.31954 4.55391 3.3113 4.46526L3.13315 2.74758C3.1031 2.4694 3.14008 2.18766 3.24062 1.92887C3.34116 1.67009 3.50193 1.44277 3.70783 1.2683C4.27826 0.798083 4.90671 0.413462 5.57557 0.125215C5.82008 0.0167818 6.0869 -0.0222068 6.34984 0.0120846C6.61279 0.046376 6.86285 0.152765 7.0755 0.320818L8.38004 1.34165C8.44772 1.39384 8.52919 1.42194 8.61279 1.42194C8.69639 1.42194 8.77785 1.39384 8.84553 1.34165L10.1501 0.320818C10.3642 0.156007 10.614 0.0516185 10.8763 0.0174105C11.1387 -0.0167976 11.4048 0.0202964 11.65 0.125215C11.9841 0.270809 12.3086 0.440308 12.6212 0.632565C12.9352 0.821555 13.2349 1.03615 13.5177 1.2744C13.7228 1.4483 13.883 1.67463 13.9835 1.93225C14.084 2.18987 14.1215 2.47038 14.0924 2.74758L13.9143 4.46526C13.9056 4.55321 13.9231 4.64185 13.9643 4.71863C14.0056 4.79542 14.0685 4.85646 14.1441 4.89315L15.6268 5.59C15.8734 5.69967 16.0889 5.87569 16.2521 6.10075C16.4153 6.32582 16.5207 6.59219 16.5578 6.87368C16.6555 7.63424 16.6555 8.4054 16.5578 9.16596C16.5213 9.44346 16.4195 9.70665 16.2617 9.93108C16.104 10.1555 15.8955 10.3339 15.6556 10.4496L14.1441 11.1159C14.0674 11.1516 14.0033 11.2123 13.961 11.2891C13.9186 11.366 13.9003 11.4552 13.9085 11.5438L14.0867 13.2615C14.1162 13.5396 14.0789 13.8212 13.9784 14.0799C13.878 14.3385 13.7175 14.5659 13.512 14.7408C12.941 15.2085 12.3126 15.591 11.6443 15.8778C11.4002 15.9833 11.1348 16.0207 10.8733 15.9865C10.6118 15.9522 10.3628 15.8475 10.1501 15.6821L8.83979 14.6613C8.77299 14.6096 8.69251 14.5818 8.60991 14.5818C8.52731 14.5818 8.44684 14.6096 8.38004 14.6613L7.06975 15.6821C6.80626 15.8875 6.48839 15.9987 6.16175 16ZM6.16175 1.20105C6.10882 1.20234 6.05643 1.21266 6.00658 1.23162C5.43489 1.47925 4.89744 1.80826 4.40895 2.20965C4.35573 2.25403 4.31407 2.31215 4.28791 2.37849C4.26176 2.44482 4.25199 2.51717 4.25954 2.58865L4.43194 4.30633C4.46904 4.65211 4.40085 5.00142 4.2374 5.30291C4.07396 5.6044 3.82388 5.84215 3.52394 5.98121L2.62743 6.40299L2.05274 6.68419C1.99049 6.7128 1.93645 6.75839 1.89608 6.81635C1.85572 6.87432 1.83046 6.94259 1.82286 7.01427C1.7395 7.66328 1.7395 8.32133 1.82286 8.97034C1.83411 9.04153 1.86142 9.10876 1.90246 9.16625C1.9435 9.22375 1.99704 9.26979 2.05849 9.30044L3.54118 9.99728C3.84219 10.1354 4.0935 10.3727 4.25803 10.6743C4.42256 10.9759 4.49158 11.3257 4.45493 11.6722L4.27678 13.3899C4.26923 13.4613 4.279 13.5337 4.30515 13.6C4.33131 13.6664 4.37297 13.7245 4.42619 13.7689C4.67116 13.9683 4.92843 14.1501 5.19627 14.3129C5.46517 14.4779 5.74348 14.6249 6.02957 14.753C6.0922 14.7775 6.15953 14.7853 6.22566 14.7758C6.29178 14.7662 6.35469 14.7394 6.40886 14.698L7.7134 13.6833C7.97722 13.4763 8.29645 13.3646 8.62428 13.3646C8.95212 13.3646 9.27133 13.4763 9.53516 13.6833L10.8454 14.7041C10.9005 14.7461 10.9647 14.7726 11.0321 14.7812C11.0994 14.7897 11.1676 14.78 11.2305 14.753C11.801 14.5055 12.3383 14.1787 12.8281 13.7811C12.8805 13.7359 12.9216 13.6777 12.9477 13.6116C12.9737 13.5455 12.984 13.4735 12.9775 13.4021L12.7994 11.6844C12.7642 11.3373 12.8338 10.9873 12.9981 10.6851C13.1623 10.3829 13.4128 10.1441 13.7131 10.0034L15.2016 9.30656C15.2632 9.27694 15.3166 9.23106 15.3568 9.17329C15.3971 9.11552 15.4228 9.04776 15.4314 8.97646C15.5177 8.32766 15.5177 7.66919 15.4314 7.02039C15.4217 6.94945 15.3957 6.88218 15.3555 6.82458C15.3154 6.76698 15.2625 6.72084 15.2016 6.69029L13.7131 5.99344C13.4133 5.8525 13.1636 5.61348 13.0003 5.31115C12.8369 5.00882 12.7686 4.65895 12.8051 4.31244L12.9948 2.59476C13.0022 2.52268 12.9918 2.44977 12.9646 2.38329C12.9374 2.31681 12.8943 2.25906 12.8396 2.21577C12.5986 2.01157 12.3431 1.82763 12.0753 1.66562C11.8088 1.50146 11.5324 1.35648 11.2477 1.23162C11.1839 1.20463 11.1147 1.19496 11.0465 1.2035C10.9783 1.21204 10.9131 1.23851 10.8569 1.28052L9.54665 2.30135C9.28319 2.50927 8.96383 2.62153 8.63577 2.62153C8.30771 2.62153 7.98836 2.50927 7.7249 2.30135L6.41461 1.28052C6.34214 1.22706 6.25567 1.19926 6.16749 1.20105H6.16175ZM8.52371 10.7919C7.84411 10.7664 7.19505 10.4853 6.69195 9.99864C6.18885 9.51199 5.86433 8.85132 5.77608 8.13411C5.68783 7.41691 5.84158 6.68966 6.20999 6.08168C6.57839 5.4737 7.13758 5.02441 7.78811 4.81369C8.33306 4.66541 8.90692 4.69052 9.43857 4.8859C9.97023 5.08128 10.4363 5.43835 10.7789 5.91282C11.1216 6.38729 11.3258 6.95828 11.3662 7.55504C11.4067 8.15179 11.2815 8.74806 11.0064 9.26988C10.629 9.96507 10.0098 10.4745 9.28229 10.688C9.03644 10.7561 8.78351 10.791 8.52945 10.7919H8.52371ZM8.52371 5.90175C8.26291 5.9052 8.00623 5.97154 7.77302 6.09578C7.53981 6.22002 7.33615 6.39893 7.17736 6.61902C7.01857 6.83912 6.9088 7.09467 6.85632 7.36643C6.80383 7.63819 6.81001 7.91906 6.87436 8.18791C6.93049 8.41928 7.02956 8.63637 7.16577 8.82639C7.30197 9.0164 7.47253 9.17549 7.66742 9.29432C8.0608 9.53486 8.52747 9.60076 8.96622 9.47771C9.34961 9.34561 9.67736 9.07481 9.89256 8.71239C10.1078 8.34997 10.1968 7.91882 10.1442 7.49383C10.0916 7.06884 9.90073 6.67687 9.60469 6.38603C9.30865 6.09518 8.92617 5.92384 8.52371 5.90175Z" fill="#2C75E3"/>
</svg>
