<svg width="24" height="23" viewBox="0 0 24 23" fill="none" xmlns="http://www.w3.org/2000/svg">
<path d="M17.8578 22.9525C17.4467 22.9518 17.0415 22.8541 16.6756 22.6674L12.2805 20.3579C12.1924 20.3113 12.0943 20.2869 11.9945 20.2869C11.8948 20.2869 11.7966 20.3113 11.7085 20.3579L7.31347 22.6674C6.89662 22.8844 6.42726 22.9812 5.95824 22.9468C5.48921 22.9124 5.03914 22.7481 4.65867 22.4726C4.27819 22.197 3.98244 21.821 3.80468 21.387C3.62692 20.9529 3.57422 20.478 3.65251 20.0157L4.49149 15.1306C4.50927 15.0332 4.50292 14.9329 4.47301 14.8385C4.44311 14.7441 4.39053 14.6584 4.31986 14.5888L0.75425 11.1769C0.419457 10.8484 0.183158 10.4334 0.0718928 9.9784C-0.0393725 9.52344 -0.0211925 9.04656 0.12438 8.60133C0.269952 8.1561 0.537141 7.76015 0.89597 7.45794C1.2548 7.15573 1.69105 6.95923 2.15571 6.89051L7.07512 6.1777C7.17296 6.16405 7.26591 6.12654 7.34573 6.06852C7.42555 6.01049 7.48977 5.93374 7.53272 5.84505L9.73504 1.40663C9.94196 0.984928 10.2634 0.629546 10.6628 0.380892C11.0622 0.132237 11.5236 0.000288287 11.9945 2.19795e-05C12.4659 -0.00195206 12.9282 0.129083 13.3281 0.377991C13.7279 0.6269 14.0489 0.983517 14.254 1.40663L16.4563 5.84505C16.5008 5.93445 16.5667 6.01155 16.6482 6.06956C16.7297 6.12757 16.8242 6.16472 16.9235 6.1777L21.8333 6.89051C22.3 6.95589 22.7389 7.15055 23.1 7.45235C23.4612 7.75416 23.7301 8.15098 23.8761 8.59763C24.0221 9.04429 24.0394 9.52284 23.9261 9.97883C23.8127 10.4348 23.5732 10.8499 23.2348 11.1769L19.6787 14.6364C19.6064 14.705 19.552 14.7903 19.5204 14.8847C19.4888 14.9792 19.481 15.0799 19.4976 15.1781L20.3366 20.0632C20.3974 20.4232 20.3789 20.7921 20.2826 21.1443C20.1862 21.4965 20.0141 21.8236 19.7783 22.103C19.5426 22.3823 19.2487 22.6072 18.9171 22.7621C18.5854 22.917 18.224 22.9982 17.8578 23V22.9525ZM11.9945 18.3905C12.4027 18.3901 12.805 18.4879 13.1672 18.6756L17.5622 20.9851C17.6598 21.0448 17.7719 21.0764 17.8864 21.0764C18.0008 21.0764 18.113 21.0448 18.2105 20.9851C18.3051 20.9195 18.3787 20.8282 18.4227 20.722C18.4666 20.6159 18.479 20.4994 18.4584 20.3864L17.6194 15.5012C17.55 15.0998 17.5797 14.6875 17.7059 14.3C17.8322 13.9125 18.0512 13.5615 18.344 13.2773L21.9001 9.81778C21.9839 9.73936 22.0431 9.63823 22.0702 9.52681C22.0973 9.4154 22.0912 9.29852 22.0526 9.19051C22.0211 9.07955 21.957 8.9805 21.8687 8.906C21.7804 8.83151 21.6719 8.78497 21.5569 8.77232L16.647 8.05951C16.2403 8.00303 15.8537 7.84782 15.5212 7.60753C15.1887 7.36724 14.9206 7.04922 14.7403 6.68142L12.5379 2.243C12.4876 2.13976 12.4089 2.05283 12.3111 1.99228C12.2132 1.93174 12.1002 1.90004 11.985 1.90085C11.8698 1.90004 11.7568 1.93174 11.6589 1.99228C11.5611 2.05283 11.4824 2.13976 11.432 2.243L9.23927 6.68142C9.05761 7.04822 8.78905 7.3654 8.45683 7.60551C8.1246 7.84562 7.73872 8.00145 7.33252 8.05951L2.41311 8.77232C2.29813 8.78497 2.18956 8.83151 2.10124 8.906C2.01293 8.9805 1.94891 9.07955 1.91737 9.19051C1.87883 9.29852 1.87273 9.4154 1.89982 9.52681C1.92692 9.63823 1.98603 9.73936 2.06991 9.81778L5.62598 13.2773C5.92016 13.5605 6.14007 13.9114 6.26641 14.2992C6.39274 14.687 6.42164 15.0997 6.35055 15.5012L5.51157 20.3864C5.49094 20.4994 5.50335 20.6159 5.5473 20.722C5.59125 20.8282 5.66489 20.9195 5.75946 20.9851C5.85699 21.0448 5.96918 21.0764 6.0836 21.0764C6.19803 21.0764 6.31022 21.0448 6.40775 20.9851L10.8028 18.6756C11.1711 18.486 11.58 18.3881 11.9945 18.3905Z" fill="#2C75E3"/>
</svg>
