<svg width="22" height="19" viewBox="0 0 22 19" fill="none" xmlns="http://www.w3.org/2000/svg">
<path d="M8.10475 9.35826L7.97561 9.98297L7.85579 10.567L7.17086 13.8479L7.04778 14.4394L6.93262 15.0031L6.92051 15.0695C6.92134 15.0645 6.92092 15.0594 6.91927 15.0546C6.91763 15.0498 6.91482 15.0456 6.91114 15.0423C6.77969 14.9079 6.60919 14.8244 6.42711 14.8054C6.28151 14.7804 6.13214 14.7962 5.99375 14.8512L5.83949 14.9115L5.98124 14.2386L6.10386 13.6288L6.81256 10.2645L6.94032 9.65268L7.09235 8.9758C7.2022 9.16384 7.37238 9.30337 7.57179 9.3689C7.74555 9.427 7.93269 9.42327 8.10475 9.35826Z" fill="#2C75E3"/>
<path d="M12.8694 9.16965L13.4853 9.34892C13.3156 9.46689 13.1907 9.64479 13.133 9.85085C13.0621 10.0503 13.0611 10.2699 13.1301 10.4695L12.5405 10.2985L11.9943 10.1352L10.6981 9.75869L9.60251 9.43962L9.05634 9.27635L8.49287 9.11367C8.62631 8.96606 8.70864 8.77494 8.72632 8.57169C8.74612 8.42345 8.73029 8.27246 8.68027 8.13276C8.6544 8.05962 8.62062 7.98994 8.57962 7.92509L9.2324 8.12697L9.8099 8.29652L11.4012 8.76772L12.2929 9.03678L12.8694 9.16965Z" fill="#2C75E3"/>
<path d="M16.0867 3.60255L15.9449 4.27541L15.8115 4.87091L15.0244 8.34615L14.8896 8.95454L14.7427 9.62942C14.6309 9.45625 14.4687 9.32683 14.2806 9.26094C14.0926 9.19504 13.8892 9.19627 13.7013 9.26445L13.8426 8.64117L13.9727 8.05312L14.7468 4.60768L14.8853 4.01019L14.9068 3.90301L15.0294 3.3611C15.0743 3.41957 15.1257 3.47206 15.1824 3.51745C15.2813 3.59825 15.3948 3.65685 15.5159 3.68972C15.6879 3.73654 15.8696 3.72592 16.0362 3.65931L16.0867 3.60255Z" fill="#2C75E3"/>
<path d="M7.33516 7.00346C7.0967 7.09963 6.88597 7.26036 6.72402 7.4696C6.56206 7.67883 6.45456 7.92924 6.41227 8.19579C6.36997 8.46234 6.39434 8.7357 6.48297 8.98855C6.57159 9.24139 6.72136 9.46487 6.9173 9.63665C7.06865 9.76262 7.24155 9.85648 7.42659 9.91312C7.60278 9.9669 7.78709 9.98496 7.96988 9.96636C8.09081 9.95147 8.20974 9.92158 8.32421 9.87731C8.62729 9.75924 8.88355 9.53491 9.05038 9.24162C9.1519 9.07682 9.22128 8.89224 9.25439 8.6988C9.28665 8.49543 9.28241 8.28758 9.24188 8.08621C9.22128 8.02633 9.20067 7.96646 9.17819 7.90114C9.04413 7.52489 8.77594 7.22006 8.43129 7.05219C8.08664 6.88433 7.69305 6.86683 7.33516 7.00346ZM8.67992 8.11435C8.72995 8.25405 8.7458 8.40504 8.726 8.55329C8.70831 8.75653 8.62599 8.94765 8.49254 9.09526C8.39696 9.20877 8.27681 9.29599 8.14251 9.34935L8.10652 9.36341C7.92581 9.42889 7.72971 9.42709 7.55063 9.35831C7.35123 9.29278 7.18105 9.15324 7.0712 8.96521C7.04157 8.90505 7.01953 8.84101 7.00564 8.77471C6.93069 8.55566 6.93389 8.31481 7.01464 8.09739C7.0954 7.87998 7.24815 7.70099 7.44418 7.59407C7.64021 7.48714 7.86603 7.45963 8.07919 7.51672C8.29235 7.57381 8.47817 7.71156 8.60174 7.90408C8.63513 7.97083 8.66134 8.04136 8.67992 8.11435Z" fill="#2C75E3"/>
<path d="M7.14771 6.45937C6.79462 6.59884 6.48533 6.84079 6.25524 7.15748C6.02516 7.47418 5.8836 7.85281 5.84679 8.25C5.80998 8.64719 5.8794 9.04688 6.04711 9.40325C6.21482 9.75963 6.47403 10.0583 6.79503 10.265C6.95666 10.366 7.13047 10.4435 7.31178 10.4953C7.48838 10.5487 7.67179 10.5728 7.85556 10.5669C8.08132 10.5656 8.30526 10.522 8.51703 10.4381C8.98674 10.2486 9.37184 9.87746 9.59455 9.39964C9.68095 9.22575 9.74261 9.03935 9.77751 8.84651C9.81495 8.65039 9.82834 8.45006 9.81736 8.25051C9.8005 8.05557 9.76001 7.86386 9.69689 7.6801C9.50825 7.16301 9.1358 6.74567 8.65931 6.51749C8.18282 6.28931 7.6402 6.26845 7.14771 6.45937ZM8.6798 8.11455C8.72982 8.25425 8.74567 8.40524 8.72587 8.55348C8.70819 8.75673 8.62586 8.94785 8.49242 9.09546C8.39684 9.20897 8.27669 9.29619 8.14239 9.34955L8.10639 9.36361C7.92569 9.42909 7.72959 9.42729 7.55051 9.35851C7.35111 9.29298 7.18092 9.15344 7.07107 8.9654C7.04145 8.90525 7.01941 8.84121 7.00551 8.77491C6.93057 8.55586 6.93376 8.315 7.01452 8.09759C7.09528 7.88018 7.24803 7.70119 7.44406 7.59427C7.64008 7.48734 7.86591 7.45983 8.07906 7.51692C8.29222 7.57401 8.47804 7.71175 8.60161 7.90428C8.635 7.97103 8.66122 8.04156 8.6798 8.11455Z" fill="#2C75E3"/>
<path d="M14.8821 8.93303C14.7346 8.80818 14.5642 8.71708 14.3817 8.66544C14.2041 8.60974 14.0176 8.59232 13.8333 8.61422C13.7158 8.62773 13.6003 8.65628 13.4892 8.69924C13.2461 8.79295 13.0316 8.95578 12.8695 9.16983C12.7453 9.32222 12.6537 9.5013 12.601 9.69464C12.5011 10.0147 12.5071 10.3609 12.6179 10.676C12.6931 10.902 12.817 11.1061 12.9799 11.272C13.1427 11.4379 13.3399 11.5612 13.5559 11.6319C13.7719 11.7026 14.0007 11.7189 14.2241 11.6795C14.4475 11.6401 14.6594 11.546 14.8429 11.4047C15.0264 11.2634 15.1765 11.0789 15.2812 10.8657C15.386 10.6526 15.4425 10.4166 15.4463 10.1767C15.4501 9.93676 15.4011 9.69941 15.3032 9.48353C15.2052 9.26764 15.0611 9.07915 14.8821 8.93303ZM14.2872 11.0179C14.0617 11.106 13.8129 11.0961 13.5951 10.9903C13.3773 10.8845 13.2081 10.6915 13.1246 10.4533C13.0556 10.2537 13.0566 10.0342 13.1275 9.83471C13.1852 9.62864 13.3101 9.45074 13.4798 9.33277C13.5392 9.2894 13.6034 9.25394 13.6709 9.2272C13.8588 9.15903 14.0622 9.15779 14.2503 9.22369C14.4383 9.28958 14.6006 9.419 14.7123 9.59217C14.7533 9.65702 14.7871 9.72669 14.8129 9.79983C14.8556 9.91697 14.876 10.042 14.873 10.1677C14.8701 10.2934 14.8438 10.4174 14.7956 10.5325C14.7475 10.6476 14.6785 10.7517 14.5925 10.8387C14.5066 10.9257 14.4054 10.994 14.2947 11.0397L14.2872 11.0179Z" fill="#2C75E3"/>
<path d="M15.0169 8.3248C14.8585 8.22628 14.689 8.14937 14.5123 8.09589C14.3334 8.04574 14.1486 8.02233 13.9634 8.02633C13.7376 8.02762 13.5137 8.07121 13.3019 8.15511C12.8919 8.31532 12.5416 8.61257 12.3042 9.00187C12.205 9.16971 12.126 9.34995 12.0689 9.5384C12.0145 9.72669 11.9875 9.92256 11.9888 10.1192C11.9813 10.3775 12.0203 10.6347 12.1038 10.877C12.2122 11.197 12.3916 11.4843 12.627 11.7148C12.8624 11.9453 13.1469 12.1121 13.4564 12.2012C13.7659 12.2904 14.0915 12.2993 14.4055 12.2271C14.7196 12.1549 15.013 12.0038 15.2611 11.7865C15.5091 11.5692 15.7044 11.2921 15.8307 10.9785C15.9569 10.6649 16.0103 10.3241 15.9864 9.98471C15.9624 9.64534 15.8619 9.31738 15.6931 9.0285C15.5244 8.73962 15.2925 8.49827 15.0169 8.3248ZM14.8134 9.81833C14.8748 10.0517 14.8508 10.3013 14.7463 10.5174C14.6417 10.7336 14.4642 10.9003 14.2493 10.9843C14.0344 11.0682 13.7979 11.0633 13.587 10.9704C13.3761 10.8775 13.2063 10.7036 13.1116 10.4833C13.0425 10.2837 13.0436 10.0641 13.1145 9.86467C13.1722 9.65861 13.297 9.4807 13.4667 9.36273C13.5261 9.31936 13.5903 9.2839 13.6579 9.25716C13.8457 9.18898 14.0492 9.18776 14.2372 9.25365C14.4252 9.31955 14.5875 9.44895 14.6993 9.62212C14.7442 9.68267 14.7826 9.74851 14.8134 9.81833Z" fill="#2C75E3"/>
<path d="M15.2246 1.28424C14.9801 1.37987 14.7641 1.54336 14.5993 1.75758C14.4345 1.9718 14.3269 2.22885 14.2878 2.50177C14.2487 2.77469 14.2796 3.05344 14.3771 3.30876C14.4747 3.56409 14.6353 3.78658 14.8422 3.95293C14.8422 3.95293 14.8423 3.95294 14.8554 3.99104C15.0061 4.10638 15.1772 4.18857 15.3586 4.23283C15.5409 4.27675 15.7295 4.28469 15.9149 4.25626C16.0085 4.22916 16.0996 4.19353 16.1874 4.14979C16.5272 3.9914 16.7978 3.70181 16.9439 3.34007C17.0901 2.97834 17.1008 2.5717 16.974 2.20307C16.8471 1.83445 16.5922 1.53161 16.2612 1.35629C15.9302 1.18098 15.5481 1.1464 15.1928 1.25961L15.2246 1.28424ZM16.0866 3.60258L16.03 3.62469C15.8634 3.69129 15.6817 3.70192 15.5097 3.6551C15.3886 3.62223 15.2752 3.56362 15.1762 3.48282C15.0389 3.37256 14.9346 3.2225 14.8759 3.05063C14.816 2.8755 14.8058 2.68543 14.8465 2.50378C14.8871 2.32212 14.9769 2.1568 15.1048 2.02812C15.2327 1.89944 15.393 1.81303 15.5662 1.77948C15.7394 1.74592 15.9179 1.7667 16.0797 1.83926C16.2415 1.91182 16.3795 2.03301 16.4769 2.18792C16.5743 2.34283 16.6267 2.52471 16.6278 2.71123C16.6289 2.89774 16.5786 3.08076 16.483 3.23779C16.3874 3.39482 16.2508 3.51903 16.0899 3.59514L16.0866 3.60258Z" fill="#2C75E3"/>
<path d="M15.0372 0.739987C14.5395 0.934461 14.1342 1.33028 13.9105 1.84036C13.6867 2.35045 13.6629 2.93302 13.8442 3.45991C13.9739 3.84615 14.2056 4.18427 14.512 4.43398L14.743 4.59687C14.9051 4.69215 15.0788 4.76347 15.2593 4.80887C15.4394 4.85353 15.6245 4.87258 15.8096 4.86553C16.0995 4.85362 16.3838 4.77509 16.6428 4.63535C16.9018 4.49562 17.1294 4.29802 17.3096 4.05623C17.4899 3.81445 17.6187 3.53424 17.687 3.235C17.7553 2.93576 17.7616 2.62463 17.7053 2.32314C17.649 2.02164 17.5316 1.73698 17.3612 1.48884C17.1907 1.24071 16.9713 1.03502 16.7181 0.886013C16.4649 0.737005 16.1839 0.648235 15.8947 0.625841C15.6054 0.603447 15.3148 0.647963 15.0428 0.756315L15.0372 0.739987ZM16.0866 3.60262L16.03 3.62472C15.8634 3.69133 15.6817 3.70195 15.5097 3.65514C15.3886 3.62227 15.2751 3.56365 15.1762 3.48285C15.0389 3.3726 14.9346 3.22254 14.8758 3.05066C14.816 2.87553 14.8058 2.68547 14.8464 2.50381C14.8871 2.32216 14.9769 2.15683 15.1048 2.02816C15.2326 1.89948 15.393 1.81306 15.5662 1.77951C15.7394 1.74596 15.9179 1.76674 16.0797 1.8393C16.2414 1.91186 16.3795 2.03304 16.4769 2.18795C16.5743 2.34286 16.6267 2.52475 16.6278 2.71126C16.6289 2.89778 16.5786 3.0808 16.483 3.23783C16.3874 3.39486 16.2508 3.51907 16.0898 3.59518L16.0866 3.60262Z" fill="#2C75E3"/>
<path d="M7.23466 14.5761C7.03188 14.401 6.79068 14.283 6.53318 14.2327C6.34195 14.1987 6.14606 14.2059 5.9572 14.254L5.78237 14.3223C5.51348 14.4286 5.27999 14.6168 5.11137 14.8632C4.94275 15.1096 4.84656 15.4032 4.83496 15.7068C4.82336 16.0105 4.89687 16.3106 5.04619 16.5692C5.19551 16.8279 5.41395 17.0335 5.67394 17.1602C5.93394 17.2868 6.22383 17.3288 6.50699 17.2808C6.79016 17.2328 7.05391 17.097 7.26496 16.8905C7.476 16.684 7.62486 16.4161 7.69276 16.1206C7.76066 15.8251 7.74455 15.5153 7.64645 15.2303C7.56393 14.9784 7.42223 14.7533 7.23466 14.5761ZM6.60376 16.675C6.41846 16.7514 6.21412 16.757 6.02591 16.6909C5.97922 16.6791 5.93401 16.6615 5.89123 16.6385C5.85959 16.6247 5.83084 16.6045 5.80658 16.579C5.63495 16.4722 5.50482 16.3043 5.4393 16.105C5.36635 15.8954 5.36552 15.6649 5.43697 15.454C5.50841 15.2431 5.64757 15.0654 5.82996 14.952L5.9842 14.8918C6.1226 14.8368 6.27198 14.821 6.41758 14.8459C6.59966 14.865 6.77014 14.9484 6.90159 15.0829C6.90527 15.0861 6.90809 15.0904 6.90973 15.0951C6.91137 15.0999 6.91179 15.1051 6.91096 15.1101C7.01041 15.2067 7.08607 15.3276 7.13137 15.4624C7.20119 15.6952 7.18474 15.9478 7.08537 16.169C6.98599 16.3901 6.81113 16.5633 6.59627 16.6533L6.60376 16.675Z" fill="#2C75E3"/>
<path d="M7.54675 14.127C7.42448 14.0213 7.29146 13.9304 7.15013 13.8559C6.81306 13.6948 6.44255 13.6271 6.0733 13.6592C5.90657 13.6798 5.74261 13.721 5.58481 13.7821C5.21422 13.9282 4.89231 14.1872 4.65972 14.5264C4.42713 14.8657 4.2943 15.27 4.27801 15.6883C4.26172 16.1066 4.36271 16.5201 4.5682 16.8766C4.7737 17.2331 5.07449 17.5166 5.43259 17.6913C5.79069 17.8659 6.19003 17.9239 6.58016 17.858C6.9703 17.792 7.33371 17.605 7.62453 17.3206C7.91535 17.0362 8.12052 16.6672 8.21411 16.2601C8.3077 15.8531 8.28552 15.4262 8.15037 15.0335C8.03034 14.6787 7.82174 14.3655 7.54675 14.127ZM6.57574 16.6614C6.39044 16.7378 6.1861 16.7434 5.99789 16.6773C5.95119 16.6655 5.906 16.6479 5.86322 16.6249C5.83158 16.6111 5.80282 16.5909 5.77856 16.5654C5.60693 16.4586 5.47679 16.2907 5.41127 16.0914C5.33832 15.8818 5.33751 15.6513 5.40896 15.4404C5.4804 15.2295 5.61954 15.0518 5.80194 14.9384L5.95618 14.8782C6.09457 14.8232 6.24396 14.8074 6.38956 14.8323C6.57164 14.8514 6.74213 14.9348 6.87359 15.0693C6.87727 15.0725 6.88006 15.0768 6.8817 15.0815C6.88335 15.0863 6.88378 15.0915 6.88295 15.0965C6.9824 15.1931 7.05804 15.314 7.10335 15.4488C7.17864 15.6797 7.16815 15.9326 7.07399 16.1563C6.97982 16.3801 6.80904 16.5578 6.59631 16.6534L6.57574 16.6614Z" fill="#2C75E3"/>
</svg>

