<svg width="21" height="17" viewBox="0 0 21 17" fill="none" xmlns="http://www.w3.org/2000/svg">
<path d="M15.1374 6.56296C14.5243 6.56296 13.925 6.3705 13.4152 6.00993C12.9054 5.64935 12.5081 5.13686 12.2735 4.53725C12.0389 3.93763 11.9775 3.27784 12.0971 2.64129C12.2167 2.00475 12.5119 1.42005 12.9455 0.961126C13.379 0.502203 13.9313 0.189671 14.5326 0.0630546C15.1339 -0.0635618 15.7572 0.00142027 16.3236 0.249787C16.8901 0.498154 17.3742 0.918748 17.7148 1.45838C18.0554 1.99802 18.2372 2.63247 18.2372 3.28148C18.2372 4.15178 17.9107 4.98643 17.3293 5.60183C16.748 6.21722 15.9595 6.56296 15.1374 6.56296ZM15.1374 1.09383C14.7287 1.09383 14.3291 1.22213 13.9893 1.46252C13.6494 1.7029 13.3845 2.04456 13.2281 2.4443C13.0717 2.84404 13.0308 3.2839 13.1105 3.70826C13.1903 4.13263 13.3871 4.52243 13.6761 4.82838C13.9651 5.13433 14.3334 5.34269 14.7342 5.4271C15.1351 5.51151 15.5506 5.46818 15.9282 5.3026C16.3058 5.13702 16.6286 4.85663 16.8557 4.49687C17.0827 4.13711 17.204 3.71416 17.204 3.28148C17.2012 2.70318 16.9823 2.14955 16.595 1.74165C16.2078 1.33374 15.6837 1.10476 15.1374 1.10476V1.09383Z" fill="white"/>
<path d="M18.4387 5.89586C18.2291 5.81901 18.0039 5.80335 17.7866 5.8505C17.5693 5.89766 17.368 6.00589 17.2039 6.16384C16.6995 6.64313 16.0606 6.9342 15.3851 6.99248C14.7095 7.05076 14.0345 6.87304 13.4634 6.48653C13.3622 6.41904 13.2419 6.39086 13.1232 6.40682C13.0044 6.42278 12.8946 6.48188 12.8125 6.57402C12.76 6.63223 12.7203 6.70199 12.6962 6.77832C12.6721 6.85464 12.6642 6.93565 12.6731 7.01557C12.682 7.09549 12.7074 7.17235 12.7476 7.24067C12.7877 7.30899 12.8417 7.36708 12.9055 7.4108C13.6664 7.92619 14.5658 8.16353 15.4662 8.08649C16.3665 8.00945 17.2183 7.62228 17.8911 6.98421C17.9164 6.95603 17.9488 6.93596 17.9844 6.92629C18.02 6.91662 18.0575 6.91775 18.0926 6.92952C18.4975 7.07937 18.8483 7.3589 19.0964 7.72934C19.3445 8.09977 19.4776 8.54276 19.4772 8.99685V12.2455C19.4772 12.3073 19.4657 12.3684 19.4433 12.4255C19.421 12.4826 19.3883 12.5344 19.347 12.5781C19.3058 12.6218 19.2568 12.6564 19.2029 12.68C19.149 12.7037 19.0912 12.7159 19.0328 12.7159H14.8584C14.7214 12.7159 14.59 12.7735 14.4931 12.876C14.3962 12.9786 14.3417 13.1177 14.3417 13.2628C14.3417 13.4078 14.3962 13.5469 14.4931 13.6495C14.59 13.7521 14.7214 13.8097 14.8584 13.8097H19.0277C19.4191 13.8082 19.7942 13.643 20.071 13.35C20.3478 13.0569 20.5039 12.6599 20.5053 12.2455V8.99685C20.5067 8.31703 20.3086 7.65354 19.9384 7.09804C19.5682 6.54254 19.0442 6.12246 18.4387 5.89586Z" fill="white"/>
<path d="M7.25863 7.88684C6.52496 7.88684 5.80776 7.65653 5.19774 7.22505C4.58772 6.79356 4.11227 6.18027 3.8315 5.46274C3.55074 4.7452 3.47728 3.95565 3.62041 3.19392C3.76354 2.43219 4.11684 1.73249 4.63563 1.18332C5.15441 0.634139 5.81537 0.260145 6.53494 0.108627C7.25451 -0.0428905 8.00036 0.0348746 8.67817 0.332087C9.35599 0.6293 9.93534 1.13262 10.3429 1.77838C10.7505 2.42414 10.9681 3.18335 10.9681 3.96001C10.9667 5.00102 10.5755 5.99899 9.88011 6.7351C9.18475 7.47121 8.24202 7.88539 7.25863 7.88684ZM7.25863 1.127C6.72932 1.127 6.2119 1.29315 5.7718 1.60445C5.3317 1.91574 4.98869 2.3582 4.78613 2.87586C4.58358 3.39353 4.53058 3.96315 4.63384 4.5127C4.73711 5.06225 4.99199 5.56704 5.36627 5.96324C5.74054 6.35945 6.21738 6.62927 6.73651 6.73858C7.25565 6.84789 7.79375 6.79179 8.28276 6.57737C8.77178 6.36294 9.18974 5.99983 9.4838 5.53394C9.77787 5.06805 9.93482 4.52032 9.93482 3.96001C9.93346 3.20909 9.65106 2.48934 9.14947 1.95836C8.64788 1.42738 7.96798 1.12845 7.25863 1.127Z" fill="white"/>
<path d="M12.0841 16.6646H2.45907C2.0069 16.6646 1.57325 16.4744 1.25352 16.136C0.933783 15.7975 0.754155 15.3385 0.754155 14.8598V10.84C0.752886 10.0231 0.991989 9.22599 1.43825 8.55952C1.88452 7.89304 2.51579 7.39025 3.24437 7.12097C3.48251 7.03366 3.7386 7.01655 3.98522 7.07147C4.23184 7.12638 4.45973 7.25125 4.64447 7.43271C5.37161 8.11998 6.31229 8.49985 7.28709 8.49985C8.26188 8.49985 9.20256 8.11998 9.9297 7.43271C10.1144 7.25125 10.3423 7.12638 10.589 7.07147C10.8356 7.01655 11.0917 7.03366 11.3298 7.12097C12.057 7.39186 12.6867 7.89522 13.1319 8.56146C13.5771 9.2277 13.8157 10.0239 13.8149 10.84V14.8598C13.8149 15.0991 13.7699 15.3361 13.6826 15.5568C13.5954 15.7776 13.4675 15.9778 13.3064 16.1457C13.1453 16.3137 12.9543 16.4461 12.7445 16.5351C12.5346 16.6242 12.3102 16.6682 12.0841 16.6646ZM3.66285 8.13276C3.62862 8.12703 3.59375 8.12703 3.55952 8.13276C3.03342 8.32881 2.57784 8.69303 2.25576 9.17506C1.93368 9.6571 1.761 10.2331 1.7616 10.8236V14.8434C1.7616 15.0319 1.83237 15.2128 1.95832 15.3461C2.08428 15.4795 2.25511 15.5544 2.43324 15.5544H12.0841C12.2622 15.5544 12.4331 15.4795 12.559 15.3461C12.685 15.2128 12.7557 15.0319 12.7557 14.8434V10.8236C12.7564 10.2345 12.5843 9.65984 12.2631 9.17882C11.942 8.69779 11.4877 8.33419 10.963 8.13823C10.8989 8.11603 10.8303 8.11298 10.7647 8.12938C10.699 8.14578 10.6389 8.18101 10.591 8.2312C9.67515 9.09795 8.48975 9.57711 7.26126 9.57711C6.03277 9.57711 4.84735 9.09795 3.9315 8.2312C3.85646 8.16448 3.7608 8.12943 3.66285 8.13276Z" fill="white"/>
</svg>
