<svg width="14" height="14" viewBox="0 0 14 14" fill="none" xmlns="http://www.w3.org/2000/svg">
<path d="M0.508117 0.923049C0.505593 1.14949 0.582507 1.36873 0.723727 1.53768C0.864947 1.70662 1.06025 1.81303 1.27123 1.83596C4.00571 2.11101 6.56526 3.3939 8.51053 5.46441C10.4558 7.53493 11.6655 10.2639 11.9319 13.183C11.9534 13.4083 12.053 13.6168 12.2112 13.7676C12.3694 13.9184 12.5747 14.0006 12.7868 13.9979C12.907 13.9977 13.0257 13.9706 13.1355 13.9184C13.2453 13.8662 13.3436 13.79 13.4241 13.6948C13.5047 13.5996 13.5656 13.4874 13.6031 13.3655C13.6406 13.2436 13.6537 13.1146 13.6417 12.9869C13.3308 9.65035 11.9455 6.53228 9.722 4.16466C7.4985 1.79704 4.5746 0.326534 1.4491 0.00401215C1.32951 -0.00796006 1.2089 0.00693331 1.09502 0.0477277C0.981148 0.0885222 0.876533 0.154312 0.787901 0.240877C0.69927 0.327441 0.628588 0.432858 0.580403 0.550345C0.532217 0.667832 0.507592 0.79479 0.508117 0.923049Z" fill="#2C75E3"/>
<path d="M0.508091 5.7876C0.508812 6.0085 0.584019 6.22173 0.719945 6.38826C0.855871 6.55478 1.04342 6.66346 1.24825 6.69438C2.78753 6.94426 4.21212 7.71164 5.31512 8.88505C6.41812 10.0585 7.14208 11.5768 7.38185 13.2195C7.41318 13.4366 7.51581 13.6347 7.67139 13.7784C7.82697 13.9221 8.02534 14.002 8.23103 14.0038C8.35447 14.0042 8.47654 13.9763 8.58897 13.9219C8.7014 13.8675 8.80157 13.7879 8.88266 13.6885C8.96375 13.5891 9.02386 13.4723 9.05894 13.3459C9.09402 13.2196 9.10323 13.0866 9.08595 12.9561C8.7909 10.919 7.89426 9.03584 6.52672 7.58105C5.15919 6.12626 3.39226 5.17592 1.4835 4.86856C1.36124 4.85099 1.23686 4.8617 1.11881 4.89995C1.00076 4.9382 0.891788 5.00309 0.799283 5.09025C0.706778 5.17741 0.632903 5.28479 0.582662 5.40511C0.532421 5.52542 0.506989 5.65587 0.508091 5.7876Z" fill="#2C75E3"/>
<path d="M2.25232 14.004C3.21564 14.004 3.99658 13.1701 3.99658 12.1414C3.99658 11.1127 3.21564 10.2788 2.25232 10.2788C1.28899 10.2788 0.508057 11.1127 0.508057 12.1414C0.508057 13.1701 1.28899 14.004 2.25232 14.004Z" fill="#2C75E3"/>
</svg>
