<svg width="14" height="12" viewBox="0 0 14 12" fill="none" xmlns="http://www.w3.org/2000/svg">
<path d="M2.58896 0.973687H4.42816C4.56143 0.973687 4.68924 0.922395 4.78348 0.831094C4.87772 0.739794 4.93067 0.615963 4.93067 0.486844C4.93067 0.357725 4.87772 0.233894 4.78348 0.142593C4.68924 0.0512919 4.56143 0 4.42816 0H1.36283C1.29634 0.000267399 1.23057 0.013313 1.16933 0.0383838C1.10808 0.0634546 1.05257 0.100054 1.00603 0.146055C0.996543 0.158329 0.988144 0.171359 0.980915 0.185003C0.948427 0.219981 0.921342 0.259333 0.900511 0.301841C0.882824 0.347063 0.872649 0.39472 0.870361 0.443029C0.870361 0.443029 0.870361 0.472238 0.870361 0.486844V3.44685C0.870361 3.57597 0.923312 3.6998 1.01755 3.7911C1.11179 3.88241 1.2396 3.9337 1.37287 3.9337C1.50615 3.9337 1.63397 3.88241 1.72821 3.7911C1.82245 3.6998 1.87539 3.57597 1.87539 3.44685V1.665L5.48342 5.10699C5.53014 5.15262 5.58572 5.18884 5.64696 5.21356C5.7082 5.23827 5.77388 5.251 5.84022 5.251C5.90656 5.251 5.97222 5.23827 6.03346 5.21356C6.0947 5.18884 6.15028 5.15262 6.197 5.10699C6.29059 5.01578 6.34313 4.89238 6.34313 4.76377C6.34313 4.63515 6.29059 4.51176 6.197 4.42054L2.58896 0.973687Z" fill="#231F20"/>
<path d="M13.0113 0.44303C13.009 0.39472 12.9988 0.347063 12.9811 0.301841C12.964 0.257393 12.9365 0.217402 12.9007 0.185003C12.9007 0.185003 12.9007 0.155791 12.9007 0.146055C12.8561 0.0990711 12.8012 0.0624566 12.7399 0.0389484C12.6776 0.0144197 12.6112 0.00121617 12.5439 0H9.48364C9.35036 0 9.22254 0.0512919 9.1283 0.142593C9.03406 0.233894 8.98112 0.357725 8.98112 0.486844C8.98112 0.615963 9.03406 0.739794 9.1283 0.831095C9.22254 0.922395 9.35036 0.973687 9.48364 0.973687H11.3178L7.72986 4.38159C7.63626 4.47281 7.58374 4.5962 7.58374 4.72482C7.58374 4.85344 7.63626 4.97683 7.72986 5.06804C7.7764 5.11405 7.8319 5.15064 7.89315 5.17571C7.95439 5.20078 8.02017 5.21383 8.08665 5.2141C8.21848 5.21356 8.3448 5.16285 8.4384 5.07291L12.0464 1.63093V3.44685C12.0464 3.57597 12.0994 3.6998 12.1936 3.79111C12.2879 3.88241 12.4157 3.9337 12.549 3.9337C12.6822 3.9337 12.81 3.88241 12.9043 3.79111C12.9985 3.6998 13.0515 3.57597 13.0515 3.44685V0.501448C13.0515 0.501448 13.0113 0.457635 13.0113 0.44303Z" fill="#231F20"/>
<path d="M5.47366 6.73331L1.86562 10.1753V8.39345C1.86562 8.26433 1.81267 8.1405 1.71843 8.0492C1.62419 7.9579 1.49638 7.90661 1.36311 7.90661C1.22983 7.90661 1.10201 7.9579 1.00777 8.0492C0.913531 8.1405 0.860596 8.26433 0.860596 8.39345V11.3389C0.860596 11.3389 0.860596 11.3681 0.860596 11.3827C0.862883 11.431 0.873058 11.4786 0.890745 11.5239C0.911577 11.5664 0.938661 11.6057 0.971149 11.6407C0.978379 11.6543 0.986778 11.6674 0.996269 11.6796C1.04626 11.7225 1.10206 11.7585 1.16211 11.7868C1.22287 11.81 1.28772 11.8216 1.35305 11.8208H4.41838C4.55165 11.8208 4.67948 11.7695 4.77372 11.6782C4.86796 11.5869 4.92089 11.4631 4.92089 11.334C4.92089 11.2049 4.86796 11.081 4.77372 10.9897C4.67948 10.8984 4.55165 10.8471 4.41838 10.8471H2.57918L6.16713 7.43923C6.21431 7.39448 6.25194 7.34117 6.27785 7.28233C6.30376 7.22349 6.31745 7.16027 6.31815 7.09631C6.31885 7.03234 6.30655 6.96886 6.28193 6.9095C6.25731 6.85015 6.22085 6.79607 6.17466 6.75035C6.12846 6.70464 6.07343 6.66819 6.0127 6.64308C5.95197 6.61798 5.88673 6.60471 5.8207 6.60403C5.75467 6.60335 5.68916 6.61528 5.62789 6.63913C5.56662 6.66298 5.5108 6.6983 5.46361 6.74305L5.47366 6.73331Z" fill="#231F20"/>
<path d="M12.5088 7.90666C12.3755 7.90666 12.2477 7.95795 12.1534 8.04925C12.0592 8.14055 12.0062 8.26438 12.0062 8.3935V10.1754L8.39821 6.73336C8.30405 6.64269 8.17668 6.5918 8.04393 6.5918C7.91117 6.5918 7.78381 6.64269 7.68966 6.73336C7.64256 6.77862 7.60517 6.83247 7.57966 6.8918C7.55415 6.95112 7.54102 7.01476 7.54102 7.07903C7.54102 7.1433 7.55415 7.20692 7.57966 7.26625C7.60517 7.32558 7.64256 7.37942 7.68966 7.42468L11.2776 10.8326H9.44343C9.31015 10.8326 9.18234 10.8839 9.0881 10.9752C8.99386 11.0665 8.94091 11.1903 8.94091 11.3194C8.94091 11.4486 8.99386 11.5724 9.0881 11.6637C9.18234 11.755 9.31015 11.8063 9.44343 11.8063H12.5088C12.5741 11.8071 12.639 11.7955 12.6997 11.7722C12.7611 11.7463 12.8173 11.7101 12.8655 11.6651C12.8655 11.6651 12.8655 11.6651 12.8655 11.6261C12.9013 11.5937 12.9288 11.5537 12.9459 11.5093C12.9636 11.4641 12.9738 11.4164 12.9761 11.3681C12.9761 11.3681 12.9761 11.3438 12.9761 11.3243V8.3789C12.9726 8.25801 12.9229 8.14268 12.8365 8.05539C12.7501 7.96809 12.6333 7.91508 12.5088 7.90666Z" fill="#231F20"/>
</svg>
