<svg width="14" height="12" viewBox="0 0 14 12" fill="none" xmlns="http://www.w3.org/2000/svg">
<path d="M9.45344 1.22623H11.2876L7.69966 4.63413C7.65256 4.67939 7.61518 4.73324 7.58967 4.79256C7.56416 4.85189 7.55103 4.91553 7.55103 4.97979C7.55103 5.04406 7.56416 5.10769 7.58967 5.16702C7.61518 5.22635 7.65256 5.28019 7.69966 5.32545C7.7462 5.37145 7.8017 5.40805 7.86295 5.43312C7.92419 5.45819 7.98997 5.47124 8.05645 5.4715C8.18828 5.47097 8.3146 5.42026 8.4082 5.33032L12.0162 1.88833V3.66045C12.0162 3.78956 12.0692 3.9134 12.1634 4.0047C12.2577 4.096 12.3855 4.14729 12.5187 4.14729C12.652 4.14729 12.7798 4.096 12.8741 4.0047C12.9683 3.9134 13.0213 3.78956 13.0213 3.66045V0.739383C13.0213 0.739383 13.0213 0.710175 13.0213 0.695569C13.019 0.64726 13.0088 0.599603 12.9911 0.55438C12.974 0.509933 12.9465 0.469942 12.9107 0.437543C12.9107 0.437543 12.9107 0.408331 12.9107 0.398594C12.8634 0.354738 12.8091 0.31857 12.7499 0.291488C12.6737 0.26073 12.5911 0.247402 12.5087 0.25254H9.44841C9.31513 0.25254 9.18731 0.303832 9.09307 0.395133C8.99883 0.486433 8.94589 0.610264 8.94589 0.739383C8.94589 0.868502 8.99883 0.992333 9.09307 1.08363C9.18731 1.17494 9.31513 1.22623 9.44841 1.22623H9.45344Z" fill="#231F20"/>
<path d="M12.5088 5.05759C12.3755 5.05759 12.2477 5.10888 12.1534 5.20018C12.0592 5.29148 12.0062 5.41531 12.0062 5.54443V9.01563C12.0062 9.54889 11.7876 10.0603 11.3984 10.4374C11.0092 10.8145 10.4813 11.0263 9.93087 11.0263H3.96605C3.4147 11.025 2.88632 10.8122 2.49645 10.4345C2.10659 10.0568 1.88697 9.54492 1.88564 9.01076V3.21245C1.89226 2.68258 2.11453 2.17666 2.5041 1.80469C2.89368 1.43273 3.41908 1.22481 3.96605 1.22613H7.53891C7.67218 1.22613 7.8 1.17484 7.89424 1.08354C7.98848 0.992235 8.04142 0.868404 8.04142 0.739285C8.04142 0.610166 7.98848 0.486335 7.89424 0.395034C7.8 0.303733 7.67218 0.252441 7.53891 0.252441H3.96605C3.14861 0.25244 2.36458 0.566708 1.7861 1.12624C1.20761 1.68578 0.881947 2.44485 0.880615 3.2368V9.01563C0.881947 9.80757 1.20761 10.5666 1.7861 11.1262C2.36458 11.6857 3.14861 12 3.96605 12H9.95601C10.769 11.9948 11.5469 11.678 12.1194 11.1187C12.692 10.5595 13.0126 9.80332 13.0113 9.01563V5.54443C13.0113 5.41531 12.9583 5.29148 12.8641 5.20018C12.7698 5.10888 12.642 5.05759 12.5088 5.05759Z" fill="#231F20"/>
</svg>
